<?xml version="1.0" encoding="UTF-8" standalone="no"?>
<!-- Creator: CorelDRAW -->
<svg xmlns:dc="http://purl.org/dc/elements/1.1/" xmlns:cc="http://creativecommons.org/ns#" xmlns:rdf="http://www.w3.org/1999/02/22-rdf-syntax-ns#" xmlns:svg="http://www.w3.org/2000/svg" xmlns="http://www.w3.org/2000/svg" xmlns:sodipodi="http://sodipodi.sourceforge.net/DTD/sodipodi-0.dtd" xmlns:inkscape="http://www.inkscape.org/namespaces/inkscape" xml:space="preserve" width="45mm" height="38mm" style="clip-rule:evenodd;fill-rule:evenodd;image-rendering:optimizeQuality;shape-rendering:geometricPrecision;text-rendering:geometricPrecision" viewBox="0 0 45 38" id="svg3664" version="1.1" inkscape:version="0.91 r13725" sodipodi:docname="MatrixBezeichnungen.svg"><title id="title3696">Bezeichnungen an einer Matrix</title><metadata id="metadata3990"><rdf:RDF><cc:Work rdf:about=""><dc:format>image/svg+xml</dc:format><dc:type rdf:resource="http://purl.org/dc/dcmitype/StillImage"/><dc:title>Bezeichnungen an einer Matrix</dc:title><dc:creator><cc:Agent><dc:title>Ralf Pfeifer</dc:title></cc:Agent></dc:creator><dc:rights><cc:Agent><dc:title>Siehe Wikipedia</dc:title></cc:Agent></dc:rights><dc:language>DE</dc:language><cc:license rdf:resource="http://creativecommons.org/licenses/by/3.0/"/></cc:Work><cc:License rdf:about="http://creativecommons.org/licenses/by/3.0/"><cc:permits rdf:resource="http://creativecommons.org/ns#Reproduction"/><cc:permits rdf:resource="http://creativecommons.org/ns#Distribution"/><cc:requires rdf:resource="http://creativecommons.org/ns#Notice"/><cc:requires rdf:resource="http://creativecommons.org/ns#Attribution"/><cc:permits rdf:resource="http://creativecommons.org/ns#DerivativeWorks"/></cc:License></rdf:RDF></metadata><sodipodi:namedview pagecolor="#ffffff" bordercolor="#666666" borderopacity="1" objecttolerance="10" gridtolerance="10" guidetolerance="10" inkscape:pageopacity="0" inkscape:pageshadow="2" inkscape:window-width="1920" inkscape:window-height="1153" id="namedview3988" showgrid="false" fit-margin-top="0" fit-margin-left="0" fit-margin-right="0" fit-margin-bottom="0" inkscape:zoom="1.2713439" inkscape:cx="98.941266" inkscape:cy="11.524249" inkscape:window-x="-4" inkscape:window-y="-4" inkscape:window-maximized="1" inkscape:current-layer="svg3664" showborder="false" units="mm"/>
 <defs id="defs3666">
  <style type="text/css" id="style3668">
   <![CDATA[
    .str1 {stroke:white;stroke-width:0.4}
    .str0 {stroke:red;stroke-width:0.2;stroke-dasharray:1.000000 0.200000}
    .fil2 {fill:none}
    .fil3 {fill:none;fill-rule:nonzero}
    .fil0 {fill:#1F1A17}
    .fil1 {fill:#1F1A17;fill-rule:nonzero}
    .txt0 {color:#1F1A17;font-family:Helvetica;font-size:3px}
   ]]>
  </style>
 </defs>
 <g id="Ebene_x0020_1" transform="translate(-42.1918,-70.252402)">
  <metadata id="CorelCorpID_0Corel-Layer"/>
  <text class="txt0" x="48.3" y="74.9">Element</text>
  <text class="txt0" x="69.5" y="73.5">Spalte</text>
  <text class="txt0" x="42.2" y="78.6">Hauptdiagonale</text>
  <text class="txt0" x="50.1" y="89">Zeile</text>
  <text class="txt0" x="42.2" y="99.2">Gegendiagonale</text>
  <text class="txt0" x="58.5" y="103.6">Zeilenindex</text>
  <text class="txt0" x="56.5" y="107.7">Spaltenindex</text>
  <path class="fil0" d="m 67.1987,94.0114 c -0.6309,-1.5776 -0.9464,-3.4146 -0.9464,-5.5082 0,-2.0827 0.3155,-3.9142 0.9464,-5.4918 l 0.2426,0 c -0.5776,1.7045 -0.8669,3.536 -0.867,5.4918 0,1.9692 0.2894,3.8037 0.867,5.5082 l -0.2426,0 z m 18.1072,0 c 0.6309,-1.5776 0.9464,-3.4146 0.9464,-5.5081 0,-2.0828 -0.3155,-3.9143 -0.9464,-5.4919 l -0.2426,0 c 0.5776,1.7045 0.867,3.536 0.867,5.4919 0,1.9693 -0.2894,3.8036 -0.867,5.5081 l 0.2426,0 z" id="path3672" inkscape:connector-curvature="0" style="fill:#1f1a17"/>
  <g id="g3790">
   <path class="fil1" d="m 66.6863,82.4742 -1.0225,-0.1278 0.5112,-0.7669 0.5113,0.8947 z m -4.4988,-3.1492 0.0832,0.0252 3.742,2.4947 -0.1664,0.2496 -3.742,-2.4947 0.0832,-0.2748 z m 0,0 0.0454,0 0.0378,0.0252 -0.0832,-0.0252 z m -12.1874,0 12.1874,0 0,0.3 -12.1874,0 0,-0.3 z" id="path3792" inkscape:connector-curvature="0" style="fill:#1f1a17;fill-rule:nonzero"/>
  </g>
  <path class="fil2 str0" d="m 84.2875,94.075 -17.4,-11.6 m 14.2,0.2 0,10.6075 M 66,88 84,88 m -0.7125,-5.325 -16.2,10.8" id="path3794" inkscape:connector-curvature="0" style="fill:none;stroke:#ff0000;stroke-width:0.2;stroke-dasharray:1, 0.2"/>
  <g id="g3796">
   <path class="fil1" d="m 66.8863,93.4758 -0.5113,0.8947 -0.5112,-0.7669 1.0225,-0.1278 z m -4.4988,3.1492 -0.0832,-0.2748 3.742,-2.4947 0.1664,0.2496 -3.742,2.4947 -0.0832,0.0252 z m 0.0832,-0.0252 -0.0378,0.0252 -0.0454,0 0.0832,-0.0252 z m -6.5832,-0.2748 6.5,0 0,0.3 -6.5,0 0,-0.3 z" id="path3798" inkscape:connector-curvature="0" style="fill:#1f1a17;fill-rule:nonzero"/>
  </g>
  <g id="g3800">
   <path class="fil1" d="m 73.1431,81.8899 -0.9462,-0.4082 0.7051,-0.5937 0.2411,1.0019 z M 66.5,73.85 66.6143,73.9039 72.6716,81.098 72.443,81.2902 66.3857,74.0961 66.5,73.85 Z m 0,0 0.0689,0 0.0454,0.0539 L 66.5,73.85 Z m -6.5,0 6.5,0 0,0.3 -6.5,0 0,-0.3 z" id="path3802" inkscape:connector-curvature="0" style="fill:#1f1a17;fill-rule:nonzero"/>
  </g>
  <g id="g3804">
   <path class="fil1" d="m 63.5793,88.225 -6.2918,0 0,-0.3 6.2918,0 0,0.3 z m 0.9096,-0.15 -0.9217,0.4609 0,-0.9218 0.9217,0.4609 z" id="path3806" inkscape:connector-curvature="0" style="fill:#1f1a17;fill-rule:nonzero"/>
  </g>
  <g id="g3808">
   <path class="fil1" d="m 81.2375,72.6459 -0.1482,0.1494 -2.6,0.0386 -0.0036,-0.2988 2.6,-0.0386 0.1518,0.1494 z m -0.1518,-0.1494 0.1518,-0.0023 0,0.1517 -0.1518,-0.1494 z m -0.1482,8.6675 0,-8.5181 0.3,0 0,8.5181 -0.3,0 z m 0.15,0.9096 -0.4609,-0.9217 0.9218,0 -0.4609,0.9217 z" id="path3810" inkscape:connector-curvature="0" style="fill:#1f1a17;fill-rule:nonzero"/>
  </g>
  <g id="g3812">
   <path class="fil1" d="m 76.8735,102.722 -0.1518,0.1494 -2.6,-0.0329 0.0036,-0.2988 2.6,0.0329 0.1482,0.1494 z m 0,0 0,0.1513 -0.1518,-0.002 0.1518,-0.1494 z m 0,-7.115 0,7.115 -0.3,0 0,-7.115 0.3,0 z m -0.15,-0.9096 0.4609,0.9217 -0.9218,0 0.4609,-0.9217 z" id="path3814" inkscape:connector-curvature="0" style="fill:#1f1a17;fill-rule:nonzero"/>
  </g>
  <g id="g3816">
   <path class="fil1" d="m 78.5485,106.943 -0.1512,0.1494 -4.275,-0.0501 0.0024,-0.2988 4.275,0.0501 0.1488,0.1494 z m 0,0 0,0.1512 -0.1512,-0.002 0.1512,-0.1494 z m 0,-11.336 0,11.336 -0.3,0 0,-11.336 0.3,0 z m -0.15,-0.9096 0.4609,0.9217 -0.9218,0 0.4609,-0.9217 z" id="path3818" inkscape:connector-curvature="0" style="fill:#1f1a17;fill-rule:nonzero"/>
  </g>
  <g id="g3820">
   <g id="g3822">
    <path class="fil3 str1" d="m 70.1604,83.2046 -0.4028,1.4012 -0.0452,0.1884 c -0.0042,0.0176 -0.0064,0.0324 -0.0064,0.0451 0,0.0219 0.0071,0.0417 0.0205,0.0579 0.0113,0.0127 0.0247,0.0183 0.0416,0.0183 0.0177,0 0.041,-0.0105 0.0699,-0.0324 0.0543,-0.0402 0.1256,-0.1228 0.2152,-0.2484 l 0.0705,0.0494 c -0.0952,0.1433 -0.1933,0.2526 -0.2935,0.3281 -0.1009,0.0748 -0.194,0.1122 -0.2794,0.1122 -0.0592,0 -0.1037,-0.0148 -0.1333,-0.0445 -0.0297,-0.0296 -0.0445,-0.0726 -0.0445,-0.1291 0,-0.067 0.0156,-0.1559 0.0459,-0.2667 l 0.043,-0.1545 c -0.1806,0.2357 -0.3464,0.4001 -0.4981,0.4939 -0.1086,0.067 -0.2159,0.1009 -0.3203,0.1009 -0.1009,0 -0.1877,-0.0416 -0.2604,-0.1249 -0.0733,-0.0832 -0.1093,-0.1983 -0.1093,-0.3443 0,-0.2187 0.0656,-0.4501 0.1968,-0.6936 0.132,-0.2427 0.2992,-0.4374 0.5017,-0.5834 0.158,-0.1158 0.3076,-0.1736 0.4487,-0.1736 0.084,0 0.1538,0.0219 0.2096,0.0656 0.0557,0.0445 0.098,0.1171 0.127,0.2194 l 0.0747,-0.2356 0.3281,-0.0494 z m -0.7359,0.1072 c -0.0882,0 -0.1813,0.0417 -0.2808,0.1242 -0.1404,0.1171 -0.2653,0.2907 -0.3753,0.5207 -0.1094,0.23 -0.1644,0.4381 -0.1644,0.6244 0,0.0939 0.024,0.1679 0.0705,0.2223 0.0466,0.0543 0.1009,0.0811 0.1616,0.0811 0.1496,0 0.3133,-0.1108 0.4897,-0.3323 0.2356,-0.2949 0.3534,-0.5976 0.3534,-0.9073 0,-0.1172 -0.0225,-0.2018 -0.0684,-0.2548 -0.0452,-0.0522 -0.1072,-0.0783 -0.1863,-0.0783 z" id="path3824" inkscape:connector-curvature="0" style="fill:none;fill-rule:nonzero;stroke:#ffffff;stroke-width:0.40000001"/>
   </g>
   <g id="g3826">
    <path id="path3828" class="fil3 str1" d="m 71.0798,85.921 -0.1863,0 0,-1.1854 c -0.0444,0.0424 -0.1037,0.0854 -0.1763,0.1277 -0.0727,0.0431 -0.1376,0.0748 -0.1955,0.0967 l 0,-0.1799 c 0.1037,-0.0494 0.1947,-0.1087 0.2724,-0.1778 0.0783,-0.0699 0.1333,-0.1369 0.1658,-0.2025 l 0.1199,0 0,1.5212 z" inkscape:connector-curvature="0" style="fill:none;fill-rule:nonzero;stroke:#ffffff;stroke-width:0.40000001"/>
   </g>
   <g id="g3830">
    <path id="path3832" class="fil3 str1" d="m 72.0994,85.921 -0.1863,0 0,-1.1854 c -0.0444,0.0424 -0.1037,0.0854 -0.1763,0.1277 -0.0727,0.0431 -0.1376,0.0748 -0.1955,0.0967 l 0,-0.1799 c 0.1037,-0.0494 0.1947,-0.1087 0.2724,-0.1778 0.0783,-0.0699 0.1333,-0.1369 0.1658,-0.2025 l 0.1199,0 0,1.5212 z" inkscape:connector-curvature="0" style="fill:none;fill-rule:nonzero;stroke:#ffffff;stroke-width:0.40000001"/>
   </g>
   <path id="path3834" class="fil1" d="m 70.1604,83.2046 -0.4028,1.4012 -0.0452,0.1884 c -0.0042,0.0176 -0.0064,0.0324 -0.0064,0.0451 0,0.0219 0.0071,0.0417 0.0205,0.0579 0.0113,0.0127 0.0247,0.0183 0.0416,0.0183 0.0177,0 0.041,-0.0105 0.0699,-0.0324 0.0543,-0.0402 0.1256,-0.1228 0.2152,-0.2484 l 0.0705,0.0494 c -0.0952,0.1433 -0.1933,0.2526 -0.2935,0.3281 -0.1009,0.0748 -0.194,0.1122 -0.2794,0.1122 -0.0592,0 -0.1037,-0.0148 -0.1333,-0.0445 -0.0297,-0.0296 -0.0445,-0.0726 -0.0445,-0.1291 0,-0.067 0.0156,-0.1559 0.0459,-0.2667 l 0.043,-0.1545 c -0.1806,0.2357 -0.3464,0.4001 -0.4981,0.4939 -0.1086,0.067 -0.2159,0.1009 -0.3203,0.1009 -0.1009,0 -0.1877,-0.0416 -0.2604,-0.1249 -0.0733,-0.0832 -0.1093,-0.1983 -0.1093,-0.3443 0,-0.2187 0.0656,-0.4501 0.1968,-0.6936 0.132,-0.2427 0.2992,-0.4374 0.5017,-0.5834 0.158,-0.1158 0.3076,-0.1736 0.4487,-0.1736 0.084,0 0.1538,0.0219 0.2096,0.0656 0.0557,0.0445 0.098,0.1171 0.127,0.2194 l 0.0747,-0.2356 0.3281,-0.0494 z m -0.7359,0.1072 c -0.0882,0 -0.1813,0.0417 -0.2808,0.1242 -0.1404,0.1171 -0.2653,0.2907 -0.3753,0.5207 -0.1094,0.23 -0.1644,0.4381 -0.1644,0.6244 0,0.0939 0.024,0.1679 0.0705,0.2223 0.0466,0.0543 0.1009,0.0811 0.1616,0.0811 0.1496,0 0.3133,-0.1108 0.4897,-0.3323 0.2356,-0.2949 0.3534,-0.5976 0.3534,-0.9073 0,-0.1172 -0.0225,-0.2018 -0.0684,-0.2548 -0.0452,-0.0522 -0.1072,-0.0783 -0.1863,-0.0783 z" inkscape:connector-curvature="0" style="fill:#1f1a17;fill-rule:nonzero"/>
   <path id="path3836" class="fil1" d="m 71.0798,85.921 -0.1863,0 0,-1.1854 c -0.0444,0.0424 -0.1037,0.0854 -0.1763,0.1277 -0.0727,0.0431 -0.1376,0.0748 -0.1955,0.0967 l 0,-0.1799 c 0.1037,-0.0494 0.1947,-0.1087 0.2724,-0.1778 0.0783,-0.0699 0.1333,-0.1369 0.1658,-0.2025 l 0.1199,0 0,1.5212 z" inkscape:connector-curvature="0" style="fill:#1f1a17;fill-rule:nonzero"/>
   <path id="path3838" class="fil1" d="m 72.0994,85.921 -0.1863,0 0,-1.1854 c -0.0444,0.0424 -0.1037,0.0854 -0.1763,0.1277 -0.0727,0.0431 -0.1376,0.0748 -0.1955,0.0967 l 0,-0.1799 c 0.1037,-0.0494 0.1947,-0.1087 0.2724,-0.1778 0.0783,-0.0699 0.1333,-0.1369 0.1658,-0.2025 l 0.1199,0 0,1.5212 z" inkscape:connector-curvature="0" style="fill:#1f1a17;fill-rule:nonzero"/>
   <g id="g3840">
    <path class="fil3 str1" d="m 70.0031,87.075 -0.4028,1.4012 -0.0452,0.1884 c -0.0042,0.0176 -0.0064,0.0324 -0.0064,0.0451 0,0.0219 0.0071,0.0417 0.0205,0.0579 0.0113,0.0127 0.0247,0.0183 0.0416,0.0183 0.0177,0 0.041,-0.0105 0.0699,-0.0324 0.0543,-0.0402 0.1256,-0.1228 0.2152,-0.2484 l 0.0705,0.0494 c -0.0952,0.1433 -0.1933,0.2526 -0.2935,0.3281 -0.1009,0.0748 -0.194,0.1122 -0.2794,0.1122 -0.0592,0 -0.1037,-0.0148 -0.1333,-0.0445 -0.0297,-0.0296 -0.0445,-0.0726 -0.0445,-0.1291 0,-0.067 0.0156,-0.1559 0.0459,-0.2667 L 69.3046,88.4 c -0.1806,0.2357 -0.3464,0.4001 -0.4981,0.4939 -0.1086,0.067 -0.2159,0.1009 -0.3203,0.1009 -0.1009,0 -0.1877,-0.0416 -0.2604,-0.1249 -0.0733,-0.0832 -0.1093,-0.1983 -0.1093,-0.3443 0,-0.2187 0.0656,-0.4501 0.1968,-0.6936 0.132,-0.2427 0.2992,-0.4374 0.5017,-0.5834 0.158,-0.1158 0.3076,-0.1736 0.4487,-0.1736 0.084,0 0.1538,0.0219 0.2096,0.0656 0.0557,0.0445 0.098,0.1171 0.127,0.2194 l 0.0747,-0.2356 0.3281,-0.0494 z m -0.7359,0.1072 c -0.0882,0 -0.1813,0.0417 -0.2808,0.1242 -0.1404,0.1171 -0.2653,0.2907 -0.3753,0.5207 -0.1094,0.23 -0.1644,0.4381 -0.1644,0.6244 0,0.0939 0.024,0.1679 0.0705,0.2223 0.0466,0.0543 0.1009,0.0811 0.1616,0.0811 0.1496,0 0.3133,-0.1108 0.4897,-0.3323 0.2356,-0.2949 0.3534,-0.5976 0.3534,-0.9073 0,-0.1172 -0.0225,-0.2018 -0.0684,-0.2548 -0.0452,-0.0522 -0.1072,-0.0783 -0.1863,-0.0783 z" id="path3842" inkscape:connector-curvature="0" style="fill:none;fill-rule:nonzero;stroke:#ffffff;stroke-width:0.40000001"/>
   </g>
   <g id="g3844">
    <path id="path3846" class="fil3 str1" d="m 71.1991,89.6129 0,0.1785 -1.0012,0 c -0.0014,-0.0445 0.0056,-0.0882 0.0219,-0.1292 0.0254,-0.0684 0.0663,-0.1354 0.122,-0.2017 0.0565,-0.0664 0.1376,-0.1426 0.2435,-0.2294 0.1651,-0.1347 0.2758,-0.242 0.3337,-0.321 0.0578,-0.079 0.0868,-0.1531 0.0868,-0.2236 0,-0.0734 -0.0261,-0.1362 -0.0791,-0.1863 -0.0522,-0.0508 -0.1213,-0.0762 -0.206,-0.0762 -0.0896,0 -0.1608,0.0268 -0.2152,0.0804 -0.0536,0.0537 -0.0804,0.1284 -0.0811,0.2237 l -0.1912,-0.0198 c 0.0127,-0.1425 0.0621,-0.2511 0.1474,-0.3259 0.0854,-0.0748 0.2004,-0.1122 0.3444,-0.1122 0.1453,0 0.2603,0.0402 0.345,0.1206 0.0846,0.0805 0.127,0.1807 0.127,0.2999 0,0.0607 -0.012,0.1199 -0.0367,0.1785 -0.0254,0.0586 -0.0663,0.1206 -0.1235,0.1856 -0.0579,0.0642 -0.1531,0.1531 -0.2872,0.266 -0.1114,0.0938 -0.1834,0.1573 -0.2151,0.1912 -0.0318,0.0331 -0.0579,0.067 -0.0784,0.1009 l 0.743,0 z" inkscape:connector-curvature="0" style="fill:none;fill-rule:nonzero;stroke:#ffffff;stroke-width:0.40000001"/>
   </g>
   <g id="g3848">
    <path id="path3850" class="fil3 str1" d="m 72.0994,89.7914 -0.1863,0 0,-1.1854 c -0.0444,0.0424 -0.1037,0.0854 -0.1763,0.1277 -0.0727,0.0431 -0.1376,0.0748 -0.1955,0.0967 l 0,-0.1799 c 0.1037,-0.0494 0.1947,-0.1087 0.2724,-0.1778 0.0783,-0.0699 0.1333,-0.1369 0.1658,-0.2025 l 0.1199,0 0,1.5212 z" inkscape:connector-curvature="0" style="fill:none;fill-rule:nonzero;stroke:#ffffff;stroke-width:0.40000001"/>
   </g>
   <path id="path3852" class="fil1" d="m 70.0031,87.075 -0.4028,1.4012 -0.0452,0.1884 c -0.0042,0.0176 -0.0064,0.0324 -0.0064,0.0451 0,0.0219 0.0071,0.0417 0.0205,0.0579 0.0113,0.0127 0.0247,0.0183 0.0416,0.0183 0.0177,0 0.041,-0.0105 0.0699,-0.0324 0.0543,-0.0402 0.1256,-0.1228 0.2152,-0.2484 l 0.0705,0.0494 c -0.0952,0.1433 -0.1933,0.2526 -0.2935,0.3281 -0.1009,0.0748 -0.194,0.1122 -0.2794,0.1122 -0.0592,0 -0.1037,-0.0148 -0.1333,-0.0445 -0.0297,-0.0296 -0.0445,-0.0726 -0.0445,-0.1291 0,-0.067 0.0156,-0.1559 0.0459,-0.2667 L 69.3046,88.4 c -0.1806,0.2357 -0.3464,0.4001 -0.4981,0.4939 -0.1086,0.067 -0.2159,0.1009 -0.3203,0.1009 -0.1009,0 -0.1877,-0.0416 -0.2604,-0.1249 -0.0733,-0.0832 -0.1093,-0.1983 -0.1093,-0.3443 0,-0.2187 0.0656,-0.4501 0.1968,-0.6936 0.132,-0.2427 0.2992,-0.4374 0.5017,-0.5834 0.158,-0.1158 0.3076,-0.1736 0.4487,-0.1736 0.084,0 0.1538,0.0219 0.2096,0.0656 0.0557,0.0445 0.098,0.1171 0.127,0.2194 l 0.0747,-0.2356 0.3281,-0.0494 z m -0.7359,0.1072 c -0.0882,0 -0.1813,0.0417 -0.2808,0.1242 -0.1404,0.1171 -0.2653,0.2907 -0.3753,0.5207 -0.1094,0.23 -0.1644,0.4381 -0.1644,0.6244 0,0.0939 0.024,0.1679 0.0705,0.2223 0.0466,0.0543 0.1009,0.0811 0.1616,0.0811 0.1496,0 0.3133,-0.1108 0.4897,-0.3323 0.2356,-0.2949 0.3534,-0.5976 0.3534,-0.9073 0,-0.1172 -0.0225,-0.2018 -0.0684,-0.2548 -0.0452,-0.0522 -0.1072,-0.0783 -0.1863,-0.0783 z" inkscape:connector-curvature="0" style="fill:#1f1a17;fill-rule:nonzero"/>
   <path id="path3854" class="fil1" d="m 71.1991,89.6129 0,0.1785 -1.0012,0 c -0.0014,-0.0445 0.0056,-0.0882 0.0219,-0.1292 0.0254,-0.0684 0.0663,-0.1354 0.122,-0.2017 0.0565,-0.0664 0.1376,-0.1426 0.2435,-0.2294 0.1651,-0.1347 0.2758,-0.242 0.3337,-0.321 0.0578,-0.079 0.0868,-0.1531 0.0868,-0.2236 0,-0.0734 -0.0261,-0.1362 -0.0791,-0.1863 -0.0522,-0.0508 -0.1213,-0.0762 -0.206,-0.0762 -0.0896,0 -0.1608,0.0268 -0.2152,0.0804 -0.0536,0.0537 -0.0804,0.1284 -0.0811,0.2237 l -0.1912,-0.0198 c 0.0127,-0.1425 0.0621,-0.2511 0.1474,-0.3259 0.0854,-0.0748 0.2004,-0.1122 0.3444,-0.1122 0.1453,0 0.2603,0.0402 0.345,0.1206 0.0846,0.0805 0.127,0.1807 0.127,0.2999 0,0.0607 -0.012,0.1199 -0.0367,0.1785 -0.0254,0.0586 -0.0663,0.1206 -0.1235,0.1856 -0.0579,0.0642 -0.1531,0.1531 -0.2872,0.266 -0.1114,0.0938 -0.1834,0.1573 -0.2151,0.1912 -0.0318,0.0331 -0.0579,0.067 -0.0784,0.1009 l 0.743,0 z" inkscape:connector-curvature="0" style="fill:#1f1a17;fill-rule:nonzero"/>
   <path id="path3856" class="fil1" d="m 72.0994,89.7914 -0.1863,0 0,-1.1854 c -0.0444,0.0424 -0.1037,0.0854 -0.1763,0.1277 -0.0727,0.0431 -0.1376,0.0748 -0.1955,0.0967 l 0,-0.1799 c 0.1037,-0.0494 0.1947,-0.1087 0.2724,-0.1778 0.0783,-0.0699 0.1333,-0.1369 0.1658,-0.2025 l 0.1199,0 0,1.5212 z" inkscape:connector-curvature="0" style="fill:#1f1a17;fill-rule:nonzero"/>
   <g id="g3858">
    <path class="fil3 str1" d="m 70.0991,91.075 -0.4028,1.4012 -0.0452,0.1884 c -0.0042,0.0176 -0.0064,0.0324 -0.0064,0.0451 0,0.0219 0.0071,0.0417 0.0205,0.0579 0.0113,0.0127 0.0247,0.0183 0.0416,0.0183 0.0177,0 0.041,-0.0105 0.0699,-0.0324 0.0543,-0.0402 0.1256,-0.1228 0.2152,-0.2484 l 0.0705,0.0494 c -0.0952,0.1433 -0.1933,0.2526 -0.2935,0.3281 -0.1009,0.0748 -0.194,0.1122 -0.2794,0.1122 -0.0592,0 -0.1037,-0.0148 -0.1333,-0.0445 -0.0297,-0.0296 -0.0445,-0.0726 -0.0445,-0.1291 0,-0.067 0.0156,-0.1559 0.0459,-0.2667 L 69.4006,92.4 c -0.1806,0.2357 -0.3464,0.4001 -0.4981,0.4939 -0.1086,0.067 -0.2159,0.1009 -0.3203,0.1009 -0.1009,0 -0.1877,-0.0416 -0.2604,-0.1249 -0.0733,-0.0832 -0.1093,-0.1983 -0.1093,-0.3443 0,-0.2187 0.0656,-0.4501 0.1968,-0.6936 0.132,-0.2427 0.2992,-0.4374 0.5017,-0.5834 0.158,-0.1158 0.3076,-0.1736 0.4487,-0.1736 0.084,0 0.1538,0.0219 0.2096,0.0656 0.0557,0.0445 0.098,0.1171 0.127,0.2194 l 0.0747,-0.2356 0.3281,-0.0494 z m -0.7359,0.1072 c -0.0882,0 -0.1813,0.0417 -0.2808,0.1242 -0.1404,0.1171 -0.2653,0.2907 -0.3753,0.5207 -0.1094,0.23 -0.1644,0.4381 -0.1644,0.6244 0,0.0939 0.024,0.1679 0.0705,0.2223 0.0466,0.0543 0.1009,0.0811 0.1616,0.0811 0.1496,0 0.3133,-0.1108 0.4897,-0.3323 0.2356,-0.2949 0.3534,-0.5976 0.3534,-0.9073 0,-0.1172 -0.0225,-0.2018 -0.0684,-0.2548 -0.0452,-0.0522 -0.1072,-0.0783 -0.1863,-0.0783 z" id="path3860" inkscape:connector-curvature="0" style="fill:none;fill-rule:nonzero;stroke:#ffffff;stroke-width:0.40000001"/>
   </g>
   <g id="g3862">
    <path id="path3864" class="fil3 str1" d="m 70.3186,93.3913 0.1863,-0.0247 c 0.0211,0.1051 0.0571,0.1813 0.1086,0.2279 0.0515,0.0466 0.1143,0.0699 0.1877,0.0699 0.0875,0 0.1616,-0.0304 0.2215,-0.0911 0.0607,-0.0606 0.0903,-0.1354 0.0903,-0.225 0,-0.0861 -0.0275,-0.156 -0.0832,-0.2117 -0.0557,-0.0557 -0.127,-0.0833 -0.2131,-0.0833 -0.0353,0 -0.079,0.0071 -0.1312,0.0205 l 0.0204,-0.163 c 0.0127,0.0014 0.0226,0.0021 0.0304,0.0021 0.079,0 0.1503,-0.0204 0.2138,-0.062 0.0635,-0.0417 0.0952,-0.1052 0.0952,-0.1912 0,-0.0685 -0.0233,-0.1249 -0.0691,-0.1694 -0.0466,-0.0451 -0.1059,-0.067 -0.1792,-0.067 -0.072,0 -0.1327,0.0226 -0.1807,0.0677 -0.0486,0.0459 -0.079,0.1136 -0.0931,0.2046 l -0.1863,-0.0331 c 0.0233,-0.1242 0.0748,-0.2209 0.1553,-0.29 0.0804,-0.0684 0.1806,-0.1023 0.3005,-0.1023 0.0833,0 0.1588,0.0176 0.2286,0.0529 0.0699,0.0353 0.1228,0.084 0.1595,0.1453 0.0374,0.0614 0.0557,0.1263 0.0557,0.1955 0,0.0656 -0.0176,0.1249 -0.0529,0.1785 -0.0353,0.0536 -0.0868,0.0967 -0.1559,0.1284 0.0896,0.0205 0.1587,0.0635 0.2088,0.1284 0.0494,0.0656 0.0741,0.1468 0.0741,0.2448 0,0.132 -0.048,0.2442 -0.1446,0.3366 -0.0967,0.0917 -0.2181,0.1376 -0.3655,0.1376 -0.1334,0 -0.2434,-0.0395 -0.3316,-0.1186 -0.0875,-0.0797 -0.1376,-0.182 -0.1503,-0.3083 z" inkscape:connector-curvature="0" style="fill:none;fill-rule:nonzero;stroke:#ffffff;stroke-width:0.40000001"/>
   </g>
   <g id="g3866">
    <path id="path3868" class="fil3 str1" d="m 72.1954,93.7914 -0.1863,0 0,-1.1854 c -0.0444,0.0424 -0.1037,0.0854 -0.1763,0.1277 -0.0727,0.0431 -0.1376,0.0748 -0.1955,0.0967 l 0,-0.1799 c 0.1037,-0.0494 0.1947,-0.1087 0.2724,-0.1778 0.0783,-0.0699 0.1333,-0.1369 0.1658,-0.2025 l 0.1199,0 0,1.5212 z" inkscape:connector-curvature="0" style="fill:none;fill-rule:nonzero;stroke:#ffffff;stroke-width:0.40000001"/>
   </g>
   <path id="path3870" class="fil1" d="m 70.0991,91.075 -0.4028,1.4012 -0.0452,0.1884 c -0.0042,0.0176 -0.0064,0.0324 -0.0064,0.0451 0,0.0219 0.0071,0.0417 0.0205,0.0579 0.0113,0.0127 0.0247,0.0183 0.0416,0.0183 0.0177,0 0.041,-0.0105 0.0699,-0.0324 0.0543,-0.0402 0.1256,-0.1228 0.2152,-0.2484 l 0.0705,0.0494 c -0.0952,0.1433 -0.1933,0.2526 -0.2935,0.3281 -0.1009,0.0748 -0.194,0.1122 -0.2794,0.1122 -0.0592,0 -0.1037,-0.0148 -0.1333,-0.0445 -0.0297,-0.0296 -0.0445,-0.0726 -0.0445,-0.1291 0,-0.067 0.0156,-0.1559 0.0459,-0.2667 L 69.4006,92.4 c -0.1806,0.2357 -0.3464,0.4001 -0.4981,0.4939 -0.1086,0.067 -0.2159,0.1009 -0.3203,0.1009 -0.1009,0 -0.1877,-0.0416 -0.2604,-0.1249 -0.0733,-0.0832 -0.1093,-0.1983 -0.1093,-0.3443 0,-0.2187 0.0656,-0.4501 0.1968,-0.6936 0.132,-0.2427 0.2992,-0.4374 0.5017,-0.5834 0.158,-0.1158 0.3076,-0.1736 0.4487,-0.1736 0.084,0 0.1538,0.0219 0.2096,0.0656 0.0557,0.0445 0.098,0.1171 0.127,0.2194 l 0.0747,-0.2356 0.3281,-0.0494 z m -0.7359,0.1072 c -0.0882,0 -0.1813,0.0417 -0.2808,0.1242 -0.1404,0.1171 -0.2653,0.2907 -0.3753,0.5207 -0.1094,0.23 -0.1644,0.4381 -0.1644,0.6244 0,0.0939 0.024,0.1679 0.0705,0.2223 0.0466,0.0543 0.1009,0.0811 0.1616,0.0811 0.1496,0 0.3133,-0.1108 0.4897,-0.3323 0.2356,-0.2949 0.3534,-0.5976 0.3534,-0.9073 0,-0.1172 -0.0225,-0.2018 -0.0684,-0.2548 -0.0452,-0.0522 -0.1072,-0.0783 -0.1863,-0.0783 z" inkscape:connector-curvature="0" style="fill:#1f1a17;fill-rule:nonzero"/>
   <path id="path3872" class="fil1" d="m 70.3186,93.3913 0.1863,-0.0247 c 0.0211,0.1051 0.0571,0.1813 0.1086,0.2279 0.0515,0.0466 0.1143,0.0699 0.1877,0.0699 0.0875,0 0.1616,-0.0304 0.2215,-0.0911 0.0607,-0.0606 0.0903,-0.1354 0.0903,-0.225 0,-0.0861 -0.0275,-0.156 -0.0832,-0.2117 -0.0557,-0.0557 -0.127,-0.0833 -0.2131,-0.0833 -0.0353,0 -0.079,0.0071 -0.1312,0.0205 l 0.0204,-0.163 c 0.0127,0.0014 0.0226,0.0021 0.0304,0.0021 0.079,0 0.1503,-0.0204 0.2138,-0.062 0.0635,-0.0417 0.0952,-0.1052 0.0952,-0.1912 0,-0.0685 -0.0233,-0.1249 -0.0691,-0.1694 -0.0466,-0.0451 -0.1059,-0.067 -0.1792,-0.067 -0.072,0 -0.1327,0.0226 -0.1807,0.0677 -0.0486,0.0459 -0.079,0.1136 -0.0931,0.2046 l -0.1863,-0.0331 c 0.0233,-0.1242 0.0748,-0.2209 0.1553,-0.29 0.0804,-0.0684 0.1806,-0.1023 0.3005,-0.1023 0.0833,0 0.1588,0.0176 0.2286,0.0529 0.0699,0.0353 0.1228,0.084 0.1595,0.1453 0.0374,0.0614 0.0557,0.1263 0.0557,0.1955 0,0.0656 -0.0176,0.1249 -0.0529,0.1785 -0.0353,0.0536 -0.0868,0.0967 -0.1559,0.1284 0.0896,0.0205 0.1587,0.0635 0.2088,0.1284 0.0494,0.0656 0.0741,0.1468 0.0741,0.2448 0,0.132 -0.048,0.2442 -0.1446,0.3366 -0.0967,0.0917 -0.2181,0.1376 -0.3655,0.1376 -0.1334,0 -0.2434,-0.0395 -0.3316,-0.1186 -0.0875,-0.0797 -0.1376,-0.182 -0.1503,-0.3083 z" inkscape:connector-curvature="0" style="fill:#1f1a17;fill-rule:nonzero"/>
   <path id="path3874" class="fil1" d="m 72.1954,93.7914 -0.1863,0 0,-1.1854 c -0.0444,0.0424 -0.1037,0.0854 -0.1763,0.1277 -0.0727,0.0431 -0.1376,0.0748 -0.1955,0.0967 l 0,-0.1799 c 0.1037,-0.0494 0.1947,-0.1087 0.2724,-0.1778 0.0783,-0.0699 0.1333,-0.1369 0.1658,-0.2025 l 0.1199,0 0,1.5212 z" inkscape:connector-curvature="0" style="fill:#1f1a17;fill-rule:nonzero"/>
   <g id="g3876">
    <path class="fil3 str1" d="m 76.0031,83.2046 -0.4028,1.4012 -0.0452,0.1884 c -0.0042,0.0176 -0.0064,0.0324 -0.0064,0.0451 0,0.0219 0.0071,0.0417 0.0205,0.0579 0.0113,0.0127 0.0247,0.0183 0.0416,0.0183 0.0177,0 0.041,-0.0105 0.0699,-0.0324 0.0543,-0.0402 0.1256,-0.1228 0.2152,-0.2484 l 0.0705,0.0494 c -0.0952,0.1433 -0.1933,0.2526 -0.2935,0.3281 -0.1009,0.0748 -0.194,0.1122 -0.2794,0.1122 -0.0592,0 -0.1037,-0.0148 -0.1333,-0.0445 -0.0297,-0.0296 -0.0445,-0.0726 -0.0445,-0.1291 0,-0.067 0.0156,-0.1559 0.0459,-0.2667 l 0.043,-0.1545 c -0.1806,0.2357 -0.3464,0.4001 -0.4981,0.4939 -0.1086,0.067 -0.2159,0.1009 -0.3203,0.1009 -0.1009,0 -0.1877,-0.0416 -0.2604,-0.1249 -0.0733,-0.0832 -0.1093,-0.1983 -0.1093,-0.3443 0,-0.2187 0.0656,-0.4501 0.1968,-0.6936 0.132,-0.2427 0.2992,-0.4374 0.5017,-0.5834 0.158,-0.1158 0.3076,-0.1736 0.4487,-0.1736 0.084,0 0.1538,0.0219 0.2096,0.0656 0.0557,0.0445 0.098,0.1171 0.127,0.2194 l 0.0747,-0.2356 0.3281,-0.0494 z m -0.7359,0.1072 c -0.0882,0 -0.1813,0.0417 -0.2808,0.1242 -0.1404,0.1171 -0.2653,0.2907 -0.3753,0.5207 -0.1094,0.23 -0.1644,0.4381 -0.1644,0.6244 0,0.0939 0.024,0.1679 0.0705,0.2223 0.0466,0.0543 0.1009,0.0811 0.1616,0.0811 0.1496,0 0.3133,-0.1108 0.4897,-0.3323 0.2356,-0.2949 0.3534,-0.5976 0.3534,-0.9073 0,-0.1172 -0.0225,-0.2018 -0.0684,-0.2548 -0.0452,-0.0522 -0.1072,-0.0783 -0.1863,-0.0783 z" id="path3878" inkscape:connector-curvature="0" style="fill:none;fill-rule:nonzero;stroke:#ffffff;stroke-width:0.40000001"/>
   </g>
   <g id="g3880">
    <path id="path3882" class="fil3 str1" d="m 76.9225,85.921 -0.1863,0 0,-1.1854 c -0.0444,0.0424 -0.1037,0.0854 -0.1763,0.1277 -0.0727,0.0431 -0.1376,0.0748 -0.1955,0.0967 l 0,-0.1799 c 0.1037,-0.0494 0.1947,-0.1087 0.2724,-0.1778 0.0783,-0.0699 0.1333,-0.1369 0.1658,-0.2025 l 0.1199,0 0,1.5212 z" inkscape:connector-curvature="0" style="fill:none;fill-rule:nonzero;stroke:#ffffff;stroke-width:0.40000001"/>
   </g>
   <g id="g3884">
    <path id="path3886" class="fil3 str1" d="m 78.376,85.7425 0,0.1785 -1.0012,0 c -0.0014,-0.0445 0.0056,-0.0882 0.0219,-0.1292 0.0254,-0.0684 0.0663,-0.1354 0.122,-0.2017 0.0565,-0.0664 0.1376,-0.1426 0.2435,-0.2294 0.1651,-0.1347 0.2758,-0.242 0.3337,-0.321 0.0578,-0.079 0.0868,-0.1531 0.0868,-0.2236 0,-0.0734 -0.0261,-0.1362 -0.0791,-0.1863 -0.0522,-0.0508 -0.1213,-0.0762 -0.206,-0.0762 -0.0896,0 -0.1608,0.0268 -0.2152,0.0804 -0.0536,0.0537 -0.0804,0.1284 -0.0811,0.2237 l -0.1912,-0.0198 c 0.0127,-0.1425 0.0621,-0.2511 0.1474,-0.3259 0.0854,-0.0748 0.2004,-0.1122 0.3444,-0.1122 0.1453,0 0.2603,0.0402 0.345,0.1206 0.0846,0.0805 0.127,0.1807 0.127,0.2999 0,0.0607 -0.012,0.1199 -0.0367,0.1785 -0.0254,0.0586 -0.0663,0.1206 -0.1235,0.1856 -0.0579,0.0642 -0.1531,0.1531 -0.2872,0.266 -0.1114,0.0938 -0.1834,0.1573 -0.2151,0.1912 -0.0318,0.0331 -0.0579,0.067 -0.0784,0.1009 l 0.743,0 z" inkscape:connector-curvature="0" style="fill:none;fill-rule:nonzero;stroke:#ffffff;stroke-width:0.40000001"/>
   </g>
   <path id="path3888" class="fil1" d="m 76.0031,83.2046 -0.4028,1.4012 -0.0452,0.1884 c -0.0042,0.0176 -0.0064,0.0324 -0.0064,0.0451 0,0.0219 0.0071,0.0417 0.0205,0.0579 0.0113,0.0127 0.0247,0.0183 0.0416,0.0183 0.0177,0 0.041,-0.0105 0.0699,-0.0324 0.0543,-0.0402 0.1256,-0.1228 0.2152,-0.2484 l 0.0705,0.0494 c -0.0952,0.1433 -0.1933,0.2526 -0.2935,0.3281 -0.1009,0.0748 -0.194,0.1122 -0.2794,0.1122 -0.0592,0 -0.1037,-0.0148 -0.1333,-0.0445 -0.0297,-0.0296 -0.0445,-0.0726 -0.0445,-0.1291 0,-0.067 0.0156,-0.1559 0.0459,-0.2667 l 0.043,-0.1545 c -0.1806,0.2357 -0.3464,0.4001 -0.4981,0.4939 -0.1086,0.067 -0.2159,0.1009 -0.3203,0.1009 -0.1009,0 -0.1877,-0.0416 -0.2604,-0.1249 -0.0733,-0.0832 -0.1093,-0.1983 -0.1093,-0.3443 0,-0.2187 0.0656,-0.4501 0.1968,-0.6936 0.132,-0.2427 0.2992,-0.4374 0.5017,-0.5834 0.158,-0.1158 0.3076,-0.1736 0.4487,-0.1736 0.084,0 0.1538,0.0219 0.2096,0.0656 0.0557,0.0445 0.098,0.1171 0.127,0.2194 l 0.0747,-0.2356 0.3281,-0.0494 z m -0.7359,0.1072 c -0.0882,0 -0.1813,0.0417 -0.2808,0.1242 -0.1404,0.1171 -0.2653,0.2907 -0.3753,0.5207 -0.1094,0.23 -0.1644,0.4381 -0.1644,0.6244 0,0.0939 0.024,0.1679 0.0705,0.2223 0.0466,0.0543 0.1009,0.0811 0.1616,0.0811 0.1496,0 0.3133,-0.1108 0.4897,-0.3323 0.2356,-0.2949 0.3534,-0.5976 0.3534,-0.9073 0,-0.1172 -0.0225,-0.2018 -0.0684,-0.2548 -0.0452,-0.0522 -0.1072,-0.0783 -0.1863,-0.0783 z" inkscape:connector-curvature="0" style="fill:#1f1a17;fill-rule:nonzero"/>
   <path id="path3890" class="fil1" d="m 76.9225,85.921 -0.1863,0 0,-1.1854 c -0.0444,0.0424 -0.1037,0.0854 -0.1763,0.1277 -0.0727,0.0431 -0.1376,0.0748 -0.1955,0.0967 l 0,-0.1799 c 0.1037,-0.0494 0.1947,-0.1087 0.2724,-0.1778 0.0783,-0.0699 0.1333,-0.1369 0.1658,-0.2025 l 0.1199,0 0,1.5212 z" inkscape:connector-curvature="0" style="fill:#1f1a17;fill-rule:nonzero"/>
   <path id="path3892" class="fil1" d="m 78.376,85.7425 0,0.1785 -1.0012,0 c -0.0014,-0.0445 0.0056,-0.0882 0.0219,-0.1292 0.0254,-0.0684 0.0663,-0.1354 0.122,-0.2017 0.0565,-0.0664 0.1376,-0.1426 0.2435,-0.2294 0.1651,-0.1347 0.2758,-0.242 0.3337,-0.321 0.0578,-0.079 0.0868,-0.1531 0.0868,-0.2236 0,-0.0734 -0.0261,-0.1362 -0.0791,-0.1863 -0.0522,-0.0508 -0.1213,-0.0762 -0.206,-0.0762 -0.0896,0 -0.1608,0.0268 -0.2152,0.0804 -0.0536,0.0537 -0.0804,0.1284 -0.0811,0.2237 l -0.1912,-0.0198 c 0.0127,-0.1425 0.0621,-0.2511 0.1474,-0.3259 0.0854,-0.0748 0.2004,-0.1122 0.3444,-0.1122 0.1453,0 0.2603,0.0402 0.345,0.1206 0.0846,0.0805 0.127,0.1807 0.127,0.2999 0,0.0607 -0.012,0.1199 -0.0367,0.1785 -0.0254,0.0586 -0.0663,0.1206 -0.1235,0.1856 -0.0579,0.0642 -0.1531,0.1531 -0.2872,0.266 -0.1114,0.0938 -0.1834,0.1573 -0.2151,0.1912 -0.0318,0.0331 -0.0579,0.067 -0.0784,0.1009 l 0.743,0 z" inkscape:connector-curvature="0" style="fill:#1f1a17;fill-rule:nonzero"/>
   <g id="g3894">
    <path class="fil3 str1" d="m 76.0031,87.075 -0.4028,1.4012 -0.0452,0.1884 c -0.0042,0.0176 -0.0064,0.0324 -0.0064,0.0451 0,0.0219 0.0071,0.0417 0.0205,0.0579 0.0113,0.0127 0.0247,0.0183 0.0416,0.0183 0.0177,0 0.041,-0.0105 0.0699,-0.0324 0.0543,-0.0402 0.1256,-0.1228 0.2152,-0.2484 l 0.0705,0.0494 c -0.0952,0.1433 -0.1933,0.2526 -0.2935,0.3281 -0.1009,0.0748 -0.194,0.1122 -0.2794,0.1122 -0.0592,0 -0.1037,-0.0148 -0.1333,-0.0445 -0.0297,-0.0296 -0.0445,-0.0726 -0.0445,-0.1291 0,-0.067 0.0156,-0.1559 0.0459,-0.2667 L 75.3046,88.4 c -0.1806,0.2357 -0.3464,0.4001 -0.4981,0.4939 -0.1086,0.067 -0.2159,0.1009 -0.3203,0.1009 -0.1009,0 -0.1877,-0.0416 -0.2604,-0.1249 -0.0733,-0.0832 -0.1093,-0.1983 -0.1093,-0.3443 0,-0.2187 0.0656,-0.4501 0.1968,-0.6936 0.132,-0.2427 0.2992,-0.4374 0.5017,-0.5834 0.158,-0.1158 0.3076,-0.1736 0.4487,-0.1736 0.084,0 0.1538,0.0219 0.2096,0.0656 0.0557,0.0445 0.098,0.1171 0.127,0.2194 l 0.0747,-0.2356 0.3281,-0.0494 z m -0.7359,0.1072 c -0.0882,0 -0.1813,0.0417 -0.2808,0.1242 -0.1404,0.1171 -0.2653,0.2907 -0.3753,0.5207 -0.1094,0.23 -0.1644,0.4381 -0.1644,0.6244 0,0.0939 0.024,0.1679 0.0705,0.2223 0.0466,0.0543 0.1009,0.0811 0.1616,0.0811 0.1496,0 0.3133,-0.1108 0.4897,-0.3323 0.2356,-0.2949 0.3534,-0.5976 0.3534,-0.9073 0,-0.1172 -0.0225,-0.2018 -0.0684,-0.2548 -0.0452,-0.0522 -0.1072,-0.0783 -0.1863,-0.0783 z" id="path3896" inkscape:connector-curvature="0" style="fill:none;fill-rule:nonzero;stroke:#ffffff;stroke-width:0.40000001"/>
   </g>
   <g id="g3898">
    <path id="path3900" class="fil3 str1" d="m 77.1991,89.6129 0,0.1785 -1.0012,0 c -0.0014,-0.0445 0.0056,-0.0882 0.0219,-0.1292 0.0254,-0.0684 0.0663,-0.1354 0.122,-0.2017 0.0565,-0.0664 0.1376,-0.1426 0.2435,-0.2294 0.1651,-0.1347 0.2758,-0.242 0.3337,-0.321 0.0578,-0.079 0.0868,-0.1531 0.0868,-0.2236 0,-0.0734 -0.0261,-0.1362 -0.0791,-0.1863 -0.0522,-0.0508 -0.1213,-0.0762 -0.206,-0.0762 -0.0896,0 -0.1608,0.0268 -0.2152,0.0804 -0.0536,0.0537 -0.0804,0.1284 -0.0811,0.2237 l -0.1912,-0.0198 c 0.0127,-0.1425 0.0621,-0.2511 0.1474,-0.3259 0.0854,-0.0748 0.2004,-0.1122 0.3444,-0.1122 0.1453,0 0.2603,0.0402 0.345,0.1206 0.0846,0.0805 0.127,0.1807 0.127,0.2999 0,0.0607 -0.012,0.1199 -0.0367,0.1785 -0.0254,0.0586 -0.0663,0.1206 -0.1235,0.1856 -0.0579,0.0642 -0.1531,0.1531 -0.2872,0.266 -0.1114,0.0938 -0.1834,0.1573 -0.2151,0.1912 -0.0318,0.0331 -0.0579,0.067 -0.0784,0.1009 l 0.743,0 z" inkscape:connector-curvature="0" style="fill:none;fill-rule:nonzero;stroke:#ffffff;stroke-width:0.40000001"/>
   </g>
   <g id="g3902">
    <path id="path3904" class="fil3 str1" d="m 78.376,89.6129 0,0.1785 -1.0012,0 c -0.0014,-0.0445 0.0056,-0.0882 0.0219,-0.1292 0.0254,-0.0684 0.0663,-0.1354 0.122,-0.2017 0.0565,-0.0664 0.1376,-0.1426 0.2435,-0.2294 0.1651,-0.1347 0.2758,-0.242 0.3337,-0.321 0.0578,-0.079 0.0868,-0.1531 0.0868,-0.2236 0,-0.0734 -0.0261,-0.1362 -0.0791,-0.1863 -0.0522,-0.0508 -0.1213,-0.0762 -0.206,-0.0762 -0.0896,0 -0.1608,0.0268 -0.2152,0.0804 -0.0536,0.0537 -0.0804,0.1284 -0.0811,0.2237 l -0.1912,-0.0198 c 0.0127,-0.1425 0.0621,-0.2511 0.1474,-0.3259 0.0854,-0.0748 0.2004,-0.1122 0.3444,-0.1122 0.1453,0 0.2603,0.0402 0.345,0.1206 0.0846,0.0805 0.127,0.1807 0.127,0.2999 0,0.0607 -0.012,0.1199 -0.0367,0.1785 -0.0254,0.0586 -0.0663,0.1206 -0.1235,0.1856 -0.0579,0.0642 -0.1531,0.1531 -0.2872,0.266 -0.1114,0.0938 -0.1834,0.1573 -0.2151,0.1912 -0.0318,0.0331 -0.0579,0.067 -0.0784,0.1009 l 0.743,0 z" inkscape:connector-curvature="0" style="fill:none;fill-rule:nonzero;stroke:#ffffff;stroke-width:0.40000001"/>
   </g>
   <path id="path3906" class="fil1" d="m 76.0031,87.075 -0.4028,1.4012 -0.0452,0.1884 c -0.0042,0.0176 -0.0064,0.0324 -0.0064,0.0451 0,0.0219 0.0071,0.0417 0.0205,0.0579 0.0113,0.0127 0.0247,0.0183 0.0416,0.0183 0.0177,0 0.041,-0.0105 0.0699,-0.0324 0.0543,-0.0402 0.1256,-0.1228 0.2152,-0.2484 l 0.0705,0.0494 c -0.0952,0.1433 -0.1933,0.2526 -0.2935,0.3281 -0.1009,0.0748 -0.194,0.1122 -0.2794,0.1122 -0.0592,0 -0.1037,-0.0148 -0.1333,-0.0445 -0.0297,-0.0296 -0.0445,-0.0726 -0.0445,-0.1291 0,-0.067 0.0156,-0.1559 0.0459,-0.2667 L 75.3046,88.4 c -0.1806,0.2357 -0.3464,0.4001 -0.4981,0.4939 -0.1086,0.067 -0.2159,0.1009 -0.3203,0.1009 -0.1009,0 -0.1877,-0.0416 -0.2604,-0.1249 -0.0733,-0.0832 -0.1093,-0.1983 -0.1093,-0.3443 0,-0.2187 0.0656,-0.4501 0.1968,-0.6936 0.132,-0.2427 0.2992,-0.4374 0.5017,-0.5834 0.158,-0.1158 0.3076,-0.1736 0.4487,-0.1736 0.084,0 0.1538,0.0219 0.2096,0.0656 0.0557,0.0445 0.098,0.1171 0.127,0.2194 l 0.0747,-0.2356 0.3281,-0.0494 z m -0.7359,0.1072 c -0.0882,0 -0.1813,0.0417 -0.2808,0.1242 -0.1404,0.1171 -0.2653,0.2907 -0.3753,0.5207 -0.1094,0.23 -0.1644,0.4381 -0.1644,0.6244 0,0.0939 0.024,0.1679 0.0705,0.2223 0.0466,0.0543 0.1009,0.0811 0.1616,0.0811 0.1496,0 0.3133,-0.1108 0.4897,-0.3323 0.2356,-0.2949 0.3534,-0.5976 0.3534,-0.9073 0,-0.1172 -0.0225,-0.2018 -0.0684,-0.2548 -0.0452,-0.0522 -0.1072,-0.0783 -0.1863,-0.0783 z" inkscape:connector-curvature="0" style="fill:#1f1a17;fill-rule:nonzero"/>
   <path id="path3908" class="fil1" d="m 77.1991,89.6129 0,0.1785 -1.0012,0 c -0.0014,-0.0445 0.0056,-0.0882 0.0219,-0.1292 0.0254,-0.0684 0.0663,-0.1354 0.122,-0.2017 0.0565,-0.0664 0.1376,-0.1426 0.2435,-0.2294 0.1651,-0.1347 0.2758,-0.242 0.3337,-0.321 0.0578,-0.079 0.0868,-0.1531 0.0868,-0.2236 0,-0.0734 -0.0261,-0.1362 -0.0791,-0.1863 -0.0522,-0.0508 -0.1213,-0.0762 -0.206,-0.0762 -0.0896,0 -0.1608,0.0268 -0.2152,0.0804 -0.0536,0.0537 -0.0804,0.1284 -0.0811,0.2237 l -0.1912,-0.0198 c 0.0127,-0.1425 0.0621,-0.2511 0.1474,-0.3259 0.0854,-0.0748 0.2004,-0.1122 0.3444,-0.1122 0.1453,0 0.2603,0.0402 0.345,0.1206 0.0846,0.0805 0.127,0.1807 0.127,0.2999 0,0.0607 -0.012,0.1199 -0.0367,0.1785 -0.0254,0.0586 -0.0663,0.1206 -0.1235,0.1856 -0.0579,0.0642 -0.1531,0.1531 -0.2872,0.266 -0.1114,0.0938 -0.1834,0.1573 -0.2151,0.1912 -0.0318,0.0331 -0.0579,0.067 -0.0784,0.1009 l 0.743,0 z" inkscape:connector-curvature="0" style="fill:#1f1a17;fill-rule:nonzero"/>
   <path id="path3910" class="fil1" d="m 78.376,89.6129 0,0.1785 -1.0012,0 c -0.0014,-0.0445 0.0056,-0.0882 0.0219,-0.1292 0.0254,-0.0684 0.0663,-0.1354 0.122,-0.2017 0.0565,-0.0664 0.1376,-0.1426 0.2435,-0.2294 0.1651,-0.1347 0.2758,-0.242 0.3337,-0.321 0.0578,-0.079 0.0868,-0.1531 0.0868,-0.2236 0,-0.0734 -0.0261,-0.1362 -0.0791,-0.1863 -0.0522,-0.0508 -0.1213,-0.0762 -0.206,-0.0762 -0.0896,0 -0.1608,0.0268 -0.2152,0.0804 -0.0536,0.0537 -0.0804,0.1284 -0.0811,0.2237 l -0.1912,-0.0198 c 0.0127,-0.1425 0.0621,-0.2511 0.1474,-0.3259 0.0854,-0.0748 0.2004,-0.1122 0.3444,-0.1122 0.1453,0 0.2603,0.0402 0.345,0.1206 0.0846,0.0805 0.127,0.1807 0.127,0.2999 0,0.0607 -0.012,0.1199 -0.0367,0.1785 -0.0254,0.0586 -0.0663,0.1206 -0.1235,0.1856 -0.0579,0.0642 -0.1531,0.1531 -0.2872,0.266 -0.1114,0.0938 -0.1834,0.1573 -0.2151,0.1912 -0.0318,0.0331 -0.0579,0.067 -0.0784,0.1009 l 0.743,0 z" inkscape:connector-curvature="0" style="fill:#1f1a17;fill-rule:nonzero"/>
   <g id="g3912">
    <path class="fil3 str1" d="m 76.0991,91.075 -0.4028,1.4012 -0.0452,0.1884 c -0.0042,0.0176 -0.0064,0.0324 -0.0064,0.0451 0,0.0219 0.0071,0.0417 0.0205,0.0579 0.0113,0.0127 0.0247,0.0183 0.0416,0.0183 0.0177,0 0.041,-0.0105 0.0699,-0.0324 0.0543,-0.0402 0.1256,-0.1228 0.2152,-0.2484 l 0.0705,0.0494 c -0.0952,0.1433 -0.1933,0.2526 -0.2935,0.3281 -0.1009,0.0748 -0.194,0.1122 -0.2794,0.1122 -0.0592,0 -0.1037,-0.0148 -0.1333,-0.0445 -0.0297,-0.0296 -0.0445,-0.0726 -0.0445,-0.1291 0,-0.067 0.0156,-0.1559 0.0459,-0.2667 L 75.4006,92.4 c -0.1806,0.2357 -0.3464,0.4001 -0.4981,0.4939 -0.1086,0.067 -0.2159,0.1009 -0.3203,0.1009 -0.1009,0 -0.1877,-0.0416 -0.2604,-0.1249 -0.0733,-0.0832 -0.1093,-0.1983 -0.1093,-0.3443 0,-0.2187 0.0656,-0.4501 0.1968,-0.6936 0.132,-0.2427 0.2992,-0.4374 0.5017,-0.5834 0.158,-0.1158 0.3076,-0.1736 0.4487,-0.1736 0.084,0 0.1538,0.0219 0.2096,0.0656 0.0557,0.0445 0.098,0.1171 0.127,0.2194 l 0.0747,-0.2356 0.3281,-0.0494 z m -0.7359,0.1072 c -0.0882,0 -0.1813,0.0417 -0.2808,0.1242 -0.1404,0.1171 -0.2653,0.2907 -0.3753,0.5207 -0.1094,0.23 -0.1644,0.4381 -0.1644,0.6244 0,0.0939 0.024,0.1679 0.0705,0.2223 0.0466,0.0543 0.1009,0.0811 0.1616,0.0811 0.1496,0 0.3133,-0.1108 0.4897,-0.3323 0.2356,-0.2949 0.3534,-0.5976 0.3534,-0.9073 0,-0.1172 -0.0225,-0.2018 -0.0684,-0.2548 -0.0452,-0.0522 -0.1072,-0.0783 -0.1863,-0.0783 z" id="path3914" inkscape:connector-curvature="0" style="fill:none;fill-rule:nonzero;stroke:#ffffff;stroke-width:0.40000001"/>
   </g>
   <g id="g3916">
    <path id="path3918" class="fil3 str1" d="m 76.3186,93.3913 0.1863,-0.0247 c 0.0211,0.1051 0.0571,0.1813 0.1086,0.2279 0.0515,0.0466 0.1143,0.0699 0.1877,0.0699 0.0875,0 0.1616,-0.0304 0.2215,-0.0911 0.0607,-0.0606 0.0903,-0.1354 0.0903,-0.225 0,-0.0861 -0.0275,-0.156 -0.0832,-0.2117 -0.0557,-0.0557 -0.127,-0.0833 -0.2131,-0.0833 -0.0353,0 -0.079,0.0071 -0.1312,0.0205 l 0.0204,-0.163 c 0.0127,0.0014 0.0226,0.0021 0.0304,0.0021 0.079,0 0.1503,-0.0204 0.2138,-0.062 0.0635,-0.0417 0.0952,-0.1052 0.0952,-0.1912 0,-0.0685 -0.0233,-0.1249 -0.0691,-0.1694 -0.0466,-0.0451 -0.1059,-0.067 -0.1792,-0.067 -0.072,0 -0.1327,0.0226 -0.1807,0.0677 -0.0486,0.0459 -0.079,0.1136 -0.0931,0.2046 l -0.1863,-0.0331 c 0.0233,-0.1242 0.0748,-0.2209 0.1553,-0.29 0.0804,-0.0684 0.1806,-0.1023 0.3005,-0.1023 0.0833,0 0.1588,0.0176 0.2286,0.0529 0.0699,0.0353 0.1228,0.084 0.1595,0.1453 0.0374,0.0614 0.0557,0.1263 0.0557,0.1955 0,0.0656 -0.0176,0.1249 -0.0529,0.1785 -0.0353,0.0536 -0.0868,0.0967 -0.1559,0.1284 0.0896,0.0205 0.1587,0.0635 0.2088,0.1284 0.0494,0.0656 0.0741,0.1468 0.0741,0.2448 0,0.132 -0.048,0.2442 -0.1446,0.3366 -0.0967,0.0917 -0.2181,0.1376 -0.3655,0.1376 -0.1334,0 -0.2434,-0.0395 -0.3316,-0.1186 -0.0875,-0.0797 -0.1376,-0.182 -0.1503,-0.3083 z" inkscape:connector-curvature="0" style="fill:none;fill-rule:nonzero;stroke:#ffffff;stroke-width:0.40000001"/>
   </g>
   <g id="g3920">
    <path id="path3922" class="fil3 str1" d="m 78.472,93.6129 0,0.1785 -1.0012,0 c -0.0014,-0.0445 0.0056,-0.0882 0.0219,-0.1292 0.0254,-0.0684 0.0663,-0.1354 0.122,-0.2017 0.0565,-0.0664 0.1376,-0.1426 0.2435,-0.2294 0.1651,-0.1347 0.2758,-0.242 0.3337,-0.321 0.0578,-0.079 0.0868,-0.1531 0.0868,-0.2236 0,-0.0734 -0.0261,-0.1362 -0.0791,-0.1863 -0.0522,-0.0508 -0.1213,-0.0762 -0.206,-0.0762 -0.0896,0 -0.1608,0.0268 -0.2152,0.0804 -0.0536,0.0537 -0.0804,0.1284 -0.0811,0.2237 l -0.1912,-0.0198 c 0.0127,-0.1425 0.0621,-0.2511 0.1474,-0.3259 0.0854,-0.0748 0.2004,-0.1122 0.3444,-0.1122 0.1453,0 0.2603,0.0402 0.345,0.1206 0.0846,0.0805 0.127,0.1807 0.127,0.2999 0,0.0607 -0.012,0.1199 -0.0367,0.1785 -0.0254,0.0586 -0.0663,0.1206 -0.1235,0.1856 -0.0579,0.0642 -0.1531,0.1531 -0.2872,0.266 -0.1114,0.0938 -0.1834,0.1573 -0.2151,0.1912 -0.0318,0.0331 -0.0579,0.067 -0.0784,0.1009 l 0.743,0 z" inkscape:connector-curvature="0" style="fill:none;fill-rule:nonzero;stroke:#ffffff;stroke-width:0.40000001"/>
   </g>
   <path id="path3924" class="fil1" d="m 76.0991,91.075 -0.4028,1.4012 -0.0452,0.1884 c -0.0042,0.0176 -0.0064,0.0324 -0.0064,0.0451 0,0.0219 0.0071,0.0417 0.0205,0.0579 0.0113,0.0127 0.0247,0.0183 0.0416,0.0183 0.0177,0 0.041,-0.0105 0.0699,-0.0324 0.0543,-0.0402 0.1256,-0.1228 0.2152,-0.2484 l 0.0705,0.0494 c -0.0952,0.1433 -0.1933,0.2526 -0.2935,0.3281 -0.1009,0.0748 -0.194,0.1122 -0.2794,0.1122 -0.0592,0 -0.1037,-0.0148 -0.1333,-0.0445 -0.0297,-0.0296 -0.0445,-0.0726 -0.0445,-0.1291 0,-0.067 0.0156,-0.1559 0.0459,-0.2667 L 75.4006,92.4 c -0.1806,0.2357 -0.3464,0.4001 -0.4981,0.4939 -0.1086,0.067 -0.2159,0.1009 -0.3203,0.1009 -0.1009,0 -0.1877,-0.0416 -0.2604,-0.1249 -0.0733,-0.0832 -0.1093,-0.1983 -0.1093,-0.3443 0,-0.2187 0.0656,-0.4501 0.1968,-0.6936 0.132,-0.2427 0.2992,-0.4374 0.5017,-0.5834 0.158,-0.1158 0.3076,-0.1736 0.4487,-0.1736 0.084,0 0.1538,0.0219 0.2096,0.0656 0.0557,0.0445 0.098,0.1171 0.127,0.2194 l 0.0747,-0.2356 0.3281,-0.0494 z m -0.7359,0.1072 c -0.0882,0 -0.1813,0.0417 -0.2808,0.1242 -0.1404,0.1171 -0.2653,0.2907 -0.3753,0.5207 -0.1094,0.23 -0.1644,0.4381 -0.1644,0.6244 0,0.0939 0.024,0.1679 0.0705,0.2223 0.0466,0.0543 0.1009,0.0811 0.1616,0.0811 0.1496,0 0.3133,-0.1108 0.4897,-0.3323 0.2356,-0.2949 0.3534,-0.5976 0.3534,-0.9073 0,-0.1172 -0.0225,-0.2018 -0.0684,-0.2548 -0.0452,-0.0522 -0.1072,-0.0783 -0.1863,-0.0783 z" inkscape:connector-curvature="0" style="fill:#1f1a17;fill-rule:nonzero"/>
   <path id="path3926" class="fil1" d="m 76.3186,93.3913 0.1863,-0.0247 c 0.0211,0.1051 0.0571,0.1813 0.1086,0.2279 0.0515,0.0466 0.1143,0.0699 0.1877,0.0699 0.0875,0 0.1616,-0.0304 0.2215,-0.0911 0.0607,-0.0606 0.0903,-0.1354 0.0903,-0.225 0,-0.0861 -0.0275,-0.156 -0.0832,-0.2117 -0.0557,-0.0557 -0.127,-0.0833 -0.2131,-0.0833 -0.0353,0 -0.079,0.0071 -0.1312,0.0205 l 0.0204,-0.163 c 0.0127,0.0014 0.0226,0.0021 0.0304,0.0021 0.079,0 0.1503,-0.0204 0.2138,-0.062 0.0635,-0.0417 0.0952,-0.1052 0.0952,-0.1912 0,-0.0685 -0.0233,-0.1249 -0.0691,-0.1694 -0.0466,-0.0451 -0.1059,-0.067 -0.1792,-0.067 -0.072,0 -0.1327,0.0226 -0.1807,0.0677 -0.0486,0.0459 -0.079,0.1136 -0.0931,0.2046 l -0.1863,-0.0331 c 0.0233,-0.1242 0.0748,-0.2209 0.1553,-0.29 0.0804,-0.0684 0.1806,-0.1023 0.3005,-0.1023 0.0833,0 0.1588,0.0176 0.2286,0.0529 0.0699,0.0353 0.1228,0.084 0.1595,0.1453 0.0374,0.0614 0.0557,0.1263 0.0557,0.1955 0,0.0656 -0.0176,0.1249 -0.0529,0.1785 -0.0353,0.0536 -0.0868,0.0967 -0.1559,0.1284 0.0896,0.0205 0.1587,0.0635 0.2088,0.1284 0.0494,0.0656 0.0741,0.1468 0.0741,0.2448 0,0.132 -0.048,0.2442 -0.1446,0.3366 -0.0967,0.0917 -0.2181,0.1376 -0.3655,0.1376 -0.1334,0 -0.2434,-0.0395 -0.3316,-0.1186 -0.0875,-0.0797 -0.1376,-0.182 -0.1503,-0.3083 z" inkscape:connector-curvature="0" style="fill:#1f1a17;fill-rule:nonzero"/>
   <path id="path3928" class="fil1" d="m 78.472,93.6129 0,0.1785 -1.0012,0 c -0.0014,-0.0445 0.0056,-0.0882 0.0219,-0.1292 0.0254,-0.0684 0.0663,-0.1354 0.122,-0.2017 0.0565,-0.0664 0.1376,-0.1426 0.2435,-0.2294 0.1651,-0.1347 0.2758,-0.242 0.3337,-0.321 0.0578,-0.079 0.0868,-0.1531 0.0868,-0.2236 0,-0.0734 -0.0261,-0.1362 -0.0791,-0.1863 -0.0522,-0.0508 -0.1213,-0.0762 -0.206,-0.0762 -0.0896,0 -0.1608,0.0268 -0.2152,0.0804 -0.0536,0.0537 -0.0804,0.1284 -0.0811,0.2237 l -0.1912,-0.0198 c 0.0127,-0.1425 0.0621,-0.2511 0.1474,-0.3259 0.0854,-0.0748 0.2004,-0.1122 0.3444,-0.1122 0.1453,0 0.2603,0.0402 0.345,0.1206 0.0846,0.0805 0.127,0.1807 0.127,0.2999 0,0.0607 -0.012,0.1199 -0.0367,0.1785 -0.0254,0.0586 -0.0663,0.1206 -0.1235,0.1856 -0.0579,0.0642 -0.1531,0.1531 -0.2872,0.266 -0.1114,0.0938 -0.1834,0.1573 -0.2151,0.1912 -0.0318,0.0331 -0.0579,0.067 -0.0784,0.1009 l 0.743,0 z" inkscape:connector-curvature="0" style="fill:#1f1a17;fill-rule:nonzero"/>
   <g id="g3930">
    <path class="fil3 str1" d="m 82.0031,83.2046 -0.4028,1.4012 -0.0452,0.1884 c -0.0042,0.0176 -0.0064,0.0324 -0.0064,0.0451 0,0.0219 0.0071,0.0417 0.0205,0.0579 0.0113,0.0127 0.0247,0.0183 0.0416,0.0183 0.0177,0 0.041,-0.0105 0.0699,-0.0324 0.0543,-0.0402 0.1256,-0.1228 0.2152,-0.2484 l 0.0705,0.0494 c -0.0952,0.1433 -0.1933,0.2526 -0.2935,0.3281 -0.1009,0.0748 -0.194,0.1122 -0.2794,0.1122 -0.0592,0 -0.1037,-0.0148 -0.1333,-0.0445 -0.0297,-0.0296 -0.0445,-0.0726 -0.0445,-0.1291 0,-0.067 0.0156,-0.1559 0.0459,-0.2667 l 0.043,-0.1545 c -0.1806,0.2357 -0.3464,0.4001 -0.4981,0.4939 -0.1086,0.067 -0.2159,0.1009 -0.3203,0.1009 -0.1009,0 -0.1877,-0.0416 -0.2604,-0.1249 -0.0733,-0.0832 -0.1093,-0.1983 -0.1093,-0.3443 0,-0.2187 0.0656,-0.4501 0.1968,-0.6936 0.132,-0.2427 0.2992,-0.4374 0.5017,-0.5834 0.158,-0.1158 0.3076,-0.1736 0.4487,-0.1736 0.084,0 0.1538,0.0219 0.2096,0.0656 0.0557,0.0445 0.098,0.1171 0.127,0.2194 l 0.0747,-0.2356 0.3281,-0.0494 z m -0.7359,0.1072 c -0.0882,0 -0.1813,0.0417 -0.2808,0.1242 -0.1404,0.1171 -0.2653,0.2907 -0.3753,0.5207 -0.1094,0.23 -0.1644,0.4381 -0.1644,0.6244 0,0.0939 0.024,0.1679 0.0705,0.2223 0.0466,0.0543 0.1009,0.0811 0.1616,0.0811 0.1496,0 0.3133,-0.1108 0.4897,-0.3323 0.2356,-0.2949 0.3534,-0.5976 0.3534,-0.9073 0,-0.1172 -0.0225,-0.2018 -0.0684,-0.2548 -0.0452,-0.0522 -0.1072,-0.0783 -0.1863,-0.0783 z" id="path3932" inkscape:connector-curvature="0" style="fill:none;fill-rule:nonzero;stroke:#ffffff;stroke-width:0.40000001"/>
   </g>
   <g id="g3934">
    <path id="path3936" class="fil3 str1" d="m 82.9225,85.921 -0.1863,0 0,-1.1854 c -0.0444,0.0424 -0.1037,0.0854 -0.1763,0.1277 -0.0727,0.0431 -0.1376,0.0748 -0.1955,0.0967 l 0,-0.1799 c 0.1037,-0.0494 0.1947,-0.1087 0.2724,-0.1778 0.0783,-0.0699 0.1333,-0.1369 0.1658,-0.2025 l 0.1199,0 0,1.5212 z" inkscape:connector-curvature="0" style="fill:none;fill-rule:nonzero;stroke:#ffffff;stroke-width:0.40000001"/>
   </g>
   <g id="g3938">
    <path id="path3940" class="fil3 str1" d="m 83.3995,85.5209 0.1863,-0.0247 c 0.0211,0.1051 0.0571,0.1813 0.1086,0.2279 0.0515,0.0466 0.1143,0.0699 0.1877,0.0699 0.0875,0 0.1616,-0.0304 0.2215,-0.0911 0.0607,-0.0606 0.0903,-0.1354 0.0903,-0.225 0,-0.0861 -0.0275,-0.156 -0.0832,-0.2117 -0.0557,-0.0557 -0.127,-0.0833 -0.2131,-0.0833 -0.0353,0 -0.079,0.0071 -0.1312,0.0205 l 0.0204,-0.163 c 0.0127,0.0014 0.0226,0.0021 0.0304,0.0021 0.079,0 0.1503,-0.0204 0.2138,-0.062 0.0635,-0.0417 0.0952,-0.1052 0.0952,-0.1912 0,-0.0685 -0.0233,-0.1249 -0.0691,-0.1694 -0.0466,-0.0451 -0.1059,-0.067 -0.1792,-0.067 -0.072,0 -0.1327,0.0226 -0.1807,0.0677 -0.0486,0.0459 -0.079,0.1136 -0.0931,0.2046 l -0.1863,-0.0331 c 0.0233,-0.1242 0.0748,-0.2209 0.1553,-0.29 0.0804,-0.0684 0.1806,-0.1023 0.3005,-0.1023 0.0833,0 0.1588,0.0176 0.2286,0.0529 0.0699,0.0353 0.1228,0.084 0.1595,0.1453 0.0374,0.0614 0.0557,0.1263 0.0557,0.1955 0,0.0656 -0.0176,0.1249 -0.0529,0.1785 -0.0353,0.0536 -0.0868,0.0967 -0.1559,0.1284 0.0896,0.0205 0.1587,0.0635 0.2088,0.1284 0.0494,0.0656 0.0741,0.1468 0.0741,0.2448 0,0.132 -0.048,0.2442 -0.1446,0.3366 -0.0967,0.0917 -0.2181,0.1376 -0.3655,0.1376 -0.1334,0 -0.2434,-0.0395 -0.3316,-0.1186 -0.0875,-0.0797 -0.1376,-0.182 -0.1503,-0.3083 z" inkscape:connector-curvature="0" style="fill:none;fill-rule:nonzero;stroke:#ffffff;stroke-width:0.40000001"/>
   </g>
   <path id="path3942" class="fil1" d="m 82.0031,83.2046 -0.4028,1.4012 -0.0452,0.1884 c -0.0042,0.0176 -0.0064,0.0324 -0.0064,0.0451 0,0.0219 0.0071,0.0417 0.0205,0.0579 0.0113,0.0127 0.0247,0.0183 0.0416,0.0183 0.0177,0 0.041,-0.0105 0.0699,-0.0324 0.0543,-0.0402 0.1256,-0.1228 0.2152,-0.2484 l 0.0705,0.0494 c -0.0952,0.1433 -0.1933,0.2526 -0.2935,0.3281 -0.1009,0.0748 -0.194,0.1122 -0.2794,0.1122 -0.0592,0 -0.1037,-0.0148 -0.1333,-0.0445 -0.0297,-0.0296 -0.0445,-0.0726 -0.0445,-0.1291 0,-0.067 0.0156,-0.1559 0.0459,-0.2667 l 0.043,-0.1545 c -0.1806,0.2357 -0.3464,0.4001 -0.4981,0.4939 -0.1086,0.067 -0.2159,0.1009 -0.3203,0.1009 -0.1009,0 -0.1877,-0.0416 -0.2604,-0.1249 -0.0733,-0.0832 -0.1093,-0.1983 -0.1093,-0.3443 0,-0.2187 0.0656,-0.4501 0.1968,-0.6936 0.132,-0.2427 0.2992,-0.4374 0.5017,-0.5834 0.158,-0.1158 0.3076,-0.1736 0.4487,-0.1736 0.084,0 0.1538,0.0219 0.2096,0.0656 0.0557,0.0445 0.098,0.1171 0.127,0.2194 l 0.0747,-0.2356 0.3281,-0.0494 z m -0.7359,0.1072 c -0.0882,0 -0.1813,0.0417 -0.2808,0.1242 -0.1404,0.1171 -0.2653,0.2907 -0.3753,0.5207 -0.1094,0.23 -0.1644,0.4381 -0.1644,0.6244 0,0.0939 0.024,0.1679 0.0705,0.2223 0.0466,0.0543 0.1009,0.0811 0.1616,0.0811 0.1496,0 0.3133,-0.1108 0.4897,-0.3323 0.2356,-0.2949 0.3534,-0.5976 0.3534,-0.9073 0,-0.1172 -0.0225,-0.2018 -0.0684,-0.2548 -0.0452,-0.0522 -0.1072,-0.0783 -0.1863,-0.0783 z" inkscape:connector-curvature="0" style="fill:#1f1a17;fill-rule:nonzero"/>
   <path id="path3944" class="fil1" d="m 82.9225,85.921 -0.1863,0 0,-1.1854 c -0.0444,0.0424 -0.1037,0.0854 -0.1763,0.1277 -0.0727,0.0431 -0.1376,0.0748 -0.1955,0.0967 l 0,-0.1799 c 0.1037,-0.0494 0.1947,-0.1087 0.2724,-0.1778 0.0783,-0.0699 0.1333,-0.1369 0.1658,-0.2025 l 0.1199,0 0,1.5212 z" inkscape:connector-curvature="0" style="fill:#1f1a17;fill-rule:nonzero"/>
   <path id="path3946" class="fil1" d="m 83.3995,85.5209 0.1863,-0.0247 c 0.0211,0.1051 0.0571,0.1813 0.1086,0.2279 0.0515,0.0466 0.1143,0.0699 0.1877,0.0699 0.0875,0 0.1616,-0.0304 0.2215,-0.0911 0.0607,-0.0606 0.0903,-0.1354 0.0903,-0.225 0,-0.0861 -0.0275,-0.156 -0.0832,-0.2117 -0.0557,-0.0557 -0.127,-0.0833 -0.2131,-0.0833 -0.0353,0 -0.079,0.0071 -0.1312,0.0205 l 0.0204,-0.163 c 0.0127,0.0014 0.0226,0.0021 0.0304,0.0021 0.079,0 0.1503,-0.0204 0.2138,-0.062 0.0635,-0.0417 0.0952,-0.1052 0.0952,-0.1912 0,-0.0685 -0.0233,-0.1249 -0.0691,-0.1694 -0.0466,-0.0451 -0.1059,-0.067 -0.1792,-0.067 -0.072,0 -0.1327,0.0226 -0.1807,0.0677 -0.0486,0.0459 -0.079,0.1136 -0.0931,0.2046 l -0.1863,-0.0331 c 0.0233,-0.1242 0.0748,-0.2209 0.1553,-0.29 0.0804,-0.0684 0.1806,-0.1023 0.3005,-0.1023 0.0833,0 0.1588,0.0176 0.2286,0.0529 0.0699,0.0353 0.1228,0.084 0.1595,0.1453 0.0374,0.0614 0.0557,0.1263 0.0557,0.1955 0,0.0656 -0.0176,0.1249 -0.0529,0.1785 -0.0353,0.0536 -0.0868,0.0967 -0.1559,0.1284 0.0896,0.0205 0.1587,0.0635 0.2088,0.1284 0.0494,0.0656 0.0741,0.1468 0.0741,0.2448 0,0.132 -0.048,0.2442 -0.1446,0.3366 -0.0967,0.0917 -0.2181,0.1376 -0.3655,0.1376 -0.1334,0 -0.2434,-0.0395 -0.3316,-0.1186 -0.0875,-0.0797 -0.1376,-0.182 -0.1503,-0.3083 z" inkscape:connector-curvature="0" style="fill:#1f1a17;fill-rule:nonzero"/>
   <g id="g3948">
    <path class="fil3 str1" d="m 82.0031,87.075 -0.4028,1.4012 -0.0452,0.1884 c -0.0042,0.0176 -0.0064,0.0324 -0.0064,0.0451 0,0.0219 0.0071,0.0417 0.0205,0.0579 0.0113,0.0127 0.0247,0.0183 0.0416,0.0183 0.0177,0 0.041,-0.0105 0.0699,-0.0324 0.0543,-0.0402 0.1256,-0.1228 0.2152,-0.2484 l 0.0705,0.0494 c -0.0952,0.1433 -0.1933,0.2526 -0.2935,0.3281 -0.1009,0.0748 -0.194,0.1122 -0.2794,0.1122 -0.0592,0 -0.1037,-0.0148 -0.1333,-0.0445 -0.0297,-0.0296 -0.0445,-0.0726 -0.0445,-0.1291 0,-0.067 0.0156,-0.1559 0.0459,-0.2667 L 81.3046,88.4 c -0.1806,0.2357 -0.3464,0.4001 -0.4981,0.4939 -0.1086,0.067 -0.2159,0.1009 -0.3203,0.1009 -0.1009,0 -0.1877,-0.0416 -0.2604,-0.1249 -0.0733,-0.0832 -0.1093,-0.1983 -0.1093,-0.3443 0,-0.2187 0.0656,-0.4501 0.1968,-0.6936 0.132,-0.2427 0.2992,-0.4374 0.5017,-0.5834 0.158,-0.1158 0.3076,-0.1736 0.4487,-0.1736 0.084,0 0.1538,0.0219 0.2096,0.0656 0.0557,0.0445 0.098,0.1171 0.127,0.2194 l 0.0747,-0.2356 0.3281,-0.0494 z m -0.7359,0.1072 c -0.0882,0 -0.1813,0.0417 -0.2808,0.1242 -0.1404,0.1171 -0.2653,0.2907 -0.3753,0.5207 -0.1094,0.23 -0.1644,0.4381 -0.1644,0.6244 0,0.0939 0.024,0.1679 0.0705,0.2223 0.0466,0.0543 0.1009,0.0811 0.1616,0.0811 0.1496,0 0.3133,-0.1108 0.4897,-0.3323 0.2356,-0.2949 0.3534,-0.5976 0.3534,-0.9073 0,-0.1172 -0.0225,-0.2018 -0.0684,-0.2548 -0.0452,-0.0522 -0.1072,-0.0783 -0.1863,-0.0783 z" id="path3950" inkscape:connector-curvature="0" style="fill:none;fill-rule:nonzero;stroke:#ffffff;stroke-width:0.40000001"/>
   </g>
   <g id="g3952">
    <path id="path3954" class="fil3 str1" d="m 83.1991,89.6129 0,0.1785 -1.0012,0 c -0.0014,-0.0445 0.0056,-0.0882 0.0219,-0.1292 0.0254,-0.0684 0.0663,-0.1354 0.122,-0.2017 0.0565,-0.0664 0.1376,-0.1426 0.2435,-0.2294 0.1651,-0.1347 0.2758,-0.242 0.3337,-0.321 0.0578,-0.079 0.0868,-0.1531 0.0868,-0.2236 0,-0.0734 -0.0261,-0.1362 -0.0791,-0.1863 -0.0522,-0.0508 -0.1213,-0.0762 -0.206,-0.0762 -0.0896,0 -0.1608,0.0268 -0.2152,0.0804 -0.0536,0.0537 -0.0804,0.1284 -0.0811,0.2237 l -0.1912,-0.0198 c 0.0127,-0.1425 0.0621,-0.2511 0.1474,-0.3259 0.0854,-0.0748 0.2004,-0.1122 0.3444,-0.1122 0.1453,0 0.2603,0.0402 0.345,0.1206 0.0846,0.0805 0.127,0.1807 0.127,0.2999 0,0.0607 -0.012,0.1199 -0.0367,0.1785 -0.0254,0.0586 -0.0663,0.1206 -0.1235,0.1856 -0.0579,0.0642 -0.1531,0.1531 -0.2872,0.266 -0.1114,0.0938 -0.1834,0.1573 -0.2151,0.1912 -0.0318,0.0331 -0.0579,0.067 -0.0784,0.1009 l 0.743,0 z" inkscape:connector-curvature="0" style="fill:none;fill-rule:nonzero;stroke:#ffffff;stroke-width:0.40000001"/>
   </g>
   <g id="g3956">
    <path id="path3958" class="fil3 str1" d="m 83.3995,89.3913 0.1863,-0.0247 c 0.0211,0.1051 0.0571,0.1813 0.1086,0.2279 0.0515,0.0466 0.1143,0.0699 0.1877,0.0699 0.0875,0 0.1616,-0.0304 0.2215,-0.0911 0.0607,-0.0606 0.0903,-0.1354 0.0903,-0.225 0,-0.0861 -0.0275,-0.156 -0.0832,-0.2117 -0.0557,-0.0557 -0.127,-0.0833 -0.2131,-0.0833 -0.0353,0 -0.079,0.0071 -0.1312,0.0205 l 0.0204,-0.163 c 0.0127,0.0014 0.0226,0.0021 0.0304,0.0021 0.079,0 0.1503,-0.0204 0.2138,-0.062 0.0635,-0.0417 0.0952,-0.1052 0.0952,-0.1912 0,-0.0685 -0.0233,-0.1249 -0.0691,-0.1694 -0.0466,-0.0451 -0.1059,-0.067 -0.1792,-0.067 -0.072,0 -0.1327,0.0226 -0.1807,0.0677 -0.0486,0.0459 -0.079,0.1136 -0.0931,0.2046 l -0.1863,-0.0331 c 0.0233,-0.1242 0.0748,-0.2209 0.1553,-0.29 0.0804,-0.0684 0.1806,-0.1023 0.3005,-0.1023 0.0833,0 0.1588,0.0176 0.2286,0.0529 0.0699,0.0353 0.1228,0.084 0.1595,0.1453 0.0374,0.0614 0.0557,0.1263 0.0557,0.1955 0,0.0656 -0.0176,0.1249 -0.0529,0.1785 -0.0353,0.0536 -0.0868,0.0967 -0.1559,0.1284 0.0896,0.0205 0.1587,0.0635 0.2088,0.1284 0.0494,0.0656 0.0741,0.1468 0.0741,0.2448 0,0.132 -0.048,0.2442 -0.1446,0.3366 -0.0967,0.0917 -0.2181,0.1376 -0.3655,0.1376 -0.1334,0 -0.2434,-0.0395 -0.3316,-0.1186 -0.0875,-0.0797 -0.1376,-0.182 -0.1503,-0.3083 z" inkscape:connector-curvature="0" style="fill:none;fill-rule:nonzero;stroke:#ffffff;stroke-width:0.40000001"/>
   </g>
   <path id="path3960" class="fil1" d="m 82.0031,87.075 -0.4028,1.4012 -0.0452,0.1884 c -0.0042,0.0176 -0.0064,0.0324 -0.0064,0.0451 0,0.0219 0.0071,0.0417 0.0205,0.0579 0.0113,0.0127 0.0247,0.0183 0.0416,0.0183 0.0177,0 0.041,-0.0105 0.0699,-0.0324 0.0543,-0.0402 0.1256,-0.1228 0.2152,-0.2484 l 0.0705,0.0494 c -0.0952,0.1433 -0.1933,0.2526 -0.2935,0.3281 -0.1009,0.0748 -0.194,0.1122 -0.2794,0.1122 -0.0592,0 -0.1037,-0.0148 -0.1333,-0.0445 -0.0297,-0.0296 -0.0445,-0.0726 -0.0445,-0.1291 0,-0.067 0.0156,-0.1559 0.0459,-0.2667 L 81.3046,88.4 c -0.1806,0.2357 -0.3464,0.4001 -0.4981,0.4939 -0.1086,0.067 -0.2159,0.1009 -0.3203,0.1009 -0.1009,0 -0.1877,-0.0416 -0.2604,-0.1249 -0.0733,-0.0832 -0.1093,-0.1983 -0.1093,-0.3443 0,-0.2187 0.0656,-0.4501 0.1968,-0.6936 0.132,-0.2427 0.2992,-0.4374 0.5017,-0.5834 0.158,-0.1158 0.3076,-0.1736 0.4487,-0.1736 0.084,0 0.1538,0.0219 0.2096,0.0656 0.0557,0.0445 0.098,0.1171 0.127,0.2194 l 0.0747,-0.2356 0.3281,-0.0494 z m -0.7359,0.1072 c -0.0882,0 -0.1813,0.0417 -0.2808,0.1242 -0.1404,0.1171 -0.2653,0.2907 -0.3753,0.5207 -0.1094,0.23 -0.1644,0.4381 -0.1644,0.6244 0,0.0939 0.024,0.1679 0.0705,0.2223 0.0466,0.0543 0.1009,0.0811 0.1616,0.0811 0.1496,0 0.3133,-0.1108 0.4897,-0.3323 0.2356,-0.2949 0.3534,-0.5976 0.3534,-0.9073 0,-0.1172 -0.0225,-0.2018 -0.0684,-0.2548 -0.0452,-0.0522 -0.1072,-0.0783 -0.1863,-0.0783 z" inkscape:connector-curvature="0" style="fill:#1f1a17;fill-rule:nonzero"/>
   <path id="path3962" class="fil1" d="m 83.1991,89.6129 0,0.1785 -1.0012,0 c -0.0014,-0.0445 0.0056,-0.0882 0.0219,-0.1292 0.0254,-0.0684 0.0663,-0.1354 0.122,-0.2017 0.0565,-0.0664 0.1376,-0.1426 0.2435,-0.2294 0.1651,-0.1347 0.2758,-0.242 0.3337,-0.321 0.0578,-0.079 0.0868,-0.1531 0.0868,-0.2236 0,-0.0734 -0.0261,-0.1362 -0.0791,-0.1863 -0.0522,-0.0508 -0.1213,-0.0762 -0.206,-0.0762 -0.0896,0 -0.1608,0.0268 -0.2152,0.0804 -0.0536,0.0537 -0.0804,0.1284 -0.0811,0.2237 l -0.1912,-0.0198 c 0.0127,-0.1425 0.0621,-0.2511 0.1474,-0.3259 0.0854,-0.0748 0.2004,-0.1122 0.3444,-0.1122 0.1453,0 0.2603,0.0402 0.345,0.1206 0.0846,0.0805 0.127,0.1807 0.127,0.2999 0,0.0607 -0.012,0.1199 -0.0367,0.1785 -0.0254,0.0586 -0.0663,0.1206 -0.1235,0.1856 -0.0579,0.0642 -0.1531,0.1531 -0.2872,0.266 -0.1114,0.0938 -0.1834,0.1573 -0.2151,0.1912 -0.0318,0.0331 -0.0579,0.067 -0.0784,0.1009 l 0.743,0 z" inkscape:connector-curvature="0" style="fill:#1f1a17;fill-rule:nonzero"/>
   <path id="path3964" class="fil1" d="m 83.3995,89.3913 0.1863,-0.0247 c 0.0211,0.1051 0.0571,0.1813 0.1086,0.2279 0.0515,0.0466 0.1143,0.0699 0.1877,0.0699 0.0875,0 0.1616,-0.0304 0.2215,-0.0911 0.0607,-0.0606 0.0903,-0.1354 0.0903,-0.225 0,-0.0861 -0.0275,-0.156 -0.0832,-0.2117 -0.0557,-0.0557 -0.127,-0.0833 -0.2131,-0.0833 -0.0353,0 -0.079,0.0071 -0.1312,0.0205 l 0.0204,-0.163 c 0.0127,0.0014 0.0226,0.0021 0.0304,0.0021 0.079,0 0.1503,-0.0204 0.2138,-0.062 0.0635,-0.0417 0.0952,-0.1052 0.0952,-0.1912 0,-0.0685 -0.0233,-0.1249 -0.0691,-0.1694 -0.0466,-0.0451 -0.1059,-0.067 -0.1792,-0.067 -0.072,0 -0.1327,0.0226 -0.1807,0.0677 -0.0486,0.0459 -0.079,0.1136 -0.0931,0.2046 l -0.1863,-0.0331 c 0.0233,-0.1242 0.0748,-0.2209 0.1553,-0.29 0.0804,-0.0684 0.1806,-0.1023 0.3005,-0.1023 0.0833,0 0.1588,0.0176 0.2286,0.0529 0.0699,0.0353 0.1228,0.084 0.1595,0.1453 0.0374,0.0614 0.0557,0.1263 0.0557,0.1955 0,0.0656 -0.0176,0.1249 -0.0529,0.1785 -0.0353,0.0536 -0.0868,0.0967 -0.1559,0.1284 0.0896,0.0205 0.1587,0.0635 0.2088,0.1284 0.0494,0.0656 0.0741,0.1468 0.0741,0.2448 0,0.132 -0.048,0.2442 -0.1446,0.3366 -0.0967,0.0917 -0.2181,0.1376 -0.3655,0.1376 -0.1334,0 -0.2434,-0.0395 -0.3316,-0.1186 -0.0875,-0.0797 -0.1376,-0.182 -0.1503,-0.3083 z" inkscape:connector-curvature="0" style="fill:#1f1a17;fill-rule:nonzero"/>
   <g id="g3966">
    <path class="fil3 str1" d="m 82.0991,91.075 -0.4028,1.4012 -0.0452,0.1884 c -0.0042,0.0176 -0.0064,0.0324 -0.0064,0.0451 0,0.0219 0.0071,0.0417 0.0205,0.0579 0.0113,0.0127 0.0247,0.0183 0.0416,0.0183 0.0177,0 0.041,-0.0105 0.0699,-0.0324 0.0543,-0.0402 0.1256,-0.1228 0.2152,-0.2484 l 0.0705,0.0494 c -0.0952,0.1433 -0.1933,0.2526 -0.2935,0.3281 -0.1009,0.0748 -0.194,0.1122 -0.2794,0.1122 -0.0592,0 -0.1037,-0.0148 -0.1333,-0.0445 -0.0297,-0.0296 -0.0445,-0.0726 -0.0445,-0.1291 0,-0.067 0.0156,-0.1559 0.0459,-0.2667 L 81.4006,92.4 c -0.1806,0.2357 -0.3464,0.4001 -0.4981,0.4939 -0.1086,0.067 -0.2159,0.1009 -0.3203,0.1009 -0.1009,0 -0.1877,-0.0416 -0.2604,-0.1249 -0.0733,-0.0832 -0.1093,-0.1983 -0.1093,-0.3443 0,-0.2187 0.0656,-0.4501 0.1968,-0.6936 0.132,-0.2427 0.2992,-0.4374 0.5017,-0.5834 0.158,-0.1158 0.3076,-0.1736 0.4487,-0.1736 0.084,0 0.1538,0.0219 0.2096,0.0656 0.0557,0.0445 0.098,0.1171 0.127,0.2194 l 0.0747,-0.2356 0.3281,-0.0494 z m -0.7359,0.1072 c -0.0882,0 -0.1813,0.0417 -0.2808,0.1242 -0.1404,0.1171 -0.2653,0.2907 -0.3753,0.5207 -0.1094,0.23 -0.1644,0.4381 -0.1644,0.6244 0,0.0939 0.024,0.1679 0.0705,0.2223 0.0466,0.0543 0.1009,0.0811 0.1616,0.0811 0.1496,0 0.3133,-0.1108 0.4897,-0.3323 0.2356,-0.2949 0.3534,-0.5976 0.3534,-0.9073 0,-0.1172 -0.0225,-0.2018 -0.0684,-0.2548 -0.0452,-0.0522 -0.1072,-0.0783 -0.1863,-0.0783 z" id="path3968" inkscape:connector-curvature="0" style="fill:none;fill-rule:nonzero;stroke:#ffffff;stroke-width:0.40000001"/>
   </g>
   <g id="g3970">
    <path id="path3972" class="fil3 str1" d="m 82.3186,93.3913 0.1863,-0.0247 c 0.0211,0.1051 0.0571,0.1813 0.1086,0.2279 0.0515,0.0466 0.1143,0.0699 0.1877,0.0699 0.0875,0 0.1616,-0.0304 0.2215,-0.0911 0.0607,-0.0606 0.0903,-0.1354 0.0903,-0.225 0,-0.0861 -0.0275,-0.156 -0.0832,-0.2117 -0.0557,-0.0557 -0.127,-0.0833 -0.2131,-0.0833 -0.0353,0 -0.079,0.0071 -0.1312,0.0205 l 0.0204,-0.163 c 0.0127,0.0014 0.0226,0.0021 0.0304,0.0021 0.079,0 0.1503,-0.0204 0.2138,-0.062 0.0635,-0.0417 0.0952,-0.1052 0.0952,-0.1912 0,-0.0685 -0.0233,-0.1249 -0.0691,-0.1694 -0.0466,-0.0451 -0.1059,-0.067 -0.1792,-0.067 -0.072,0 -0.1327,0.0226 -0.1807,0.0677 -0.0486,0.0459 -0.079,0.1136 -0.0931,0.2046 l -0.1863,-0.0331 c 0.0233,-0.1242 0.0748,-0.2209 0.1553,-0.29 0.0804,-0.0684 0.1806,-0.1023 0.3005,-0.1023 0.0833,0 0.1588,0.0176 0.2286,0.0529 0.0699,0.0353 0.1228,0.084 0.1595,0.1453 0.0374,0.0614 0.0557,0.1263 0.0557,0.1955 0,0.0656 -0.0176,0.1249 -0.0529,0.1785 -0.0353,0.0536 -0.0868,0.0967 -0.1559,0.1284 0.0896,0.0205 0.1587,0.0635 0.2088,0.1284 0.0494,0.0656 0.0741,0.1468 0.0741,0.2448 0,0.132 -0.048,0.2442 -0.1446,0.3366 -0.0967,0.0917 -0.2181,0.1376 -0.3655,0.1376 -0.1334,0 -0.2434,-0.0395 -0.3316,-0.1186 -0.0875,-0.0797 -0.1376,-0.182 -0.1503,-0.3083 z" inkscape:connector-curvature="0" style="fill:none;fill-rule:nonzero;stroke:#ffffff;stroke-width:0.40000001"/>
   </g>
   <g id="g3974">
    <path id="path3976" class="fil3 str1" d="m 83.4955,93.3913 0.1863,-0.0247 c 0.0211,0.1051 0.0571,0.1813 0.1086,0.2279 0.0515,0.0466 0.1143,0.0699 0.1877,0.0699 0.0875,0 0.1616,-0.0304 0.2215,-0.0911 0.0607,-0.0606 0.0903,-0.1354 0.0903,-0.225 0,-0.0861 -0.0275,-0.156 -0.0832,-0.2117 -0.0557,-0.0557 -0.127,-0.0833 -0.2131,-0.0833 -0.0353,0 -0.079,0.0071 -0.1312,0.0205 l 0.0204,-0.163 c 0.0127,0.0014 0.0226,0.0021 0.0304,0.0021 0.079,0 0.1503,-0.0204 0.2138,-0.062 0.0635,-0.0417 0.0952,-0.1052 0.0952,-0.1912 0,-0.0685 -0.0233,-0.1249 -0.0691,-0.1694 -0.0466,-0.0451 -0.1059,-0.067 -0.1792,-0.067 -0.072,0 -0.1327,0.0226 -0.1807,0.0677 -0.0486,0.0459 -0.079,0.1136 -0.0931,0.2046 l -0.1863,-0.0331 c 0.0233,-0.1242 0.0748,-0.2209 0.1553,-0.29 0.0804,-0.0684 0.1806,-0.1023 0.3005,-0.1023 0.0833,0 0.1588,0.0176 0.2286,0.0529 0.0699,0.0353 0.1228,0.084 0.1595,0.1453 0.0374,0.0614 0.0557,0.1263 0.0557,0.1955 0,0.0656 -0.0176,0.1249 -0.0529,0.1785 -0.0353,0.0536 -0.0868,0.0967 -0.1559,0.1284 0.0896,0.0205 0.1587,0.0635 0.2088,0.1284 0.0494,0.0656 0.0741,0.1468 0.0741,0.2448 0,0.132 -0.048,0.2442 -0.1446,0.3366 -0.0967,0.0917 -0.2181,0.1376 -0.3655,0.1376 -0.1334,0 -0.2434,-0.0395 -0.3316,-0.1186 -0.0875,-0.0797 -0.1376,-0.182 -0.1503,-0.3083 z" inkscape:connector-curvature="0" style="fill:none;fill-rule:nonzero;stroke:#ffffff;stroke-width:0.40000001"/>
   </g>
   <path id="path3978" class="fil1" d="m 82.0991,91.075 -0.4028,1.4012 -0.0452,0.1884 c -0.0042,0.0176 -0.0064,0.0324 -0.0064,0.0451 0,0.0219 0.0071,0.0417 0.0205,0.0579 0.0113,0.0127 0.0247,0.0183 0.0416,0.0183 0.0177,0 0.041,-0.0105 0.0699,-0.0324 0.0543,-0.0402 0.1256,-0.1228 0.2152,-0.2484 l 0.0705,0.0494 c -0.0952,0.1433 -0.1933,0.2526 -0.2935,0.3281 -0.1009,0.0748 -0.194,0.1122 -0.2794,0.1122 -0.0592,0 -0.1037,-0.0148 -0.1333,-0.0445 -0.0297,-0.0296 -0.0445,-0.0726 -0.0445,-0.1291 0,-0.067 0.0156,-0.1559 0.0459,-0.2667 L 81.4006,92.4 c -0.1806,0.2357 -0.3464,0.4001 -0.4981,0.4939 -0.1086,0.067 -0.2159,0.1009 -0.3203,0.1009 -0.1009,0 -0.1877,-0.0416 -0.2604,-0.1249 -0.0733,-0.0832 -0.1093,-0.1983 -0.1093,-0.3443 0,-0.2187 0.0656,-0.4501 0.1968,-0.6936 0.132,-0.2427 0.2992,-0.4374 0.5017,-0.5834 0.158,-0.1158 0.3076,-0.1736 0.4487,-0.1736 0.084,0 0.1538,0.0219 0.2096,0.0656 0.0557,0.0445 0.098,0.1171 0.127,0.2194 l 0.0747,-0.2356 0.3281,-0.0494 z m -0.7359,0.1072 c -0.0882,0 -0.1813,0.0417 -0.2808,0.1242 -0.1404,0.1171 -0.2653,0.2907 -0.3753,0.5207 -0.1094,0.23 -0.1644,0.4381 -0.1644,0.6244 0,0.0939 0.024,0.1679 0.0705,0.2223 0.0466,0.0543 0.1009,0.0811 0.1616,0.0811 0.1496,0 0.3133,-0.1108 0.4897,-0.3323 0.2356,-0.2949 0.3534,-0.5976 0.3534,-0.9073 0,-0.1172 -0.0225,-0.2018 -0.0684,-0.2548 -0.0452,-0.0522 -0.1072,-0.0783 -0.1863,-0.0783 z" inkscape:connector-curvature="0" style="fill:#1f1a17;fill-rule:nonzero"/>
   <path id="path3980" class="fil1" d="m 82.3186,93.3913 0.1863,-0.0247 c 0.0211,0.1051 0.0571,0.1813 0.1086,0.2279 0.0515,0.0466 0.1143,0.0699 0.1877,0.0699 0.0875,0 0.1616,-0.0304 0.2215,-0.0911 0.0607,-0.0606 0.0903,-0.1354 0.0903,-0.225 0,-0.0861 -0.0275,-0.156 -0.0832,-0.2117 -0.0557,-0.0557 -0.127,-0.0833 -0.2131,-0.0833 -0.0353,0 -0.079,0.0071 -0.1312,0.0205 l 0.0204,-0.163 c 0.0127,0.0014 0.0226,0.0021 0.0304,0.0021 0.079,0 0.1503,-0.0204 0.2138,-0.062 0.0635,-0.0417 0.0952,-0.1052 0.0952,-0.1912 0,-0.0685 -0.0233,-0.1249 -0.0691,-0.1694 -0.0466,-0.0451 -0.1059,-0.067 -0.1792,-0.067 -0.072,0 -0.1327,0.0226 -0.1807,0.0677 -0.0486,0.0459 -0.079,0.1136 -0.0931,0.2046 l -0.1863,-0.0331 c 0.0233,-0.1242 0.0748,-0.2209 0.1553,-0.29 0.0804,-0.0684 0.1806,-0.1023 0.3005,-0.1023 0.0833,0 0.1588,0.0176 0.2286,0.0529 0.0699,0.0353 0.1228,0.084 0.1595,0.1453 0.0374,0.0614 0.0557,0.1263 0.0557,0.1955 0,0.0656 -0.0176,0.1249 -0.0529,0.1785 -0.0353,0.0536 -0.0868,0.0967 -0.1559,0.1284 0.0896,0.0205 0.1587,0.0635 0.2088,0.1284 0.0494,0.0656 0.0741,0.1468 0.0741,0.2448 0,0.132 -0.048,0.2442 -0.1446,0.3366 -0.0967,0.0917 -0.2181,0.1376 -0.3655,0.1376 -0.1334,0 -0.2434,-0.0395 -0.3316,-0.1186 -0.0875,-0.0797 -0.1376,-0.182 -0.1503,-0.3083 z" inkscape:connector-curvature="0" style="fill:#1f1a17;fill-rule:nonzero"/>
   <path id="path3982" class="fil1" d="m 83.4955,93.3913 0.1863,-0.0247 c 0.0211,0.1051 0.0571,0.1813 0.1086,0.2279 0.0515,0.0466 0.1143,0.0699 0.1877,0.0699 0.0875,0 0.1616,-0.0304 0.2215,-0.0911 0.0607,-0.0606 0.0903,-0.1354 0.0903,-0.225 0,-0.0861 -0.0275,-0.156 -0.0832,-0.2117 -0.0557,-0.0557 -0.127,-0.0833 -0.2131,-0.0833 -0.0353,0 -0.079,0.0071 -0.1312,0.0205 l 0.0204,-0.163 c 0.0127,0.0014 0.0226,0.0021 0.0304,0.0021 0.079,0 0.1503,-0.0204 0.2138,-0.062 0.0635,-0.0417 0.0952,-0.1052 0.0952,-0.1912 0,-0.0685 -0.0233,-0.1249 -0.0691,-0.1694 -0.0466,-0.0451 -0.1059,-0.067 -0.1792,-0.067 -0.072,0 -0.1327,0.0226 -0.1807,0.0677 -0.0486,0.0459 -0.079,0.1136 -0.0931,0.2046 l -0.1863,-0.0331 c 0.0233,-0.1242 0.0748,-0.2209 0.1553,-0.29 0.0804,-0.0684 0.1806,-0.1023 0.3005,-0.1023 0.0833,0 0.1588,0.0176 0.2286,0.0529 0.0699,0.0353 0.1228,0.084 0.1595,0.1453 0.0374,0.0614 0.0557,0.1263 0.0557,0.1955 0,0.0656 -0.0176,0.1249 -0.0529,0.1785 -0.0353,0.0536 -0.0868,0.0967 -0.1559,0.1284 0.0896,0.0205 0.1587,0.0635 0.2088,0.1284 0.0494,0.0656 0.0741,0.1468 0.0741,0.2448 0,0.132 -0.048,0.2442 -0.1446,0.3366 -0.0967,0.0917 -0.2181,0.1376 -0.3655,0.1376 -0.1334,0 -0.2434,-0.0395 -0.3316,-0.1186 -0.0875,-0.0797 -0.1376,-0.182 -0.1503,-0.3083 z" inkscape:connector-curvature="0" style="fill:#1f1a17;fill-rule:nonzero"/>
  </g>
  <rect class="fil2 str0" x="73.722" y="82.448997" width="4.8340001" height="3.6849999" id="rect3984" style="fill:none;stroke:#ff0000;stroke-width:0.2;stroke-dasharray:1, 0.2"/>
  <path class="fil2 str0" d="m 78.958,91.96 -2.934,0 0,2.253 2.934,0 0,-2.253 z m -1.467,0 0,2.253" id="path3986" inkscape:connector-curvature="0" style="fill:none;stroke:#ff0000;stroke-width:0.2;stroke-dasharray:1, 0.2"/>
 </g>
</svg>