<?xml version="1.0" encoding="UTF-8" standalone="no"?>
<!DOCTYPE svg PUBLIC "-//W3C//DTD SVG 1.1//EN" "http://www.w3.org/Graphics/SVG/1.1/DTD/svg11.dtd">
<svg width="100%" height="100%" viewBox="0 0 438 313" version="1.1" xmlns="http://www.w3.org/2000/svg" xmlns:xlink="http://www.w3.org/1999/xlink" xml:space="preserve" xmlns:serif="http://www.serif.com/" style="fill-rule:evenodd;clip-rule:evenodd;stroke-linejoin:round;stroke-miterlimit:2;">
    <g transform="matrix(1,0,0,1,-85.0402,-12.4996)">
        <path d="M145.219,324C145.219,324.32 144.957,324.582 144.637,324.582C144.316,324.582 144.055,324.32 144.055,324L144.055,28.414C144.055,28.094 144.316,27.832 144.637,27.832C144.957,27.832 145.219,28.094 145.219,28.414L145.219,324ZM140.109,28.414L144.637,18L149.164,28.414L140.109,28.414ZM90.637,270.582C90.316,270.582 90.055,270.32 90.055,270C90.055,269.68 90.316,269.418 90.637,269.418L512.227,269.418C512.547,269.418 512.805,269.68 512.805,270C512.805,270.32 512.547,270.582 512.227,270.582L90.637,270.582ZM512.227,265.473L522.637,270L512.227,274.527L512.227,265.473ZM520.629,289.23C520.363,289.047 520.297,288.688 520.477,288.422C520.66,288.156 521.023,288.09 521.285,288.273C521.336,288.309 520.996,288.262 521.051,288.242L521.039,288.238L521.371,287.984L521.563,287.902C521.613,287.887 521.672,287.848 521.867,287.895C521.98,287.918 522.188,288.023 522.273,288.238C522.363,288.445 522.309,288.613 522.27,288.699C522.125,289.031 521.906,289.227 521.719,289.449C521.246,290.004 520.504,290.586 519.691,291.258L518.02,292.539C517.102,293.27 516.488,293.926 516.094,294.461C515.73,294.957 515.57,295.336 515.527,295.523C515.449,295.832 515.133,296.023 514.82,295.945C514.512,295.867 514.32,295.551 514.398,295.238C514.492,294.859 514.723,294.367 515.156,293.773C515.621,293.145 516.309,292.414 517.297,291.629L518.953,290.363C519.766,289.688 520.488,289.098 520.832,288.695L521.207,288.234C521.223,288.191 521.152,288.473 521.16,288.402C521.168,288.324 521.238,288.777 521.199,288.676C521.16,288.578 521.457,288.977 521.383,288.922C521.313,288.867 521.629,289.035 521.574,289.02C521.477,288.988 521.816,289.035 521.773,289.039C521.703,289.043 521.914,289.008 521.895,289.016C521.836,289.035 521.938,288.996 521.926,289.004L521.875,289.047C521.773,289.152 521.633,289.273 521.418,289.348C521.191,289.422 520.863,289.395 520.629,289.23M517.195,289.875C517.258,290.188 517.059,290.496 516.742,290.563C516.43,290.625 516.121,290.426 516.055,290.109L515.969,289.406C515.969,289.195 515.965,288.922 516.262,288.684C516.523,288.477 516.816,288.551 516.949,288.609C517.305,288.758 517.469,288.988 517.672,289.223L518.414,290.113L519.148,291.316C519.883,292.527 520.711,293.762 521.41,294.371C521.652,294.582 521.68,294.949 521.469,295.191C521.258,295.434 520.891,295.457 520.648,295.246C519.742,294.457 518.91,293.168 518.152,291.922L517.469,290.797L516.793,289.984L516.504,289.691L516.496,289.68C516.473,289.668 516.73,289.711 516.648,289.711C516.605,289.707 516.867,289.672 516.805,289.688C516.746,289.707 517.039,289.555 516.984,289.598C516.934,289.637 517.117,289.434 517.094,289.473C517.059,289.531 517.133,289.375 517.133,289.379L517.195,289.875ZM118.602,14.582C118.324,14.422 118.227,14.066 118.383,13.789C118.543,13.512 118.898,13.414 119.176,13.57C119.227,13.598 118.828,13.504 118.938,13.508C119.039,13.508 118.574,13.633 118.652,13.582C118.719,13.543 118.488,13.738 118.52,13.703C118.563,13.648 118.453,13.813 118.461,13.801L118.512,13.594C118.586,13.344 118.809,13.18 118.977,13.125C119.426,12.969 119.77,13.121 120.113,13.324C121.473,14.133 122.367,16.242 123.102,17.84L123.758,19.289L123.746,19.266C123.758,19.281 123.57,19.098 123.645,19.156C123.73,19.227 122.621,19.406 122.906,19.168C123.137,18.969 122.699,19.625 122.703,19.566L122.707,19.652L122.387,18.566C122.293,18.258 122.465,17.934 122.77,17.84C123.078,17.746 123.402,17.918 123.496,18.227L123.809,19.273L123.859,19.516C123.867,19.57 124.063,19.645 123.695,20.016C123.473,20.242 123.063,20.164 122.949,20.09C122.648,19.883 122.746,19.859 122.719,19.805L121.426,17.039C120.801,15.816 120.031,14.629 119.52,14.324L119.285,14.238C119.273,14.238 119.414,14.203 119.348,14.223C119.313,14.234 119.547,14.09 119.492,14.137C119.434,14.191 119.656,13.832 119.629,13.918L119.543,14.219C119.512,14.301 119.473,14.426 119.293,14.555C119.094,14.695 118.758,14.672 118.602,14.582M125.449,13.059C125.461,12.738 125.734,12.488 126.055,12.5C126.375,12.516 126.625,12.785 126.609,13.105C126.586,13.715 126.773,14.445 126.438,15.523C126.105,16.594 125.387,17.934 124.508,19.457L121.559,24.332L118.898,28.656L117.898,30.34C117.836,30.422 117.871,30.664 117.336,30.652C117.102,30.648 116.879,30.457 116.813,30.324C116.629,29.965 116.742,29.898 116.762,29.746L116.867,29.16C116.93,28.848 117.234,28.641 117.551,28.707C117.863,28.77 118.07,29.074 118.008,29.391L117.902,30L117.898,29.941L117.875,29.852C117.887,29.895 117.738,29.641 117.785,29.699C117.836,29.762 117.465,29.492 117.563,29.531C117.66,29.574 117.203,29.504 117.285,29.492C117.359,29.484 117.066,29.563 117.109,29.543C117.184,29.508 116.965,29.645 116.984,29.629L117.02,29.563L117.902,28.055L120.566,23.727L123.5,18.875C124.363,17.379 125.055,16.066 125.328,15.18C125.586,14.352 125.414,13.871 125.449,13.059M329.082,81.297C328.957,81.594 328.617,81.734 328.32,81.609C328.023,81.488 327.887,81.148 328.008,80.852C328.227,80.332 328.664,79.391 328.785,78.32C328.863,77.637 328.855,76.953 328.613,76.566C328.457,76.313 328.176,76.141 327.945,76.129C327.891,76.129 327.797,76.152 327.641,76.32C327.059,76.945 326.477,78.773 326.141,81.156C325.695,84.336 325.352,88.379 325.188,91.758C325.109,93.379 325.078,94.766 325.121,95.711L325.211,96.555L325.191,96.52L325.141,96.457L325.047,96.379C325.121,96.426 324.633,96.305 324.746,96.301C324.828,96.297 324.488,96.379 324.539,96.352C324.613,96.316 324.391,96.473 324.41,96.449L324.391,96.473C324.555,96.199 324.914,96.113 325.188,96.281C325.461,96.449 325.547,96.805 325.383,97.082L325.172,97.32C325.059,97.41 324.844,97.496 324.625,97.445C324.219,97.352 324.16,97.078 324.109,96.93C323.93,96.398 323.934,95.633 323.941,94.547C323.961,90.945 324.387,85.297 324.992,80.992C325.223,79.328 325.555,77.902 326.012,76.824C326.441,75.797 327.059,74.922 328.004,74.969C328.672,75.004 329.258,75.398 329.602,75.949C330.102,76.754 330.027,77.691 329.941,78.449C329.797,79.746 329.281,80.82 329.082,81.297M320.82,89.926C320.574,90.129 320.207,90.09 320.004,89.844C319.801,89.594 319.836,89.23 320.082,89.023C320.457,88.719 320.895,88.652 321.461,88.551C323.297,88.219 326.039,88.105 327.996,88.184C328.316,88.199 328.566,88.469 328.555,88.789C328.543,89.109 328.27,89.359 327.949,89.348C325.418,89.246 321.188,89.621 320.82,89.926M334.848,77.445C335.07,77.676 335.066,78.043 334.836,78.27C334.609,78.492 334.238,78.488 334.016,78.258L334.098,78.285C334.016,78.27 334.379,78.223 334.332,78.25L334.355,78.234C334.18,78.469 333.898,79.617 333.699,80.949C333.406,82.902 333.297,84.953 333.621,86.52C333.922,87.984 334.539,88.805 335.648,88.75C335.969,88.734 336.242,88.98 336.258,89.301C336.273,89.625 336.027,89.895 335.703,89.91C334.816,89.957 334.02,89.605 333.492,89.016C331.902,87.23 332.09,83.832 332.547,80.777C332.703,79.754 332.863,78.84 333.113,78.156C333.234,77.824 333.355,77.523 333.668,77.297C334,77.055 334.582,77.176 334.848,77.445M342.578,81.27C342.879,81.16 343.215,81.316 343.324,81.617C343.434,81.918 343.281,82.254 342.977,82.363C342.906,82.391 343.078,82.309 343.074,82.313C342.816,82.516 341.637,84.301 340.594,86.008L339.262,88.25L338.906,88.902L338.871,88.973C338.867,88.988 338.898,88.793 338.891,88.863C338.887,88.926 338.633,88.266 338.785,88.473C339.043,88.828 337.922,88.379 338.004,88.328C338.07,88.285 337.906,88.41 337.914,88.402C338.137,88.168 338.504,88.156 338.738,88.379C338.969,88.598 338.98,88.965 338.758,89.199L338.66,89.289C338.594,89.336 338.402,89.531 338.027,89.32C337.656,89.113 337.727,88.824 337.734,88.742C337.781,88.355 337.867,88.371 337.98,88.168L340.25,84.352L341.535,82.395L342.039,81.723C342.188,81.547 342.246,81.395 342.578,81.27M338.555,82.852C338.867,82.777 339.18,82.969 339.258,83.281C339.332,83.594 339.141,83.906 338.828,83.984L338.688,84.031L338.773,83.797C338.828,83.984 339.961,84.973 341.184,85.898C342.422,86.832 343.734,87.641 344.047,88.789C344.133,89.098 343.949,89.418 343.641,89.504C343.332,89.59 343.012,89.406 342.926,89.098C342.801,88.637 341.152,87.344 339.684,86.219C338.965,85.668 338.32,85.168 337.922,84.625C337.727,84.359 337.531,84.02 337.648,83.594C337.766,83.16 338.176,82.945 338.555,82.852M345.348,79.785C345.375,80.105 345.137,80.387 344.816,80.414C344.496,80.441 344.215,80.203 344.188,79.883C344.164,79.578 344.168,79.293 344.348,79.012C344.488,78.793 344.793,78.637 345.043,78.645C345.73,78.664 346.07,79.168 346.445,79.719C347.406,81.117 347.641,83.273 347.738,85.219L347.762,87.703L347.719,88.477L347.695,88.715L347.672,88.828L347.625,88.957C347.582,89.039 347.371,89.398 346.922,89.25C346.617,89.152 346.449,88.824 346.551,88.516C346.648,88.211 346.977,88.047 347.281,88.145C347.73,88.293 346.547,88.508 346.59,88.43C346.637,88.34 346.934,82.488 345.488,80.375C345.23,80 344.973,79.805 344.953,79.801C344.93,79.793 345.207,79.766 345.121,79.793C345.055,79.813 345.332,79.637 345.293,79.684L345.344,79.605L345.348,79.785ZM349.984,84.918C349.664,84.938 349.387,84.695 349.367,84.375C349.344,84.055 349.586,83.777 349.906,83.758C350.961,83.691 354.281,82.84 356.035,83.238C356.348,83.313 356.543,83.625 356.469,83.938C356.398,84.25 356.086,84.445 355.773,84.375C355.313,84.266 354.094,84.367 352.879,84.523L349.984,84.918ZM351.813,86.254C351.496,86.309 351.195,86.094 351.145,85.777C351.09,85.461 351.305,85.16 351.621,85.105C352.316,84.988 353.188,85.012 354.266,85.094L358.258,85.531C358.574,85.574 358.801,85.863 358.762,86.184C358.719,86.5 358.43,86.727 358.109,86.688L354.176,86.254C353.141,86.172 352.332,86.164 351.813,86.254M370.004,76.516C370.27,76.691 370.344,77.051 370.168,77.32C369.992,77.59 369.633,77.664 369.363,77.488C369.172,77.359 369.059,77.094 369.059,76.906C369.066,76.355 369.363,76.164 369.664,75.816L370.828,74.574C371.563,73.816 372.379,72.906 373.043,71.98C373.418,71.465 373.703,70.91 373.961,70.445L374.324,69.797C374.379,69.711 374.402,69.621 374.602,69.496C374.719,69.418 375.012,69.344 375.246,69.48C375.461,69.609 375.504,69.766 375.527,69.855C375.727,70.547 375.469,71.262 375.363,72.082C375.23,73.133 375.07,74.172 375.074,74.992C375.078,75.758 375.242,76.137 375.438,76.219C375.734,76.34 375.875,76.68 375.754,76.977C375.629,77.273 375.289,77.414 374.992,77.293C374.121,76.934 373.914,75.93 373.91,74.996C373.906,74.039 374.082,72.973 374.211,71.934L374.41,70.18C374.406,70.156 374.488,70.34 374.457,70.289C374.43,70.238 374.719,70.527 374.629,70.469C374.543,70.41 375.051,70.555 374.945,70.559C374.848,70.559 375.227,70.48 375.172,70.504C375.125,70.527 375.293,70.426 375.27,70.441L375.324,70.391L374.98,71.008C374.73,71.457 374.422,72.059 373.988,72.66C373.273,73.656 372.426,74.598 371.664,75.383L370.438,76.703L370.207,77.023L370.219,76.953C370.215,77.004 370.152,76.652 370.188,76.742C370.227,76.832 369.93,76.465 370.004,76.516M367.941,80.469C368.195,80.273 368.563,80.324 368.758,80.578C368.949,80.836 368.902,81.199 368.645,81.395L368.598,81.434L368.633,81.387L368.672,81.297C368.66,81.34 368.699,81.066 368.699,81.133C368.699,81.199 368.625,80.852 368.652,80.922C368.684,80.988 368.5,80.719 368.539,80.758C368.578,80.797 368.402,80.66 368.434,80.68C368.488,80.711 368.313,80.633 368.328,80.637L371.363,80.086C372.863,79.77 374.328,79.422 375.305,79.508C375.621,79.535 375.859,79.82 375.832,80.141C375.801,80.457 375.52,80.695 375.199,80.664C374.469,80.602 372.5,81.039 370.766,81.402L368.637,81.785C368.379,81.809 368.184,81.938 367.793,81.645C367.555,81.469 367.527,80.973 367.633,80.793L367.941,80.469ZM372.387,84.59C372.23,84.867 371.875,84.969 371.598,84.809C371.316,84.652 371.219,84.297 371.375,84.02C371.891,83.105 373.09,82.887 374.184,82.672C374.641,82.582 375.086,82.527 375.5,82.551C375.82,82.57 376.215,82.496 376.629,82.813C377.184,83.234 377.043,83.898 376.863,84.41C376.684,84.93 376.375,85.469 375.996,85.965C374.949,87.34 373.238,88.41 372.336,89.348L371.84,89.891L371.883,89.93C371.988,90.027 373.309,90.105 374.746,89.906C376.219,89.699 377.699,89.379 378.715,89.355C379.039,89.348 379.305,89.602 379.313,89.926C379.32,90.246 379.066,90.512 378.742,90.52C377.93,90.539 376.418,90.848 374.906,91.055C374.156,91.16 373.426,91.242 372.773,91.238C372.141,91.234 371.551,91.199 371.102,90.789C370.754,90.477 370.551,89.922 370.777,89.414C370.957,89.016 371.246,88.801 371.5,88.539C372.551,87.445 374.211,86.391 375.07,85.262C375.383,84.848 375.641,84.391 375.766,84.027L375.848,83.652L375.852,83.645L375.926,83.738L375.867,83.738L375.438,83.711L374.41,83.813C373.441,84.004 372.438,84.504 372.387,84.59M391.309,83.051C391.273,83.371 390.988,83.602 390.668,83.566C390.348,83.535 390.117,83.246 390.152,82.93L390.16,82.82C390.152,82.797 390.273,82.98 390.234,82.934C390.191,82.891 390.441,83.059 390.387,83.035C390.336,83.02 390.539,83.059 390.512,83.059L390.523,83.063C390.168,83.211 389.199,84.117 388.172,85.195L385.402,88.07L384.188,89.402L384.148,89.453L384.16,89.43L384.184,89.367C384.176,89.398 384.207,89.18 384.203,89.238C384.203,89.301 384.117,88.906 384.16,89C384.199,89.094 383.867,88.695 383.957,88.754C384.035,88.809 383.668,88.652 383.73,88.664C383.789,88.672 383.563,88.66 383.594,88.656C383.656,88.652 383.465,88.688 383.484,88.68L383.523,88.652L383.785,88.473C384.047,88.285 384.41,88.344 384.598,88.602C384.785,88.863 384.727,89.227 384.465,89.414C384.199,89.605 384.121,89.742 383.758,89.809C383.668,89.824 383.492,89.855 383.285,89.703C383.078,89.551 383.031,89.289 383.043,89.16C383.078,88.789 383.191,88.785 383.273,88.68L384.559,87.27L387.328,84.395C388.164,83.52 388.922,82.746 389.578,82.281C389.895,82.055 390.18,81.816 390.668,81.91C390.93,81.965 391.176,82.203 391.254,82.43C391.332,82.645 391.328,82.844 391.309,83.051M384.734,83.371C385.051,83.336 385.34,83.566 385.375,83.887C385.41,84.203 385.18,84.492 384.863,84.527L384.887,84.516C384.852,84.531 385.09,84.316 385.039,84.391C384.988,84.461 385.121,84.098 385.121,84.164C385.117,84.223 385.105,84.047 385.109,84.059C385.18,84.273 386.98,85.789 388.836,87.063C390.676,88.328 392.441,89.43 392.621,89.52C392.91,89.66 393.027,90.008 392.887,90.297C392.746,90.586 392.395,90.703 392.109,90.563L390.469,89.543C389.098,88.66 387.328,87.48 385.918,86.387C385.238,85.863 384.68,85.391 384.313,84.945C384.137,84.73 383.957,84.523 383.957,84.145C383.957,83.941 384.07,83.691 384.246,83.555C384.41,83.426 384.582,83.391 384.734,83.371M398.906,81.391C399.008,81.086 399.336,80.918 399.641,81.02C399.945,81.121 400.109,81.449 400.012,81.754C399.84,82.266 399.766,83.98 399.828,85.656C399.863,86.531 399.969,87.363 400.129,87.98L400.32,88.52L400.418,88.684L400.367,88.641C400.418,88.676 400.008,88.574 400.117,88.57C400.199,88.57 399.863,88.648 399.914,88.625L399.848,88.668L399.906,88.566C400.051,88.281 400.402,88.172 400.688,88.316C400.973,88.465 401.086,88.816 400.938,89.102L400.625,89.531C400.395,89.742 399.84,89.723 399.633,89.539C399.445,89.375 399.379,89.223 399.305,89.082L399.004,88.27C398.816,87.539 398.703,86.645 398.668,85.703C398.602,83.965 398.602,82.309 398.906,81.391M396.762,85.102C397.082,85.078 397.355,85.324 397.375,85.645C397.398,85.965 397.152,86.238 396.832,86.262L396.754,86.266L396.789,86.262C396.777,86.262 396.926,86.223 396.871,86.238C396.809,86.262 396.789,84.797 397.168,85.363C397.438,85.758 396.746,85.109 396.781,85.113C396.84,85.125 396.703,85.109 396.711,85.109L397.875,85.066C399.785,84.992 402.383,84.941 403.289,84.824C403.605,84.781 403.898,85.008 403.941,85.324C403.98,85.645 403.758,85.938 403.438,85.977C402.355,86.117 399.82,86.156 397.918,86.227L396.906,86.266L396.684,86.27L396.602,86.262C396.566,86.258 396.488,86.445 396.203,86.008C395.816,85.426 396.445,85.156 396.508,85.137C396.738,85.059 396.652,85.105 396.672,85.105L396.762,85.102ZM408.223,87.563C408.516,87.699 408.641,88.047 408.504,88.336C408.371,88.629 408.023,88.754 407.734,88.617C407.441,88.484 407.129,88.16 407.125,87.781C407.113,87.242 407.438,86.961 407.734,86.641L408.793,85.539C409.52,84.75 410.305,83.656 410.984,82.422C411.852,80.84 412.207,78.902 412.332,77.547L412.336,76.656L412.27,76.398L412.293,76.426L412.355,76.484C412.305,76.449 412.688,76.582 412.586,76.574C412.48,76.563 412.945,76.477 412.871,76.516C412.824,76.543 412.996,76.414 412.977,76.438C412.938,76.477 413.02,76.375 413.016,76.383C412.785,76.938 412.969,80.039 413.375,82.762L414.121,87.5C414.262,88.34 414.441,89.016 414.531,89.168C414.539,89.18 414.379,89.066 414.43,89.094C414.48,89.117 414.156,89.035 414.234,89.039C414.305,89.043 413.988,89.094 414.043,89.07L413.934,89.129L413.883,89.184L414.02,88.793C414.102,88.484 414.422,88.297 414.73,88.383C415.039,88.465 415.227,88.781 415.145,89.094C415.043,89.477 414.98,89.766 414.68,90.023C414.422,90.242 413.859,90.152 413.672,89.953C413.188,89.43 413.141,88.684 412.973,87.691L412.227,82.934C411.996,81.406 411.828,79.793 411.77,78.426L411.781,76.711C411.824,76.258 411.738,75.813 412.313,75.496C412.508,75.391 412.813,75.406 412.988,75.512C413.445,75.785 413.438,76.133 413.484,76.5L413.488,77.652C413.355,79.113 412.996,81.176 412.004,82.984C411.281,84.297 410.453,85.453 409.648,86.324L408.379,87.672L408.281,87.813L408.285,87.797C408.277,87.848 408.191,87.531 408.23,87.59C408.266,87.641 408.18,87.543 408.223,87.563M85.887,265.816C85.602,265.961 85.25,265.848 85.105,265.563C84.957,265.277 85.07,264.926 85.359,264.781L444.797,81.035C445.082,80.891 445.434,81.004 445.578,81.289C445.723,81.574 445.609,81.926 445.324,82.07L85.887,265.816ZM180.293,268.082C180.059,268.301 179.691,268.289 179.473,268.055C179.25,267.82 179.266,267.453 179.5,267.234C179.586,267.152 179.738,267.027 179.996,267.043C180.246,267.055 180.438,267.23 180.516,267.355C180.746,267.738 180.66,267.969 180.648,268.293C180.609,269.348 180.375,270.863 180.328,271.691C180.309,272.012 180.035,272.258 179.711,272.238C179.391,272.223 179.148,271.945 179.164,271.625L179.434,268.996L179.488,267.965L179.48,267.871L179.488,267.902C179.48,267.875 179.621,268.086 179.57,268.027C179.531,267.98 179.848,268.199 179.762,268.164C179.695,268.137 180.043,268.203 179.973,268.203C179.871,268.203 180.258,268.117 180.203,268.145C180.156,268.172 180.309,268.07 180.293,268.082M178.746,283.449C178.641,283.754 178.309,283.918 178.008,283.813C177.703,283.707 177.539,283.379 177.645,283.074C177.93,282.246 178.547,281.465 179.152,280.57L180.23,278.871C180.371,278.668 180.438,278.449 180.684,278.203C180.848,278.043 181.168,277.977 181.375,278.051C181.906,278.238 181.934,278.617 181.965,278.973C182.027,279.656 181.82,280.434 181.672,281.176L181.516,282.129L181.512,282.398L181.516,282.434L181.48,282.367C181.672,282.625 181.617,282.988 181.355,283.18C181.098,283.371 180.734,283.316 180.543,283.059C180.277,282.695 180.328,282.359 180.359,282.023C180.449,280.988 180.859,279.645 180.809,279.078L180.801,279.016L180.844,279.066L180.934,279.125C180.871,279.09 181.336,279.152 181.219,279.168C181.102,279.184 181.566,278.965 181.504,279.027L181.191,279.527L180.113,281.223C179.496,282.137 178.934,282.906 178.746,283.449M217.484,268.285C217.316,268.559 216.957,268.641 216.684,268.473C216.41,268.305 216.324,267.949 216.492,267.676C216.602,267.496 216.688,267.289 217.047,267.195C217.219,267.148 217.461,267.195 217.605,267.301C218.074,267.648 217.941,267.945 217.953,268.246C217.988,269.191 217.809,270.512 217.645,271.262C217.578,271.574 217.27,271.773 216.953,271.703C216.641,271.637 216.441,271.328 216.512,271.012C216.617,270.512 216.754,269.527 216.789,268.746L216.77,268.055L216.789,268.098L216.855,268.188C216.824,268.152 217.055,268.313 216.996,268.285C216.941,268.258 217.234,268.34 217.172,268.332C217.066,268.324 217.484,268.258 217.43,268.289L217.508,268.238L217.484,268.285ZM215.098,279.203C215.371,279.371 215.457,279.73 215.289,280.004C215.121,280.277 214.766,280.363 214.488,280.195C214.367,280.121 214.207,279.969 214.164,279.738C214.09,279.336 214.336,279.137 214.465,279.035C214.824,278.746 215.293,278.605 215.781,278.445L216.813,278.16L217.207,278.098C217.379,278.082 217.684,278.094 217.91,278.34C218.18,278.633 218.148,278.941 218.117,279.176L217.941,279.82C217.605,280.688 216.793,281.285 216.258,281.832L215.734,282.414L215.707,282.477C215.707,282.492 215.594,282.316 215.645,282.359L215.559,282.309C215.59,282.32 216.117,282.25 216.754,282.059C217.41,281.859 218.109,281.609 218.727,281.492C219.039,281.434 219.344,281.645 219.402,281.961C219.461,282.277 219.254,282.578 218.938,282.637C218.43,282.73 217.68,282.996 216.953,283.211L215.918,283.449C215.59,283.492 215.219,283.539 214.871,283.23C214.453,282.859 214.48,282.262 214.723,281.84C214.914,281.508 215.176,281.277 215.426,281.02C216.012,280.418 216.703,279.793 216.859,279.398L216.965,279.023L216.973,278.969L216.988,279.023C216.973,278.992 217.094,279.168 217.055,279.129C216.992,279.059 217.316,279.262 217.262,279.25C217.199,279.234 217.316,279.254 217.262,279.262L216.984,279.309L216.141,279.551L215.281,279.887L215.195,279.941L215.207,279.93C215.191,279.945 215.293,279.785 215.266,279.836C215.246,279.879 215.32,279.602 215.313,279.672C215.305,279.777 215.184,279.262 215.238,279.348C215.289,279.43 215.063,279.184 215.098,279.203M252.516,267.75C252.738,267.52 253.109,267.512 253.34,267.734C253.57,267.961 253.574,268.328 253.352,268.559C253.301,268.609 253.461,268.398 253.441,268.43C253.414,268.488 253.488,268.309 253.484,268.324C253.43,268.547 253.699,271.156 253.23,272.73C253.137,273.039 252.813,273.215 252.504,273.121C252.199,273.027 252.023,272.703 252.113,272.398C252.281,271.844 252.32,270.84 252.32,269.918L252.313,268.715L252.324,268.293C252.328,268.172 252.172,268.105 252.516,267.75M251.289,278.832C251.285,279.152 251.02,279.41 250.699,279.406C250.379,279.398 250.121,279.137 250.129,278.816C250.137,278.273 250.477,277.844 250.848,277.574C251.219,277.313 251.652,277.152 252.074,277.055C252.707,276.91 253.539,276.715 254.102,277.355C254.473,277.773 254.457,278.27 254.391,278.676C254.25,279.602 253.41,279.969 253.125,280.273L253.051,280.387L253.051,280.352C253.055,280.383 252.973,280.195 253.004,280.238C253.039,280.293 252.871,280.125 252.895,280.137L252.91,280.133L253.754,280.203C254.301,280.285 254.898,280.594 255.098,281.211C255.242,281.652 255.168,282.094 254.988,282.484C254.5,283.543 253.16,283.859 251.926,283.953C251.313,284 250.707,283.969 250.176,283.82C249.648,283.672 249.102,283.363 248.949,282.77C248.867,282.457 249.055,282.141 249.363,282.059C249.676,281.977 249.992,282.164 250.074,282.477C250.074,282.488 250.172,282.609 250.492,282.699C251.027,282.852 251.855,282.848 252.59,282.684C253.309,282.523 253.848,282.184 253.934,281.996L253.992,281.57C253.969,281.504 253.844,281.395 253.582,281.355L252.945,281.309C252.695,281.289 252.344,281.316 252.059,280.914C251.699,280.414 251.934,279.84 252.277,279.477C252.742,278.984 253.227,278.602 253.242,278.496L253.234,278.125C253.227,278.117 252.875,278.063 252.34,278.188C252.027,278.262 251.723,278.383 251.523,278.523C251.34,278.652 251.293,278.754 251.289,278.832M145.063,233.172C145.383,233.125 145.676,233.348 145.723,233.664C145.77,233.98 145.551,234.277 145.234,234.324C144.621,234.414 144.07,234.25 143.684,234.273L143.215,234.57L143.18,234.609C143.172,234.617 143.238,234.453 143.223,234.516C143.207,234.563 143.219,234.219 143.23,234.305C143.242,234.367 143.125,234.066 143.16,234.121C143.211,234.195 142.98,233.957 143.02,233.98L142.973,233.957C143.988,234.262 148.059,233.984 148.859,233.629C149.156,233.496 149.5,233.629 149.629,233.922C149.758,234.219 149.625,234.559 149.332,234.691C148.629,235 147.422,235.094 146.066,235.176C144.707,235.258 143.434,235.309 142.637,235.07L142.281,234.867C142.078,234.672 142.059,234.277 142.141,234.09L142.391,233.75C142.621,233.52 143.008,233.145 143.617,233.113C144.246,233.078 144.805,233.211 145.063,233.172M126.559,235.426C126.422,235.133 126.551,234.789 126.844,234.652C127.133,234.52 127.48,234.645 127.613,234.938L127.582,234.887C127.602,234.91 127.457,234.77 127.5,234.801C127.535,234.832 127.293,234.707 127.348,234.723C127.461,234.758 126.977,234.75 127.047,234.723C127.109,234.703 126.922,234.793 126.938,234.781L127.27,234.191C127.691,233.344 128.059,232.375 128.832,231.906C129.18,231.699 129.703,231.648 130.078,231.953C130.484,232.277 130.555,232.719 130.625,233.16C130.73,233.828 130.73,234.582 130.758,235.219L130.824,235.965L130.855,236.09L130.82,236.035C130.848,236.07 130.574,235.895 130.652,235.922C130.953,236.035 131.105,236.371 130.992,236.672C130.883,236.973 130.547,237.125 130.246,237.012C129.914,236.891 129.813,236.629 129.75,236.449C129.543,235.832 129.594,235.047 129.559,234.258L129.457,233.219L129.352,232.859L129.445,232.895L129.43,232.902C129.242,233.016 128.723,233.875 128.309,234.711L127.832,235.52C127.734,235.637 127.621,235.801 127.313,235.852C126.977,235.91 126.648,235.621 126.559,235.426M141.406,197.73C141.43,197.41 141.707,197.168 142.027,197.191C142.348,197.215 142.59,197.492 142.566,197.813C142.555,197.973 142.414,197.813 142.625,197.824C143.625,197.887 146.164,196.59 148.172,196.633C148.492,196.641 148.75,196.906 148.742,197.227C148.734,197.547 148.469,197.801 148.148,197.797C147.184,197.773 145.695,198.305 144.359,198.68C143.703,198.863 143.109,199.02 142.555,198.984C142.273,198.969 141.965,198.895 141.723,198.656C141.473,198.418 141.383,198.055 141.406,197.73M140.887,161.176C140.949,160.859 141.258,160.66 141.574,160.723C141.887,160.789 142.09,161.098 142.023,161.41C142.012,161.465 142.008,161.152 142.023,161.219C142.035,161.285 141.922,161.008 141.953,161.051L141.875,160.965C141.945,161.023 144.68,160.973 146.715,161.031C147.035,161.043 147.289,161.309 147.281,161.629C147.27,161.949 147.004,162.203 146.684,162.195L143.246,162.203L141.848,162.125L141.297,161.969C141.102,161.867 140.813,161.535 140.887,161.176M125.516,196.102C125.836,196.129 126.07,196.41 126.039,196.73C126.012,197.051 125.73,197.285 125.41,197.258L124.918,197.164C124.832,197.133 124.605,197.09 124.539,196.711C124.473,196.359 124.715,196.16 124.809,196.098C125.059,195.938 125.145,195.973 125.293,195.953L125.797,195.898C126.086,195.875 126.453,195.813 126.863,195.871C127.324,195.938 127.742,196.188 127.984,196.586C128.219,196.98 128.148,197.402 128.031,197.758C127.676,198.828 126.723,199.934 126.199,200.855C125.953,201.289 125.852,201.641 125.859,201.691L125.813,201.59C125.816,201.598 126.258,201.73 126.945,201.645C127.68,201.551 128.605,201.289 129.59,200.855C129.883,200.727 130.227,200.859 130.355,201.152C130.484,201.449 130.352,201.789 130.055,201.918C128.832,202.457 127.68,202.766 126.734,202.832C126.281,202.863 125.875,202.844 125.512,202.723C125.148,202.602 124.762,202.289 124.707,201.836C124.633,201.258 124.902,200.781 125.188,200.281L126.516,198.211L126.926,197.391L126.973,197.176L126.988,197.188C126.949,197.125 126.844,197.043 126.699,197.023L125.891,197.055L125.344,197.125L125.41,197.094L125.48,197.043C125.449,197.07 125.625,196.879 125.586,196.934C125.547,196.988 125.699,196.617 125.68,196.711C125.664,196.801 125.637,196.348 125.664,196.434C125.688,196.512 125.527,196.203 125.566,196.246C125.629,196.328 125.371,196.094 125.41,196.113C125.469,196.148 125.309,196.074 125.32,196.074L125.516,196.102ZM124.844,160.457C124.559,160.602 124.211,160.484 124.066,160.195C123.922,159.91 124.039,159.559 124.324,159.418C124.957,159.102 125.734,158.91 126.484,158.836C126.809,158.805 127.148,158.773 127.508,158.844C128.07,158.953 128.566,159.34 128.617,159.949C128.668,160.531 128.277,160.773 128.008,160.988L127.27,161.551L126.918,161.91C126.895,161.984 126.879,161.676 126.902,161.711L126.922,161.711L128.02,161.699C128.445,161.707 128.855,161.781 129.211,161.977C129.566,162.176 129.879,162.57 129.906,163.031C129.934,163.465 129.785,163.902 129.516,164.297C128.852,165.273 127.547,165.789 126.367,166.055C125.789,166.188 125.254,166.246 124.773,166.16C124.535,166.117 124.281,166.035 124.074,165.805C123.863,165.563 123.82,165.176 123.914,164.895C124.02,164.59 124.352,164.43 124.652,164.535C124.957,164.637 125.121,164.969 125.016,165.273C125.016,165.273 125.012,165.137 125.02,165.191C125.023,165.242 124.922,165.004 124.953,165.043L124.898,164.992C124.977,165.035 125.813,165.039 126.637,164.777C127.477,164.512 128.273,164.055 128.555,163.645C128.703,163.43 128.754,163.207 128.746,163.102L128.645,162.992C128.523,162.926 128.289,162.867 127.996,162.859C127.605,162.852 127.07,163.043 126.461,162.781C126.031,162.594 125.633,162.082 125.82,161.535C125.957,161.129 126.238,160.895 126.52,160.66L127.281,160.082L127.48,159.898C127.488,159.879 127.465,160.113 127.461,160.047C127.457,159.988 127.477,160.094 127.445,160.063L127.285,159.984L126.598,159.992C125.973,160.055 125.301,160.23 124.844,160.457" style="fill-rule:nonzero;"/>
        <path d="M217.27,198.582C216.949,198.582 216.691,198.32 216.691,198C216.691,197.68 216.949,197.418 217.27,197.418L324.637,197.418C324.957,197.418 325.219,197.68 325.219,198C325.219,198.32 324.957,198.582 324.637,198.582L217.27,198.582ZM324.055,143.113C324.055,142.793 324.316,142.531 324.637,142.531C324.957,142.531 325.219,142.793 325.219,143.113L325.219,198C325.219,198.32 324.957,198.582 324.637,198.582C324.316,198.582 324.055,198.32 324.055,198L324.055,143.113ZM255.504,202.352C255.824,202.379 256.059,202.664 256.031,202.984C256,203.305 255.715,203.539 255.395,203.508C255.34,203.504 255.574,203.488 255.535,203.496C255.473,203.516 255.633,203.457 255.629,203.461C255.277,203.715 254.078,206.262 253.059,208.238L252.078,209.996L251.746,210.504L251.488,210.734C251.391,210.789 251.172,210.871 250.926,210.746C250.676,210.621 250.617,210.406 250.598,210.297C250.496,209.664 250.809,209.363 250.957,208.922C251.402,207.594 252.195,205.863 253.16,204.383C253.637,203.648 254.066,203.035 254.477,202.551C254.664,202.336 254.777,202.086 255.137,201.887C255.398,201.742 255.805,201.832 255.984,202C256.152,202.156 256.219,202.324 256.273,202.496C256.395,202.895 256.344,203.234 256.363,203.488C256.398,203.91 256.57,204.32 256.852,204.926L258.184,207.754L258.813,209.047L259.184,209.883C259.262,210.152 259.426,210.574 259.047,210.977C258.688,211.359 258.359,211.227 258.125,211.195L257.477,211.082C256.836,210.996 256,211.055 255.211,211.09L253.844,211.242L253.813,211.246L253.879,211.188C253.852,211.219 253.977,211.008 253.953,211.063C253.914,211.164 253.941,210.641 253.969,210.734C253.992,210.801 253.875,210.57 253.898,210.598L253.871,210.566L253.969,210.621C254.258,210.762 254.379,211.109 254.238,211.398C254.098,211.684 253.75,211.805 253.461,211.664C253.191,211.535 252.813,211.402 252.828,210.855C252.84,210.438 253.152,210.273 253.328,210.195C253.824,209.977 254.457,209.957 255.16,209.926C255.934,209.895 256.816,209.816 257.637,209.93L258.289,210.043L258.426,210.055L258.371,210.07C258.41,210.055 258.141,210.242 258.203,210.18C258.246,210.133 258.105,210.371 258.117,210.328C258.133,210.273 258.109,210.395 258.105,210.367L258.066,210.195L257.77,209.566L257.133,208.258L255.797,205.41C255.508,204.789 255.258,204.238 255.203,203.578L255.16,202.836L255.145,202.797L255.168,202.828L255.23,202.883C255.184,202.848 255.547,202.965 255.453,202.957C255.359,202.953 255.758,202.871 255.695,202.906L255.633,202.98L255.363,203.305L254.133,205.016C253.238,206.391 252.469,208.07 252.059,209.293L251.82,209.957L251.758,210.16L251.75,210.191C251.75,210.195 251.738,210.063 251.746,210.113C251.754,210.152 251.648,209.871 251.688,209.941C251.727,210.016 251.359,209.66 251.469,209.719C251.57,209.777 251.066,209.656 251.16,209.648C251.238,209.645 250.934,209.711 250.977,209.691C251.051,209.66 250.836,209.781 250.852,209.766L250.887,209.711L251.074,209.414L252.023,207.707L253.691,204.379L254.449,203.07L254.824,202.621C254.965,202.488 255.164,202.316 255.504,202.352M264.148,204.793C264.465,204.738 264.766,204.953 264.82,205.27C264.875,205.586 264.66,205.887 264.344,205.941C263.922,206.012 263.516,206.238 263.051,206.711C262.5,207.273 261.863,208.133 261.23,208.984L260.207,210.527L260.152,210.648L260.164,210.578L260.164,210.492C260.168,210.527 260.109,210.293 260.133,210.348C260.152,210.406 259.969,210.109 260.023,210.168C260.074,210.227 259.762,210 259.832,210.031C259.898,210.059 259.598,209.98 259.652,209.984C259.746,209.992 259.41,210.023 259.453,210.008C259.516,209.988 259.352,210.055 259.359,210.051L259.555,209.867C259.781,209.641 260.148,209.637 260.375,209.863C260.605,210.086 260.609,210.457 260.383,210.684L260.074,210.969C259.988,211.035 259.93,211.156 259.594,211.148C259.422,211.145 259.164,211 259.07,210.82C258.918,210.52 259.012,210.398 259.039,210.309C259.203,209.762 259.695,209.105 260.297,208.293C260.934,207.438 261.578,206.551 262.223,205.895C262.805,205.305 263.449,204.914 264.148,204.793M260.102,206.781C260.039,207.098 259.734,207.301 259.422,207.242C259.105,207.18 258.898,206.875 258.961,206.559C258.988,206.414 259.02,206.234 259.23,206.059C259.402,205.918 259.695,205.887 259.867,205.945C260.309,206.098 260.355,206.34 260.492,206.559C261.57,208.262 264.953,210.84 265.941,211.113C266.25,211.199 266.434,211.52 266.348,211.832C266.262,212.141 265.941,212.32 265.633,212.234C264.809,212.008 263.738,211.223 262.543,210.258C261.328,209.281 260.152,208.195 259.512,207.18L259.391,207.004L259.375,206.984C259.359,206.969 259.609,207.078 259.52,207.055C259.445,207.035 259.91,207.012 259.809,207.047C259.727,207.07 260.043,206.891 259.996,206.934C259.934,206.992 260.109,206.77 260.098,206.793L260.102,206.781ZM267.672,207.031C267.363,207.117 267.043,206.93 266.961,206.621C266.879,206.309 267.063,205.992 267.375,205.91C268.938,205.492 271.461,205.371 272.797,205.355C273.117,205.352 273.379,205.609 273.383,205.93C273.387,206.254 273.129,206.516 272.809,206.52C271.551,206.535 268.996,206.68 267.672,207.031M267.516,209.188C267.195,209.184 266.938,208.922 266.941,208.602C266.945,208.281 267.211,208.023 267.531,208.027C269.262,208.047 272.477,208.109 274.262,207.641C274.574,207.559 274.891,207.746 274.973,208.055C275.055,208.367 274.867,208.684 274.559,208.766C272.465,209.313 269.258,209.211 267.516,209.188M277.387,203.754C277.707,203.754 277.965,204.02 277.961,204.34C277.957,204.66 277.695,204.918 277.375,204.914L277.074,204.898L276.82,204.805C276.738,204.754 276.582,204.629 276.551,204.383C276.52,204.141 276.645,203.965 276.723,203.887C276.949,203.664 276.996,203.73 277.059,203.715C277.504,203.605 278.371,203.531 279.328,203.484C279.906,203.457 280.52,203.41 281.133,203.488C281.605,203.547 282.113,203.598 282.555,203.938C283.078,204.344 283.129,205.012 282.988,205.52C282.738,206.426 281.844,206.723 281.277,207.043L280.691,207.344L280.695,207.328C280.688,207.348 280.723,207.152 280.723,207.211C280.719,207.273 280.613,206.898 280.664,206.98C280.703,207.047 280.484,206.793 280.531,206.828C280.605,206.887 280.34,206.742 280.367,206.746L280.52,206.738L280.98,206.723C282.449,206.766 283.973,207.801 284.145,209.238C284.227,209.953 283.766,210.555 283.215,210.938C282.375,211.523 281.211,211.824 280.078,211.773C278.949,211.723 277.742,211.219 277.336,210.066C277.23,209.762 277.387,209.43 277.691,209.324C277.992,209.219 278.324,209.375 278.434,209.68C278.703,210.445 279.832,210.754 281.023,210.559C281.617,210.461 282.176,210.246 282.551,209.984C282.898,209.742 283.004,209.52 282.988,209.375C282.918,208.777 281.844,207.91 280.949,207.887L280.484,207.902L280.191,207.895C280.07,207.879 279.84,207.875 279.66,207.566C279.355,207.051 279.699,206.621 280.023,206.395L280.707,206.027C281.289,205.699 281.852,205.273 281.867,205.215C281.918,205.027 281.859,204.871 281.84,204.855C281.746,204.785 281.414,204.695 280.984,204.641C280.523,204.582 279.969,204.617 279.383,204.645L277.605,204.797L277.375,204.832L277.348,204.84C277.332,204.844 277.484,204.766 277.434,204.797C277.41,204.813 277.57,204.684 277.531,204.723C277.488,204.762 277.703,204.426 277.664,204.523C277.625,204.625 277.656,204.039 277.688,204.164C277.719,204.277 277.496,203.855 277.547,203.91C277.594,203.957 277.395,203.793 277.426,203.813C277.484,203.848 277.285,203.754 277.309,203.762C277.379,203.781 277.242,203.746 277.262,203.75L277.387,203.754ZM334.301,166.801C334.031,166.977 333.672,166.898 333.496,166.629C333.324,166.355 333.402,165.996 333.672,165.824C333.719,165.793 333.555,165.93 333.574,165.906C333.609,165.867 333.52,165.984 333.523,165.977L333.68,165.305L333.828,164.75L333.93,164.539L334.121,164.348C334.199,164.301 334.348,164.23 334.555,164.273C334.922,164.355 334.988,164.66 335.004,164.758L334.988,165.012L334.398,166.715L333.301,169.211C332.762,170.297 332.137,171.188 331.762,171.77L331.441,172.332C331.406,172.383 331.363,172.48 331.133,172.547C330.871,172.625 330.516,172.391 330.445,172.246C330.258,171.867 330.383,171.906 330.391,171.848L330.988,169.395C331.574,167.324 332.273,165.117 333.277,163.676L333.926,162.813C334.148,162.566 334.449,162.281 334.918,162.328C335.465,162.383 335.68,162.762 335.848,163.035C336.188,163.574 336.02,164.078 336.004,164.313L335.969,164.594L335.883,164.832C335.848,164.891 335.816,165.02 335.551,165.105C335.281,165.191 334.945,164.98 334.867,164.848C334.668,164.52 334.777,164.504 334.781,164.426L334.816,164.145C334.863,163.855 335.219,163.609 335.465,163.617C336.094,163.629 336.281,164.109 336.453,164.68C336.781,165.793 336.59,167.305 336.887,168.582C337.039,169.227 337.375,169.844 337.676,170.41L338.055,171.145C338.145,171.336 338.242,171.555 338.152,171.863C338.055,172.199 337.672,172.387 337.426,172.398C336.594,172.438 335.348,172.137 334.07,172.098L331.621,172.078L331.324,172.086L331.289,172.086L331.305,172.086C331.289,172.086 331.641,171.957 331.477,172.035C331.223,172.152 331.289,170.926 331.363,170.941C331.418,170.957 331.285,170.93 331.293,170.93L332.078,170.938C332.398,170.938 332.66,171.195 332.66,171.516C332.66,171.84 332.398,172.098 332.078,172.098L331.191,172.09L331.055,172.063C330.973,172.035 330.453,171.508 330.797,171.121C331.027,170.863 331.078,170.945 331.109,170.938L331.52,170.918L334.105,170.938C335.508,170.98 336.879,171.262 337.371,171.238L337.328,171.246C337.375,171.234 337.066,171.438 337.137,171.363C337.188,171.309 337.016,171.609 337.031,171.551L337.02,171.648L337,171.633L336.648,170.957C336.348,170.391 335.953,169.684 335.758,168.848C335.398,167.324 335.547,165.719 335.336,165.008L335.203,164.703L335.262,164.738C335.234,164.727 335.43,164.781 335.379,164.773C335.336,164.766 335.578,164.762 335.523,164.773C335.434,164.785 335.895,164.547 335.809,164.629C335.719,164.715 335.98,164.238 335.965,164.336L335.941,164.504L335.941,164.473L335.93,164.414C335.938,164.441 335.855,164.23 335.887,164.289C335.898,164.316 335.785,164.141 335.816,164.184C335.852,164.223 335.605,164.016 335.672,164.055C335.738,164.094 335.344,163.965 335.43,163.973C335.516,163.984 335.125,164.02 335.195,163.996C335.258,163.977 335.004,164.098 335.043,164.07C335.113,164.023 334.887,164.227 334.914,164.195C334.953,164.141 334.84,164.324 334.848,164.301C334.875,164.242 334.832,164.355 334.832,164.34L334.844,164.246L334.863,163.652L334.727,163.473L334.711,163.457L334.801,163.484L334.898,163.477L334.734,163.656L334.23,164.344C333.395,165.543 332.68,167.684 332.105,169.711L331.656,171.445L331.555,171.938L331.543,171.992L331.543,171.941C331.547,171.965 331.504,171.762 331.523,171.82C331.539,171.871 331.309,171.5 331.395,171.598C331.469,171.676 330.902,171.395 331.051,171.414C331.262,171.445 330.547,171.582 330.617,171.527C330.684,171.48 330.488,171.664 330.508,171.637L330.563,171.527L330.785,171.137C331.176,170.531 331.762,169.691 332.258,168.691C333.059,167.082 333.723,165.309 333.855,164.742L333.852,164.77L333.848,164.816C333.848,164.793 333.855,164.965 333.852,164.914L333.871,165.02C333.859,164.973 334.012,165.258 333.961,165.191C333.906,165.121 334.328,165.43 334.215,165.383C334.102,165.34 334.625,165.395 334.535,165.414C334.453,165.43 334.766,165.316 334.723,165.344C334.645,165.387 334.879,165.207 334.855,165.234C334.816,165.277 334.926,165.137 334.918,165.148C334.891,165.195 334.934,165.117 334.926,165.133L334.824,165.512L334.691,166.129C334.641,166.328 334.715,166.535 334.301,166.801M339.199,166.09C339.508,165.996 339.832,166.172 339.926,166.48C340.016,166.785 339.844,167.109 339.535,167.203C339.512,167.211 339.738,167.035 339.68,167.102C339.625,167.168 339.777,166.836 339.773,166.895L339.77,166.828C339.805,166.957 340.313,167.621 340.848,168.27C341.383,168.922 342.031,169.488 341.984,170.348C341.969,170.668 341.695,170.914 341.371,170.898C341.051,170.879 340.805,170.605 340.824,170.285C340.824,170.277 340.25,169.375 339.609,168.602C339.293,168.215 338.992,167.852 338.793,167.48C338.691,167.293 338.594,167.094 338.613,166.809C338.633,166.504 338.922,166.176 339.199,166.09M342.82,167.688C342.781,168.008 342.488,168.234 342.172,168.191C341.852,168.152 341.625,167.863 341.668,167.543L341.82,166.523C341.84,166.457 341.84,166.289 342.133,166.152C342.457,166 342.758,166.223 342.828,166.309C343.023,166.543 342.941,166.527 342.949,166.551C343.008,166.797 343.047,167.23 342.992,167.863C342.906,168.898 342.512,170.117 342.063,171.563C341.508,173.348 340.797,175.391 340.328,177.051C340.078,177.953 339.914,178.707 339.867,179.129L339.859,179.316L339.832,179.227C339.848,179.266 339.668,179.012 339.727,179.074C339.781,179.129 339.391,178.906 339.492,178.934C339.578,178.957 339.176,178.934 339.246,178.918C339.305,178.91 339.07,178.984 339.105,178.965C339.16,178.938 338.984,179.051 339,179.035L339.035,178.973C339.195,178.695 339.551,178.598 339.828,178.758C340.105,178.918 340.203,179.273 340.043,179.551L339.801,179.883C339.691,179.984 339.359,180.188 339.023,179.988C338.754,179.824 338.734,179.629 338.715,179.516C338.648,179.168 338.719,178.859 338.805,178.41L339.211,176.738C339.691,175.027 340.406,172.98 340.953,171.219C341.398,169.777 341.766,168.59 341.836,167.766L341.84,167.039L341.82,166.836L341.816,166.809L341.828,166.859L341.848,166.91L341.891,166.996C341.848,166.926 342.91,167.164 342.496,167.25C342.094,167.332 342.961,166.762 342.941,166.836L342.82,167.688ZM346.492,167.543C346.367,167.836 346.023,167.977 345.73,167.848C345.434,167.723 345.297,167.383 345.422,167.086C345.66,166.527 346.199,166.285 346.742,166.117C348.434,165.598 350.766,165.723 351.762,165.766C352.086,165.777 352.332,166.047 352.32,166.367C352.309,166.691 352.039,166.938 351.715,166.926C351.105,166.902 349.879,166.863 348.672,166.965C348.074,167.016 347.508,167.098 347.082,167.23C346.688,167.352 346.5,167.523 346.492,167.543M345.504,169.117C345.52,168.797 345.793,168.551 346.113,168.57C346.438,168.586 346.684,168.859 346.664,169.18C346.664,169.188 346.621,169.027 346.645,169.082C346.664,169.129 346.5,168.906 346.539,168.941L346.453,168.891L347.355,168.719C349.246,168.25 351.504,168 352.813,169.266C353.043,169.488 353.047,169.855 352.824,170.086C352.602,170.316 352.234,170.324 352.004,170.102C351.273,169.395 349.367,169.418 347.637,169.848C347.246,169.945 346.875,170.047 346.496,170.051C346.301,170.055 346.074,170.035 345.848,169.875C345.609,169.703 345.492,169.375 345.504,169.117M356.445,171.215C356.211,171.43 355.844,171.418 355.625,171.18C355.406,170.945 355.422,170.578 355.656,170.359C356.074,169.977 356.465,169.414 356.953,168.586C357.609,167.473 358.418,165.977 359.023,164.551L359.637,162.844L359.762,162.238L359.77,162.168L359.777,162.227C359.77,162.199 359.867,162.441 359.828,162.367C359.813,162.336 359.945,162.523 359.906,162.48C359.871,162.441 360.137,162.645 360.066,162.605C360,162.57 360.383,162.68 360.297,162.672C360.223,162.668 360.57,162.629 360.508,162.648C360.402,162.68 360.777,162.48 360.73,162.52C360.668,162.578 360.855,162.355 360.836,162.387L360.871,162.32L360.645,164.34C360.508,165.668 360.387,167.023 360.418,168.051C360.434,168.531 360.492,168.914 360.566,169.098L360.586,169.156C360.629,169.188 360.41,169.121 360.426,169.117C360.738,169.043 361.051,169.234 361.125,169.547C361.199,169.859 361.008,170.172 360.695,170.246C360.176,170.371 359.652,169.941 359.484,169.527C358.988,168.277 359.281,166.242 359.488,164.219C359.586,163.242 359.57,162.441 359.789,161.887L359.949,161.66C360.094,161.527 360.598,161.52 360.762,161.691C361,161.941 360.922,162.004 360.926,162.059C360.957,162.355 360.898,162.672 360.75,163.172L360.094,165.008C359.457,166.504 358.633,168.031 357.957,169.176C357.445,170.047 356.996,170.707 356.445,171.215M363.762,169.051C363.465,169.176 363.125,169.035 363.004,168.738C362.879,168.441 363.02,168.102 363.316,167.977L363.27,168C363.289,167.988 363.125,168.105 363.168,168.066C363.219,168.023 362.938,168.551 362.984,168.367C363.035,168.168 363.27,169.039 363.152,168.934C363.051,168.844 363.422,169.078 363.375,169.063C363.293,169.039 363.531,169.086 363.508,169.086C363.445,169.082 363.559,169.086 363.543,169.086L363.406,169.113L363.363,169.125L363.406,169.102C363.383,169.117 363.543,168.957 363.504,169.008C363.465,169.055 363.629,168.695 363.605,168.793C363.586,168.879 363.57,168.426 363.598,168.516C363.617,168.59 363.473,168.297 363.504,168.34C363.559,168.406 363.352,168.211 363.379,168.227L363.488,168.246C363.805,168.309 364.008,168.613 363.945,168.93C363.883,169.246 363.578,169.449 363.262,169.387C363.008,169.336 362.734,169.445 362.508,168.914C362.406,168.68 362.508,168.379 362.617,168.258C362.914,167.922 363.082,167.992 363.242,167.961L363.461,167.926L363.664,167.938L363.93,168.07C364.047,168.176 364.164,168.445 364.109,168.652C363.98,169.156 363.809,169.031 363.762,169.051M367.848,162.516C368.043,162.77 368,163.133 367.746,163.332C367.496,163.531 367.129,163.484 366.93,163.23C366.926,163.227 367.047,163.324 367,163.293C366.957,163.262 367.313,163.367 367.219,163.363C367.133,163.355 367.543,163.277 367.469,163.313C367.41,163.344 367.637,163.176 367.605,163.211C367.559,163.262 367.68,163.086 367.676,163.102L367.688,163.266C367.719,163.434 368.293,164.055 369.098,164.66C369.934,165.285 370.902,165.914 371.648,166.578C372.305,167.156 372.867,167.742 373.039,168.484C373.176,169.086 372.941,169.723 372.469,170.102C371.402,170.957 369.664,170.711 368.203,170.078C367.477,169.766 366.805,169.32 366.363,168.707C365.918,168.09 365.754,167.234 366.082,166.43C366.199,166.133 366.539,165.988 366.836,166.109C367.133,166.23 367.277,166.566 367.156,166.863C366.813,167.723 367.496,168.508 368.664,169.012C369.863,169.531 371.324,169.531 371.738,169.195C371.887,169.078 371.945,168.918 371.906,168.746C371.832,168.438 371.461,167.961 370.879,167.449C370.223,166.867 369.27,166.242 368.402,165.59C367.547,164.949 366.715,164.387 366.543,163.48C366.488,163.176 366.473,162.895 366.629,162.598C366.715,162.434 366.926,162.207 367.238,162.199C367.547,162.195 367.734,162.375 367.848,162.516M367.266,163.348C366.953,163.277 366.754,162.969 366.82,162.656C366.887,162.344 367.195,162.141 367.512,162.211C367.598,162.227 371.188,161.094 374.68,161.156C375,161.164 375.258,161.426 375.25,161.75C375.246,162.07 374.98,162.324 374.66,162.32C373.047,162.289 371.41,162.559 370.055,162.84L368.367,163.215C367.93,163.313 367.691,163.438 367.266,163.348M263.691,175.449C263.82,175.742 263.688,176.086 263.395,176.215C263.102,176.344 262.758,176.211 262.629,175.914L262.555,175.637C262.543,175.5 262.613,175.172 262.898,175.039C263.34,174.832 263.461,175.051 263.547,175.109C263.797,175.27 264,175.5 264.23,175.785C265.902,177.883 266.137,181.199 266.086,183.816C266.047,185.824 265.949,188.086 265.477,189.973C265.215,191.016 264.957,192.203 264.555,193.332C264.211,194.285 263.961,195.039 263.508,195.797L262.988,196.566L262.348,197.422L261.648,198.184C261.512,198.301 261.352,198.418 261.117,198.473C260.867,198.531 260.523,198.449 260.324,198.25C260.098,198.027 260.094,197.656 260.32,197.43C260.543,197.199 260.914,197.199 261.141,197.422C261.168,197.449 260.941,197.332 261,197.348C261.055,197.359 260.832,197.344 260.863,197.34L260.852,197.336L261.457,196.68L262.043,195.895L262.512,195.203C262.891,194.57 263.113,193.898 263.461,192.938C263.832,191.902 264.082,190.754 264.348,189.688C264.777,187.973 264.887,185.77 264.922,183.797C264.973,181.297 264.652,178.18 263.32,176.512L262.926,176.09L262.988,176.117L263.098,176.141C263.051,176.137 263.352,176.113 263.277,176.133C263.211,176.148 263.563,175.977 263.492,176.031C263.434,176.078 263.676,175.805 263.641,175.867C263.582,175.965 263.719,175.555 263.715,175.617C263.711,175.699 263.691,175.445 263.699,175.469L263.691,175.449ZM253.227,184.414C253.41,184.152 253.773,184.086 254.035,184.266C254.301,184.449 254.367,184.813 254.184,185.074C253.977,185.375 254.078,186.238 253.797,187.395C253.387,189.105 251.957,190.848 250.75,192.082C250.09,192.75 249.316,193.133 248.539,193.102C247.77,193.074 247.059,192.656 246.465,192.047C246.039,191.609 245.555,191.078 245.266,190.406C245.094,190.004 245.027,189.578 245.039,189.172C245.055,188.711 245.215,188.273 245.496,187.934C246.074,187.242 246.988,187.434 247.625,187.684C249.082,188.25 250.367,189.406 251.836,189.891C252.895,190.238 253.848,190.758 254.523,190.906C255.102,191.035 255.234,191.066 255.387,190.223C255.445,189.906 255.75,189.695 256.063,189.754C256.379,189.809 256.59,190.113 256.531,190.43C256.418,191.066 256.156,191.594 255.703,191.879C255.039,192.297 254.273,192.086 253.582,191.832L251.473,190.996C249.723,190.418 248.383,189.227 247.199,188.766C246.785,188.602 246.406,188.66 246.391,188.68C246.289,188.801 246.207,189.004 246.203,189.207C246.195,189.457 246.238,189.727 246.336,189.949C246.523,190.387 246.906,190.836 247.297,191.234C248.18,192.141 248.965,192.238 249.918,191.266C251.039,190.121 252.359,188.406 252.668,187.121C252.887,186.207 252.641,185.266 253.227,184.414M366.902,217.855C367.215,217.785 367.527,217.984 367.594,218.301C367.664,218.613 367.465,218.922 367.152,218.992C367.113,219 367.238,218.91 367.18,219.031L366.832,219.895C366.551,220.613 366.082,221.457 365.59,222.504L363.555,227.133C362.652,229.223 361.945,230.988 361.504,232.219L361.125,233.418L361.113,233.48L361.113,233.441L361.094,233.348C361.109,233.387 360.973,233.129 361.02,233.191C361.059,233.246 360.75,232.98 360.832,233.027C360.906,233.066 360.527,232.953 360.602,232.961C360.664,232.965 360.395,232.984 360.438,232.973C360.512,232.953 360.258,233.055 360.289,233.035L360.223,233.082C360.43,232.832 360.797,232.797 361.043,233C361.293,233.203 361.328,233.57 361.121,233.82L360.898,234.023C360.77,234.105 360.344,234.176 360.117,233.922C359.766,233.535 359.949,233.395 359.973,233.258C360.059,232.762 360.336,231.992 360.754,230.898L362.484,226.672L364.539,222.008L365.754,219.469L366.141,218.508C366.273,218.242 366.543,217.934 366.902,217.855M357.875,227.039C358.172,227.16 358.316,227.5 358.191,227.797C358.07,228.094 357.73,228.238 357.434,228.113L357.055,227.895C356.938,227.789 356.789,227.598 356.793,227.34C356.797,226.867 357.125,226.719 357.324,226.625C358.012,226.289 359.121,226.148 360.383,225.965L363.816,225.457C364.129,225.395 364.438,225.602 364.496,225.914C364.559,226.23 364.352,226.535 364.035,226.598C362.824,226.832 360.984,227.027 359.469,227.285L357.875,227.652L357.813,227.68L357.855,227.637L357.914,227.539C357.879,227.621 357.914,227.121 357.941,227.227C357.961,227.301 357.832,227.027 357.859,227.059C357.895,227.105 357.801,227.004 357.805,227.004L357.875,227.039ZM374.027,225.961C373.867,226.238 373.512,226.336 373.234,226.176C372.957,226.016 372.859,225.664 373.02,225.383L373.355,224.637L373.359,224.605C373.359,224.586 373.484,224.82 373.43,224.754L373.516,224.824L373.563,224.844C373.508,224.832 372.941,224.957 372.301,225.395C371.594,225.871 370.746,226.738 369.926,227.691C369.234,228.496 368.637,229.352 368.285,230.078C367.797,231.074 368.066,231.555 368.449,231.715C368.754,231.844 369.207,231.824 369.633,231.574C370.406,231.125 371.137,229.57 371.824,228.035L372.742,226.086L373.18,225.32L373.355,225.098L373.5,224.984C373.566,224.945 373.684,224.887 373.863,224.906C374.148,224.938 374.324,225.195 374.363,225.313L374.395,225.516C374.41,226.207 374.027,226.891 373.785,227.684C373.43,228.852 373.172,230.031 373.133,230.867C373.113,231.25 373.168,231.527 373.191,231.574C373.195,231.574 372.949,231.516 373.039,231.48C373.336,231.355 373.676,231.496 373.797,231.793C373.922,232.09 373.781,232.43 373.484,232.551C373.039,232.738 372.383,232.527 372.164,232.117C371.855,231.535 371.934,230.84 372.047,230.035C372.168,229.199 372.395,228.27 372.676,227.348L373.234,225.535C373.234,225.52 373.27,225.715 373.25,225.648C373.242,225.617 373.336,225.832 373.305,225.777C373.273,225.723 373.535,226.012 373.461,225.953C373.387,225.898 373.82,226.074 373.727,226.063C373.641,226.051 374.004,226.031 373.945,226.047C373.844,226.074 374.168,225.934 374.133,225.957C374.082,225.996 374.207,225.891 374.203,225.895L374.105,226.023L373.781,226.605L372.883,228.512C372.195,230.051 371.543,231.805 370.219,232.578C369.508,232.996 368.68,233.07 368.004,232.789C366.98,232.363 366.566,230.945 367.238,229.57C367.656,228.715 368.301,227.797 369.043,226.934C369.898,225.941 370.781,225.02 371.645,224.434C372.422,223.906 373.105,223.57 373.781,223.703C374.027,223.75 374.301,223.922 374.426,224.168C374.773,224.867 374.348,225.398 374.027,225.961M377.148,226.668C377.422,226.504 377.777,226.59 377.945,226.863C378.113,227.141 378.023,227.496 377.75,227.664C377.305,227.934 376.727,228.883 376.387,229.867L376.063,231.188L376.047,231.469L376.027,231.41C376.039,231.441 375.883,231.203 375.938,231.266C375.98,231.316 375.629,231.086 375.727,231.121C375.801,231.152 375.414,231.094 375.488,231.09C375.602,231.078 375.18,231.207 375.234,231.172C375.289,231.141 375.121,231.277 375.137,231.258L375.133,231.246L375.402,230.352C375.816,229.059 376.434,227.367 377.66,226.012C378.832,224.719 380.477,223.973 381.84,224.039C382.516,224.074 383.172,224.461 383.48,225.102C384.082,226.355 383.598,228.027 383.109,229.508L382.395,231.398L382.141,231.98L382.07,232.137L382.059,232.168L382.063,232.156C382.059,232.172 381.457,230.867 381.992,231.625C382.176,231.887 382.113,232.25 381.852,232.434C381.59,232.621 381.227,232.559 381.043,232.293C380.508,231.539 380.965,231.773 380.973,231.754L381.352,230.883C382.004,229.32 382.891,226.563 382.43,225.602C382.301,225.328 382.121,225.219 381.781,225.203C380.906,225.156 379.461,225.758 378.523,226.793C377.488,227.938 376.902,229.469 376.512,230.703C376.367,231.156 376.395,231.586 376.012,232.023L375.723,232.219C375.418,232.316 375.055,232.059 374.977,231.902C374.789,231.535 374.871,231.336 374.91,231.035C374.969,230.594 375.094,230.055 375.289,229.488C375.676,228.359 376.238,227.223 377.148,226.668M396.938,217.316C396.953,217.637 396.707,217.91 396.387,217.926C396.066,217.941 395.793,217.691 395.777,217.371L395.758,217.168C395.742,217.141 395.926,217.293 395.871,217.262C395.82,217.234 396.074,217.309 396.027,217.309L396.117,217.301L395.98,217.418L395.574,217.91C395.277,218.332 394.938,218.902 394.574,219.645C393.832,221.152 393.02,223.16 392.379,225.152C391.93,226.551 391.637,227.898 391.465,229.008C391.262,230.328 391.363,231.137 391.543,231.613C391.707,232.039 391.914,232.199 392.133,232.477C392.332,232.727 392.289,233.094 392.035,233.293C391.781,233.492 391.418,233.449 391.219,233.195C391.117,233.063 390.707,232.688 390.457,232.023C390.188,231.313 390.09,230.289 390.316,228.832C390.496,227.664 390.801,226.262 391.273,224.797C391.934,222.746 392.758,220.703 393.527,219.133C393.914,218.348 394.281,217.723 394.625,217.238C394.98,216.738 395.273,216.328 395.805,216.18C396.094,216.098 396.527,216.238 396.711,216.504C396.887,216.754 396.926,217.02 396.938,217.316M404.555,224.289C404.27,224.438 403.918,224.324 403.773,224.035C403.629,223.75 403.742,223.398 404.027,223.254C404.156,223.191 404.289,223.121 404.512,223.137C404.727,223.148 405.008,223.34 405.094,223.551C405.227,223.883 405.129,224.066 405.066,224.246C404.875,224.809 404.445,225.504 403.898,226.32C403.047,227.594 401.973,229.004 400.926,230.207C399.953,231.316 399.129,232.176 398.293,232.547C397.648,232.832 396.844,232.512 396.523,231.918C395.938,230.844 395.984,229.234 396.133,227.863C396.215,227.098 396.355,226.426 396.691,225.891C397.02,225.367 397.613,225.031 398.234,225.035C399.063,225.039 399.715,225.629 400.359,226.313C401.367,227.367 402.344,228.793 403.309,229.988C403.781,230.57 404.23,231.078 404.637,231.422C405.016,231.742 405.32,231.859 405.438,231.848C405.758,231.816 406.039,232.055 406.07,232.371C406.098,232.691 405.863,232.977 405.543,233.004C404.711,233.082 404.035,232.508 403.391,231.848C402.387,230.82 401.41,229.402 400.441,228.188C399.504,227.012 398.559,226.199 398.227,226.195C397.965,226.195 397.824,226.27 397.676,226.512C397.5,226.789 397.363,227.309 397.289,227.988C397.152,229.234 397.227,230.777 397.543,231.363C397.66,231.574 397.633,231.566 397.824,231.484C398.301,231.273 399.117,230.508 400.047,229.441C401.063,228.281 402.113,226.902 402.934,225.676C403.387,224.992 403.75,224.383 403.914,224.004L403.984,223.82C403.988,223.801 403.988,223.906 403.984,223.855L404,223.945C403.992,223.91 404.082,224.109 404.055,224.066C404.004,223.984 404.375,224.297 404.285,224.258C404.219,224.23 404.5,224.297 404.457,224.297C404.395,224.297 404.582,224.281 404.566,224.285L404.555,224.289ZM412.91,218.539C412.75,218.816 412.395,218.914 412.117,218.754C411.836,218.594 411.742,218.238 411.902,217.961C411.969,217.84 412.145,217.672 412.375,217.648C412.777,217.609 412.895,217.828 412.969,217.926C413.207,218.227 413.328,218.613 413.492,219.176C413.668,219.77 413.832,220.512 413.949,221.355C414.141,222.754 414.223,224.395 414.031,226.09C413.754,228.586 412.914,230.898 412.039,232.668C411.621,233.516 411.203,234.215 410.824,234.723L410.305,235.316L409.996,235.523C409.859,235.582 409.621,235.641 409.375,235.512C409.094,235.363 408.984,235.012 409.137,234.727C409.285,234.445 409.637,234.336 409.922,234.484C410.016,234.535 409.582,234.434 409.652,234.43C409.719,234.422 409.504,234.469 409.527,234.457C409.566,234.441 410.414,233.395 411.145,231.848C411.918,230.215 412.633,228.137 412.875,225.961C413.055,224.383 412.98,222.832 412.797,221.516C412.664,220.559 412.465,219.746 412.277,219.191L412.063,218.66L412.051,218.641L412.086,218.676C412.066,218.66 412.23,218.773 412.184,218.746C412.145,218.723 412.41,218.813 412.344,218.801C412.289,218.793 412.59,218.793 412.523,218.801C412.426,218.816 412.848,218.633 412.781,218.688C412.719,218.738 412.934,218.496 412.91,218.539M422.211,225.957C421.926,226.105 421.578,225.996 421.426,225.711C421.277,225.426 421.391,225.074 421.672,224.926C422.445,224.523 423.605,224.555 424.91,224.543L428.348,224.566C428.668,224.563 428.934,224.82 428.938,225.141C428.941,225.461 428.684,225.727 428.363,225.73C426.566,225.754 422.91,225.594 422.211,225.957M421.008,229.195C420.738,229.375 420.379,229.301 420.199,229.035C420.023,228.766 420.094,228.406 420.363,228.227C420.859,227.895 421.605,227.676 422.535,227.453C423.992,227.102 425.754,226.832 427.352,226.777C428.129,226.75 428.848,226.777 429.465,226.902C430.059,227.023 430.648,227.23 430.91,227.805C431.039,228.098 430.91,228.441 430.617,228.574C430.324,228.703 429.98,228.574 429.848,228.281C429.848,228.277 429.457,228.035 428.715,227.969C426.195,227.734 421.965,228.559 421.008,229.195M442.281,216.684C442.324,217.004 442.102,217.297 441.781,217.336C441.465,217.379 441.172,217.152 441.129,216.836C440.973,215.629 442.066,214.941 443.148,213.539C443.559,213.012 443.984,212.332 444.457,211.527C445.496,209.758 446.473,207.41 447.328,205.527L448.34,203.441L448.691,202.766C448.809,202.563 448.969,202.191 449.48,202.203C449.848,202.215 449.984,202.461 450.043,202.574C450.191,202.871 450.191,203.117 450.219,203.441C450.266,204.008 450.531,205.078 450.82,206.313C451.195,207.922 451.965,209.77 452.613,211.531C453.449,213.801 454.008,215.551 454.273,216.59C454.324,216.793 454.449,216.961 454.438,217.336C454.43,217.672 454.055,218 453.805,218.047C453.148,218.176 452.508,217.914 451.527,217.836L449.602,217.836L444.762,218.148L443.328,218.223L443.012,218.164C442.914,218.121 442.645,217.973 442.648,217.613C442.656,217.313 442.82,217.199 442.891,217.145C443.215,216.902 443.301,216.98 443.582,216.922C443.895,216.855 444.203,217.059 444.27,217.375C444.332,217.688 444.133,217.996 443.816,218.059L443.496,218.133L443.551,218.102C443.523,218.121 443.734,217.926 443.68,217.992C443.617,218.066 443.793,217.375 443.813,217.574C443.828,217.77 443.512,217.105 443.594,217.172C443.664,217.227 443.402,217.07 443.438,217.082C443.555,217.125 446.898,216.773 449.559,216.676L451.621,216.676L453.309,216.891L453.582,216.906L453.527,216.926C453.574,216.902 453.301,217.152 453.352,217.074C453.406,216.996 453.277,217.355 453.277,217.297L453.254,217.242L453.145,216.875C452.898,215.906 452.348,214.176 451.523,211.934C450.883,210.195 450.094,208.32 449.688,206.574C449.402,205.348 449.121,204.289 449.063,203.535L449.004,203.117L449.008,203.102C448.996,203.082 449.152,203.273 449.094,203.219C449.063,203.191 449.289,203.344 449.23,203.313C449.168,203.281 449.535,203.371 449.453,203.367C449.371,203.367 449.723,203.289 449.672,203.316L449.75,203.262L449.355,204.008L448.387,206.012C447.539,207.871 446.559,210.242 445.461,212.117C444.977,212.938 444.527,213.656 444.07,214.25L442.633,215.965C442.336,216.336 442.262,216.523 442.281,216.684M453.883,209.895C453.719,209.617 453.809,209.262 454.086,209.098C454.363,208.934 454.719,209.023 454.883,209.301C455.082,209.637 455.984,210.629 456.879,211.547L458.09,212.738L458.48,213.082L458.559,213.141L458.508,213.117C458.527,213.125 458.34,213.078 458.395,213.086C458.457,213.098 457.969,213.164 458.102,213.113C458.402,213 458.738,213.152 458.852,213.453C458.965,213.754 458.813,214.09 458.512,214.203C458.02,214.391 458,214.164 457.93,214.121C457.453,213.816 456.73,213.063 455.879,212.184C455.02,211.297 454.227,210.473 453.883,209.895M461.703,208.746C461.609,209.051 461.281,209.223 460.977,209.129C460.668,209.035 460.496,208.707 460.594,208.402L460.617,208.324L460.613,208.344L460.605,208.395C460.609,208.363 460.637,208.633 460.617,208.547C460.598,208.445 461.367,209.07 461.047,208.992C460.746,208.918 461.621,208.82 461.559,208.871C461.508,208.918 461.66,208.762 461.648,208.781C461.602,208.84 461.688,208.719 461.688,208.719L460.293,211.75C459.555,213.254 458.543,215.07 457.457,216.855L454.617,221.301L453.805,222.668L453.672,222.996L453.668,222.969L453.648,222.863C453.664,222.91 453.512,222.668 453.555,222.715C453.77,222.953 453.75,223.32 453.512,223.535C453.273,223.75 452.906,223.73 452.691,223.492C452.438,223.211 452.496,222.914 452.543,222.719C452.703,222.059 453.234,221.293 453.926,220.219L456.465,216.25C457.535,214.492 458.531,212.699 459.246,211.238L460.398,208.75L460.641,208.211L460.719,208.078C460.75,208.039 460.727,207.867 461.16,207.848C461.383,207.836 461.629,208.02 461.699,208.156C461.898,208.531 461.766,208.512 461.758,208.547L461.703,208.746ZM441.609,223.414C441.922,223.344 442.234,223.539 442.305,223.852C442.375,224.168 442.176,224.477 441.863,224.547L441.906,224.535C441.883,224.543 442.086,224.441 442.023,224.477C441.992,224.5 442.191,224.324 442.145,224.375C442.094,224.43 442.301,224.008 442.273,224.121C442.246,224.238 442.203,223.676 442.246,223.773C442.285,223.867 442.07,223.539 442.113,223.578C442.188,223.652 441.918,223.453 441.949,223.469C442.008,223.496 441.855,223.438 441.867,223.441L444.039,223.547L447.457,223.629L454.652,223.809C458.082,223.863 461.109,223.824 463.41,223.762L466.035,223.668L466.762,223.629L466.953,223.613L466.988,223.609L466.918,223.629C467.223,223.531 467.551,223.703 467.645,224.012C467.738,224.316 467.566,224.645 467.262,224.738L466.84,224.789L462.563,224.945C460.371,224.996 457.656,225.02 454.637,224.973L447.43,224.793L444.004,224.707L442.164,224.633L441.695,224.59C441.633,224.582 441.609,224.652 441.359,224.461C441.273,224.395 441.105,224.215 441.129,223.941C441.164,223.547 441.402,223.488 441.477,223.457L441.609,223.414ZM450.754,227.164C450.996,227.371 451.023,227.738 450.816,227.98C450.609,228.227 450.242,228.254 449.996,228.047C449.969,228.023 450.266,228.133 450.18,228.121C450.105,228.113 450.406,228.082 450.367,228.098C450.309,228.121 450.402,228.074 450.359,228.125L449.57,229.484L447.91,232.383C446.914,234 445.637,235.473 444.68,236.676L443.551,238.094L443.148,238.684L443.121,238.723L443.137,238.629C443.133,238.668 443.102,238.398 443.121,238.469C443.133,238.523 442.984,238.211 443.031,238.277C443.066,238.328 442.84,238.105 442.895,238.141C442.973,238.199 442.582,238.039 442.652,238.047C442.723,238.059 442.449,238.055 442.488,238.051L442.438,238.063C442.586,237.984 443.117,237.414 443.645,236.809C444.824,235.453 445.781,233.141 446.621,231.258C447.219,229.922 447.648,228.863 448.168,228.121C448.398,227.793 448.629,227.438 449.082,227.262C449.492,227.109 450.109,227.133 450.52,227.539C450.977,227.984 450.984,228.531 451.105,228.965C451.598,230.715 452.313,233.113 453.301,235.25C453.859,236.461 454.504,237.504 455.031,238.266L455.617,238.977L455.773,239.137C455.793,239.156 455.832,239.098 455.926,239.375C455.973,239.523 455.871,239.973 455.609,240.09C455.254,240.25 455.227,240.125 455.191,240.113L455.059,240.063C454.664,239.891 453.867,239.543 452.797,239.309C451.082,238.938 448.746,239.051 446.699,239.324L444.137,239.785L443.375,240.004L443.207,240.074L443.258,240.031C443.238,240.051 443.352,239.891 443.328,239.934C443.168,240.215 442.813,240.309 442.535,240.152C442.254,239.992 442.16,239.637 442.316,239.355C442.551,238.953 442.75,238.992 442.98,238.91C443.863,238.594 445.465,238.277 447.348,238.074C449.27,237.867 451.336,237.801 453.047,238.172C454.234,238.434 455.121,238.824 455.52,238.992C455.563,239.012 455.469,238.984 455.535,239.004C455.555,239.012 455.352,238.977 455.422,238.98C455.457,238.984 455.18,239.008 455.258,238.992C455.297,238.984 455.059,239.066 455.113,239.039C455.168,239.012 454.887,239.23 454.941,239.172C454.996,239.113 454.797,239.449 454.82,239.379C454.844,239.309 454.793,239.625 454.793,239.57C454.789,239.465 454.855,239.828 454.836,239.781C454.805,239.703 454.926,239.93 454.91,239.91C454.863,239.848 454.953,239.961 454.945,239.953L454.734,239.734L454.078,238.926C453.52,238.121 452.84,237.027 452.242,235.738C451.211,233.5 450.484,231.051 449.988,229.281L449.707,228.367C449.625,228.289 449.633,228.297 449.496,228.352L449.121,228.785C448.723,229.359 448.281,230.391 447.684,231.73C446.848,233.602 445.898,235.988 444.52,237.574L443.637,238.555C443.359,238.84 443.148,239.121 442.676,239.195C442.512,239.223 442.129,239.094 442.02,238.836C441.863,238.461 442.008,238.375 442.047,238.285L442.617,237.398L443.77,235.953C444.746,234.727 445.988,233.289 446.922,231.773L448.543,228.941L449.359,227.516C449.488,227.34 449.625,227.172 449.859,227.051C450.113,226.926 450.531,226.977 450.754,227.164M464.996,230.883C465.043,231.199 464.82,231.496 464.504,231.539C464.188,231.586 463.891,231.363 463.848,231.047L463.82,230.914C463.797,230.883 464.035,231.02 463.973,231.008L464.035,231.012L463.438,231.426L462.23,232.781C461.273,233.875 460.051,235.059 458.93,236.219L455.457,239.887L455.152,240.25L455.137,240.27L455.168,240.207C455.152,240.246 455.188,239.84 455.199,239.973C455.211,240.117 454.664,239.406 454.859,239.496C455.031,239.57 454.449,239.469 454.512,239.457C454.566,239.445 454.391,239.5 454.41,239.488C454.469,239.465 454.371,239.512 454.402,239.488L455.133,238.863C455.375,238.652 455.742,238.672 455.953,238.91C456.168,239.148 456.148,239.516 455.91,239.73L455.27,240.285L454.898,240.543L454.684,240.605C454.543,240.617 454.207,240.52 454.09,240.262C453.898,239.832 454.09,239.766 454.121,239.703C454.328,239.336 454.742,238.934 455.406,238.223L458.094,235.41C459.23,234.234 460.445,233.059 461.355,232.016C461.84,231.461 462.23,230.949 462.664,230.559C463.109,230.164 463.484,229.855 464.004,229.848C464.277,229.844 464.582,229.996 464.746,230.211C464.902,230.418 464.965,230.648 464.996,230.883M457.621,231.684C457.68,232 457.469,232.301 457.152,232.359C456.836,232.414 456.535,232.203 456.477,231.887L456.246,231.227L456.09,230.906L456.082,230.891L456.121,230.926L456.184,230.973C456.137,230.945 456.512,231.059 456.406,231.047C456.348,231.039 456.664,231.02 456.598,231.035C456.527,231.051 456.844,230.91 456.789,230.949C456.73,230.988 456.949,230.777 456.918,230.816C456.867,230.891 456.992,230.633 456.988,230.664L457.012,230.816L457.109,231.258C457.387,232.348 460.074,234.535 462.359,236.391C463.555,237.359 464.586,238.258 465.277,239.066C465.723,239.594 465.961,240.082 466.063,240.449L466.113,240.711L466.074,241.027C466.016,241.172 465.723,241.453 465.422,241.406C465.039,241.344 465.027,241.172 464.98,241.094L464.875,240.879C464.762,240.578 464.91,240.242 465.207,240.125C465.508,240.012 465.844,240.16 465.961,240.461C465.973,240.488 465.77,240.301 465.844,240.355C465.883,240.383 465.582,240.246 465.668,240.27C465.75,240.293 465.242,240.309 465.355,240.273C465.461,240.242 465.039,240.5 465.098,240.434C465.148,240.375 464.977,240.637 464.996,240.59C465.027,240.516 464.953,240.777 464.957,240.746C464.961,240.695 464.957,240.809 464.957,240.809C464.945,240.734 464.793,240.293 464.391,239.82C463.793,239.121 462.797,238.242 461.629,237.293C460.5,236.379 459.246,235.383 458.172,234.391C457.125,233.422 456.234,232.531 455.984,231.547L455.848,230.891L455.832,230.547C455.844,230.414 455.848,230.188 456.125,229.992C456.34,229.844 456.621,229.891 456.742,229.953C457.074,230.121 457.047,230.238 457.113,230.355L457.313,230.762L457.621,231.684ZM476.012,225.555C475.691,225.535 475.449,225.258 475.469,224.938C475.488,224.617 475.766,224.375 476.086,224.395C477.594,224.496 482.496,224.316 485.035,224.332C485.355,224.336 485.617,224.598 485.613,224.918C485.609,225.238 485.348,225.496 485.027,225.496C482.535,225.477 477.703,225.668 476.012,225.555M477.516,227.539C477.195,227.559 476.918,227.313 476.898,226.992C476.883,226.672 477.125,226.398 477.445,226.379L478.363,226.445L481.262,226.641C482.488,226.684 483.879,226.68 485.305,226.559C485.625,226.531 485.906,226.77 485.934,227.09C485.961,227.41 485.723,227.691 485.402,227.719C483.422,227.883 481.547,227.836 480.051,227.742L477.516,227.539ZM494.348,224.773C494.473,225.066 494.336,225.41 494.043,225.535C493.746,225.664 493.406,225.527 493.277,225.234L493.301,225.27C493.285,225.25 493.43,225.395 493.387,225.359C493.344,225.324 493.633,225.461 493.563,225.441C493.492,225.426 493.816,225.441 493.758,225.449C493.703,225.461 493.91,225.395 493.883,225.41C493.832,225.438 493.949,225.363 493.949,225.363C493.652,225.672 492.863,228.016 492.391,229.852L492.016,231.516L491.93,231.996C491.871,232.313 491.57,232.527 491.254,232.469C490.938,232.414 490.727,232.113 490.781,231.797L490.875,231.293L491.266,229.563C491.566,228.395 491.957,227.059 492.363,226C492.559,225.488 492.734,225.066 492.957,224.746C493.066,224.59 493.18,224.398 493.512,224.316C493.879,224.223 494.25,224.551 494.348,224.773M491.93,231.988C491.879,232.305 491.582,232.52 491.266,232.473C490.945,232.422 490.73,232.121 490.781,231.805L491.164,230.012C491.43,228.969 491.813,227.707 492.383,226.531C492.957,225.348 493.738,224.457 494.516,224C494.871,223.793 495.414,223.559 495.906,223.863C496.719,224.363 496.781,225.387 496.855,226.422C496.953,227.742 496.586,229.148 496.309,230.23L495.938,231.34L495.781,231.746C495.762,231.793 495.828,231.773 495.652,231.969C495.617,232.008 495.574,232.09 495.371,232.148C495.16,232.207 494.805,232.039 494.711,231.875C494.477,231.465 494.637,231.5 494.645,231.469L494.66,231.398C494.793,230.902 495.168,229.777 495.68,228.527C496.102,227.492 496.625,226.43 497.266,225.539C498.086,224.402 499.113,223.746 500.012,223.582C500.438,223.508 500.887,223.652 501.188,223.926C502.063,224.734 502.16,226.234 502.156,227.871C502.152,229.07 501.988,230.25 501.805,231.168L501.539,232.23L501.387,232.582C501.34,232.656 501.313,232.852 500.91,232.887C500.688,232.906 500.465,232.762 500.379,232.645L500.273,232.414C500.199,232.102 500.395,231.789 500.707,231.715C501.02,231.641 501.332,231.832 501.406,232.145L501.383,232.078C501.395,232.109 501.285,231.914 501.32,231.961C501.355,232.012 501.059,231.754 501.145,231.801C501.23,231.852 500.734,231.73 500.84,231.727C500.938,231.723 500.543,231.82 500.602,231.789C500.656,231.762 500.457,231.895 500.484,231.871C500.531,231.828 500.395,231.977 500.406,231.961C500.43,231.922 500.988,229.805 500.992,227.867C500.996,226.848 500.898,225.93 500.695,225.324C500.602,225.047 500.484,224.859 500.398,224.781L500.215,224.727C499.711,224.816 498.871,225.301 498.211,226.219C497.648,227 497.152,227.992 496.754,228.965C496.262,230.172 495.887,231.301 495.781,231.699L495.789,231.656L495.793,231.602C495.793,231.629 495.762,231.383 495.781,231.457C495.789,231.5 495.676,231.223 495.715,231.293C495.758,231.367 495.352,231.004 495.473,231.066C495.598,231.129 495,231.035 495.105,231.016C495.199,230.996 494.859,231.125 494.902,231.098C494.98,231.047 494.75,231.238 494.773,231.211C494.809,231.168 494.707,231.301 494.715,231.289L494.738,231.227L494.848,230.938L495.184,229.945C495.453,228.879 495.773,227.555 495.699,226.508C495.629,225.59 495.313,224.863 495.297,224.852L495.375,224.871L495.102,225.004C494.609,225.297 493.914,226.039 493.43,227.039C492.91,228.105 492.543,229.305 492.293,230.297L491.93,231.988Z" style="fill:rgb(192,0,0);fill-rule:nonzero;"/>
    </g>
</svg>
