<?xml version="1.0" encoding="UTF-8" standalone="no"?>
<!-- Created with Inkscape (http://www.inkscape.org/) -->

<svg
   xmlns:dc="http://purl.org/dc/elements/1.1/"
   xmlns:cc="http://creativecommons.org/ns#"
   xmlns:rdf="http://www.w3.org/1999/02/22-rdf-syntax-ns#"
   xmlns:svg="http://www.w3.org/2000/svg"
   xmlns="http://www.w3.org/2000/svg"
   version="1.1"
   width="800"
   height="800"
   id="svg2">
  <defs
     id="defs4">
    <marker
       refX="0"
       refY="0"
       orient="auto"
       id="Arrow1Lstart"
       style="overflow:visible">
      <path
         d="M 0,0 5,-5 -12.5,0 5,5 0,0 z"
         transform="matrix(0.8,0,0,0.8,10,0)"
         id="path4171"
         style="fill-rule:evenodd;stroke:#000000;stroke-width:1pt;marker-start:none" />
    </marker>
    <marker
       refX="0"
       refY="0"
       orient="auto"
       id="Arrow1Mstart"
       style="overflow:visible">
      <path
         d="M 0,0 5,-5 -12.5,0 5,5 0,0 z"
         transform="matrix(0.4,0,0,0.4,4,0)"
         id="path4177"
         style="fill-rule:evenodd;stroke:#000000;stroke-width:1pt;marker-start:none" />
    </marker>
    <marker
       refX="0"
       refY="0"
       orient="auto"
       id="Arrow1Mend"
       style="overflow:visible">
      <path
         d="M 0,0 5,-5 -12.5,0 5,5 0,0 z"
         transform="matrix(-0.4,0,0,-0.4,-4,0)"
         id="path4180"
         style="fill-rule:evenodd;stroke:#000000;stroke-width:1pt;marker-start:none" />
    </marker>
  </defs>
  <metadata
     id="metadata7">
    <rdf:RDF>
      <cc:Work
         rdf:about="">
        <dc:format>image/svg+xml</dc:format>
        <dc:type
           rdf:resource="http://purl.org/dc/dcmitype/StillImage" />
        <dc:title></dc:title>
      </cc:Work>
    </rdf:RDF>
  </metadata>
  <path
     d="m 34.99,56.43 0,705.37 702.61,0"
     id="path4166"
     style="fill:none;stroke:#000000;stroke-width:2.5687px;stroke-linecap:butt;stroke-linejoin:miter;stroke-opacity:1;marker-start:url(#Arrow1Mstart);marker-end:url(#Arrow1Mend)" />
  <path
     d="M 64.79,782.6 488.1,13.28"
     id="path4986"
     style="fill:none;stroke:#000000;stroke-width:2.5687px;stroke-linecap:butt;stroke-linejoin:miter;stroke-opacity:1" />
  <path
     d="M 13.67,264 782.5,782.6"
     id="path4988"
     style="fill:none;stroke:#000000;stroke-width:2.5687px;stroke-linecap:butt;stroke-linejoin:miter;stroke-opacity:1" />
  <g
     transform="matrix(0.0026,0,0,0.0026,473.4,609)"
     id="text4990"
     style="font-size:23095.9102px;font-style:normal;font-variant:normal;font-weight:normal;font-stretch:normal;text-align:start;line-height:100%;letter-spacing:0px;word-spacing:0px;writing-mode:lr-tb;text-anchor:start;fill:#000000;fill-opacity:1;stroke:none;font-family:Vijaya;-inkscape-font-specification:Vijaya">
    <path
       d="m -109500,-97.32 -200,597.72 -1300,0 -1000,3969.6 c -400,1744 -900,3097 -1300,4060 -700,1346 -1300,2270 -2100,2790 -500,390 -1100,590 -1600,590 -400,0 -700,-110 -1000,-320 -200,-150 -300,-350 -300,-590 0,-200 100,-360 300,-510 100,-140 300,-210 500,-210 200,0 300,50 500,150 100,100 100,220 100,360 0,130 0,260 -200,370 -100,80 -100,140 -100,190 0,50 0,90 100,120 0,50 100,70 200,70 300,0 500,-80 800,-250 300,-160 600,-410 800,-730 200,-320 400,-790 600,-1399 100,-255 300,-1094 700,-2514 l 1600,-6146.6 -1600,0 100,-597.72 c 500,0 900,-35.68 1100,-107.18 200,-71.4 400,-204.8 500,-400.3 200,-195.5 400,-564.2 700,-1105.2 300,-722 700,-1282 1000,-1680 500,-542 900,-948 1400,-1218 500,-271 1000,-406 1400,-406 500,0 800,116 1100,349 300,233 400,485 400,756 0,218 0,398 -200,541 -100,143 -300,215 -500,215 -200,0 -300,-55 -500,-164 -100,-109 -100,-239 -100,-389 0,-98 0,-218 100,-361 100,-143 100,-237 100,-282 0,-83 0,-146 -100,-192 -100,-60 -200,-90 -300,-90 -400,0 -700,121 -1000,361 -500,323 -800,827 -1100,1511 -200,354 -500,1241 -900,2661.68 z"
       id="path5485" />
    <path
       d="m -103400,-119.9 9830,0 0,744.3 -9830,0 z m 0,2965.9 9830,0 0,744 -9830,0 z"
       id="path5487" />
    <path
       d="M -83970,-322.9 -85140,3782 c 520,-962 970,-1688 1340,-2176 570,-752.3 1130,-1297.3 1680,-1635.66 320,-195.44 660,-293.24 1000,-293.24 300,0 550,97.8 760,293.24 200,195.46 300,443.56 300,744.26 0,300.4 -70,688.4 -210,1161.4 l -650,2312 c 990,-1849 1930,-3146 2810,-3890.6 490,-413.5 970,-620.3 1450,-620.3 270,0 500,95.9 680,287.6 180,191.7 270,486.8 270,885.3 0,353 -50,725 -160,1116 l -1000,3530 c -220,775 -320,1203 -320,1286 0,83 20,154 70,214 40,45 90,68 150,68 60,0 170,-57 320,-169 340,-271 670,-624 970,-1060 l 300,191 c -150,241 -420,574 -800,998 -380,425 -710,713 -990,863 -270,150 -520,226 -750,226 -210,0 -390,-72 -530,-215 -140,-143 -210,-319 -210,-530 0,-293 120,-879 370,-1759 l 830,-2910 c 180,-676 280,-1048 290,-1116 20,-120 30,-233 30,-338 0,-151 -30,-267.2 -100,-349.9 -70,-90.2 -160,-135.3 -250,-135.3 -250,0 -520,131.5 -800,394.2 -840,767 -1620,1842 -2340,3226 -480,917 -930,2090 -1350,3518 l -1370,0 1550,-5492 c 170,-594 250,-988 250,-1184 0,-165 -30,-287.4 -90,-366.4 -70,-78.9 -150,-118.4 -250,-118.4 -200,0 -410,71.4 -640,214.3 -360,240.5 -830,748.5 -1400,1522.5 -570,774 -1010,1515 -1330,2222 -150,330 -510,1398 -1080,3202 l -1340,0 1680,-5886 210,-756 c 50,-120 70,-207 70,-259.4 0,-135.3 -60,-255.6 -180,-360.9 -120,-105.2 -270,-157.9 -460,-157.9 -90,0 -300,37.6 -660,112.8 l -80,-338.3 z"
       id="path5489" />
    <path
       d="m -66680,-322.9 c 290,315.805 510,631.6 660,947.3 110,218.1 290,789.6 540,1714.6 l 800,-1196 c 210,-293 470,-571.2 770,-834.3 300,-263.17 570,-439.8 800,-530.1 140,-67.6 310,-101.5 490,-101.5 250,0 460,71.5 610,214.3 150,142.85 230,312 230,507.5 0,233.1 -40,390.9 -130,473.6 -170,150.5 -360,225.5 -580,225.5 -130,0 -270,-26 -420,-79 -270,-97.6 -460,-146.5 -560,-146.5 -150,0 -320,82.7 -520,248.5 -370,315 -820,924 -1340,1827 l 740,3123 c 120,482 210,769 290,863 80,94 160,141 230,141 130,0 280,-71 450,-214 330,-278 620,-639 860,-1083 l 320,158 c -390,714 -870,1308 -1460,1782 -330,263 -610,395 -840,395 -340,0 -610,-188 -820,-564 -120,-241 -390,-1260 -790,-3056 -940,1639 -1690,2695 -2260,3168 -370,301 -730,452 -1070,452 -240,0 -470,-87 -670,-260 -140,-135 -210,-316 -210,-541 0,-196 60,-361 190,-496 140,-136 300,-203 490,-203 200,0 410,97 630,293 150,143 270,214 360,214 70,0 170,-49 280,-146 280,-234 670,-732 1160,-1495 490,-763 810,-1313 960,-1652 -370,-1466 -570,-2244 -600,-2334 -140,-391 -330,-667.5 -550,-829.1 -230,-161.6 -550,-242.5 -980,-242.5 -150,0 -310,3.8 -490,11.3 l 0,-327 z"
       id="path5491" />
    <path
       d="m -50770,6613 0,-4523 -4510,0 0,-744 4510,0 0,-4511 740,0 0,4511 4540,0 0,744 -4540,0 0,4523 z"
       id="path5493" />
    <path
       d="M -35720,-322.9 -36920,3816 c 1120,-1692 1990,-2804 2600,-3338.2 600,-533.76 1180,-800.7 1740,-800.7 300,0 550,101.5 740,304.52 200,202.98 300,462.38 300,778.18 0,368.2 -90,853.2 -260,1455.2 l -1110,3823 c -130,443 -190,714 -190,811 0,83 20,153 70,209 50,57 100,85 160,85 60,0 150,-38 250,-113 330,-256 680,-643 1070,-1162 l 280,170 c -570,804 -1100,1379 -1600,1725 -360,233 -670,350 -950,350 -230,0 -410,-68 -540,-203 -130,-136 -190,-316 -190,-542 0,-293 100,-793 300,-1500 l 1060,-3653 c 130,-452 190,-805 190,-1061 0,-120 -40,-217.6 -120,-292.8 -80,-75.1 -170,-112.7 -280,-112.7 -170,0 -370,71.4 -610,214.2 -450,270.3 -910,720.3 -1400,1347.3 -480,628 -990,1427 -1540,2397 -280,519 -520,1082 -710,1691 l -450,1500 -1360,0 1660,-5683 c 190,-685 290,-1094 290,-1229.7 0,-135.3 -60,-253.7 -160,-355.2 -110,-101.5 -240,-152.3 -390,-152.3 -80,0 -210,15.1 -390,45.1 l -350,45.1 -50,-327 z"
       id="path5495" />
  </g>
  <text
     x="487.5"
     y="564.09998"
     id="text4994"
     xml:space="preserve"
     style="font-size:27.8889px;font-style:normal;font-variant:normal;font-weight:normal;font-stretch:normal;text-align:start;line-height:100%;letter-spacing:0px;word-spacing:0px;writing-mode:lr-tb;text-anchor:start;fill:#000000;fill-opacity:1;stroke:none;font-family:Arial;-inkscape-font-specification:Arial"><tspan
       x="487.5"
       y="564.09998"
       id="tspan4996" /></text>
  <g
     transform="matrix(0.0026,0,0,0.0026,473.4,609)"
     id="text4998"
     style="font-size:13088.1533px;font-style:normal;font-variant:normal;font-weight:normal;font-stretch:normal;text-align:start;line-height:100%;letter-spacing:0px;word-spacing:0px;writing-mode:lr-tb;text-anchor:start;fill:#000000;fill-opacity:1;stroke:none;font-family:Vijaya;-inkscape-font-specification:Vijaya">
    <path
       d="m -71440,5783 -1650,5767 c -100,340 -140,580 -140,730 0,130 40,230 130,300 80,70 290,110 610,130 l -50,190 -2650,0 70,-190 c 280,0 470,-20 560,-60 140,-70 250,-150 320,-250 110,-160 230,-440 340,-850 l 1200,-4143 c 70,-252 110,-394 120,-429 10,-68 10,-136 10,-204 0,-119 -30,-213 -100,-281 -60,-68 -150,-102 -260,-102 -90,0 -230,21 -420,63 l -70,-185 1740,-486 z"
       id="path5516" />
    <path
       d="m -28150,5783 -1650,5767 c -100,340 -140,580 -140,730 0,130 40,230 130,300 80,70 290,110 610,130 l -50,190 -2650,0 70,-190 c 280,0 470,-20 560,-60 140,-70 250,-150 320,-250 110,-160 230,-440 340,-850 l 1200,-4143 c 70,-252 110,-394 120,-429 10,-68 10,-136 10,-204 0,-119 -30,-213 -100,-281 -60,-68 -150,-102 -260,-102 -90,0 -230,21 -420,63 l -70,-185 1740,-486 z"
       id="path5518" />
  </g>
  <g
     transform="matrix(0.0026,0,0,0.0026,457.1,609)"
     id="text4990-6"
     style="font-size:23095.9102px;font-style:normal;font-variant:normal;font-weight:normal;font-stretch:normal;text-align:start;line-height:100%;letter-spacing:0px;word-spacing:0px;writing-mode:lr-tb;text-anchor:start;fill:#000000;fill-opacity:1;stroke:none;font-family:Vijaya;-inkscape-font-specification:Vijaya">
    <path
       d="m 4835,-35970 -260,940 -1522,0 c 113,340 169,640 169,920 0,800 -338,1520 -1015,2140 -684,620 -1619.9,960 -2807.8,1030 -646.2,190 -1128.2,430 -1443.2,700 -121,90 -181,180 -181,290 0,120 55,230 164,330 109,100 381,200 817,300 l 1770.9,420 c 970.1,220 1613.1,490 1928.1,810 309,320 463,690 463,1110 0,490 -183,950 -547,1360 -365,410 -901,740 -1607.2,970 -706.76,230 -1484.9,350 -2334.8,350 -751,0 -1436,-90 -2052,-270 -617,-180 -1058,-420 -1325,-720 -267,-300 -401,-620 -401,-940 0,-250 87,-520 260,-810 173,-280 387,-510 643,-690 165,-120 627,-390 1387,-820 -278,-220 -418,-460 -418,-720 0,-240 125,-500 373,-770 248,-270 766,-570 1556,-900 -669,-130 -1197,-410 -1585,-840 -387,-430 -580,-900 -580,-1430 0,-860 376,-1630 1127,-2310 752,-680 1755.9,-1020 3011.4,-1020 451.1,0 821.6,50 1110.6,140 290,100 574,240 852,430 z m -3147,1430 c 0,-490 -135,-870 -405,-1150 -271,-280 -624.5,-420 -1060.6,-420 -684.1,0 -1248.4,350 -1691.4,1030 -444,690 -666,1410 -666,2150 0,470 141,850 423,1150 282,290 626,440 1032.3,440 323.2,0 635.24,-90 936,-260 300.7,-180 552.6,-420 755.7,-730 203,-310 366,-700 490,-1180 124,-480 186,-820 186,-1030 z m -4353,6220 c -488,230 -859,520 -1110,870 -252,350 -378,690 -378,1030 0,400 180,730 541,990 526,380 1290,570 2289,570 865,0 1605.6,-150 2222.1,-440 616.9,-300 924.9,-680 924.9,-1140 0,-240 -115,-470 -344,-680 -229,-210 -671.1,-380 -1325.2,-520 -353.4,-70 -1292.8,-290 -2819.8,-680 z"
       id="path5498" />
    <path
       d="m 10900,-36330 9800,0 0,740 -9800,0 z m 0,2960 9800,0 0,750 -9800,0 z"
       id="path5500" />
    <path
       d="m 30300,-36540 -1170,4110 c 520,-960 970,-1690 1340,-2180 570,-750 1130,-1290 1680,-1630 320,-200 660,-300 1000,-300 300,0 560,100 760,300 200,190 300,440 300,740 0,300 -70,690 -210,1160 l -640,2310 c 980,-1840 1920,-3140 2800,-3890 490,-410 970,-620 1450,-620 280,0 500,100 690,290 180,190 270,490 270,890 0,350 -60,720 -170,1110 l -1000,3530 c -210,780 -320,1210 -320,1290 0,80 20,150 80,210 30,50 80,70 140,70 60,0 170,-60 320,-170 340,-270 670,-620 970,-1060 l 300,190 c -150,240 -410,580 -800,1000 -380,430 -710,710 -980,860 -280,150 -530,230 -750,230 -220,0 -400,-70 -540,-220 -140,-140 -210,-310 -210,-530 0,-290 130,-870 370,-1750 l 830,-2910 c 180,-680 280,-1050 290,-1120 20,-120 30,-230 30,-340 0,-150 -30,-270 -100,-350 -70,-90 -160,-130 -250,-130 -250,0 -520,130 -800,390 -840,770 -1620,1840 -2340,3230 -480,910 -930,2090 -1340,3510 l -1380,0 1560,-5490 c 160,-590 240,-990 240,-1180 0,-170 -30,-290 -90,-370 -70,-80 -150,-120 -240,-120 -210,0 -420,80 -650,220 -360,240 -820,750 -1400,1520 -570,770 -1010,1520 -1330,2220 -150,330 -510,1400 -1080,3200 l -1340,0 1680,-5880 210,-760 c 50,-120 70,-200 70,-260 0,-130 -60,-250 -180,-360 -120,-100 -270,-160 -460,-160 -80,0 -300,40 -660,120 l -70,-340 z"
       id="path5502" />
    <path
       d="m 47590,-36540 c 290,320 510,640 660,950 120,220 300,790 540,1720 l 800,-1200 c 220,-290 470,-570 770,-830 300,-270 570,-440 800,-530 150,-70 310,-110 490,-110 250,0 460,80 610,220 160,140 230,310 230,510 0,230 -40,390 -130,470 -170,150 -360,220 -580,220 -130,0 -260,-20 -410,-70 -280,-100 -470,-150 -570,-150 -150,0 -320,80 -520,250 -370,310 -820,920 -1340,1820 l 750,3130 c 110,480 200,770 280,860 80,90 160,140 230,140 130,0 280,-70 460,-210 330,-280 610,-640 850,-1090 l 320,160 c -390,720 -870,1310 -1460,1780 -330,270 -610,400 -840,400 -340,0 -610,-190 -810,-560 -130,-250 -400,-1260 -790,-3060 -940,1640 -1700,2690 -2270,3170 -370,300 -730,450 -1070,450 -240,0 -460,-90 -670,-260 -140,-140 -210,-320 -210,-540 0,-200 60,-360 200,-500 130,-130 290,-200 490,-200 190,0 400,100 620,290 150,150 270,220 360,220 70,0 170,-50 280,-150 280,-230 670,-730 1160,-1490 490,-770 810,-1320 960,-1660 -370,-1460 -570,-2240 -600,-2330 -140,-390 -330,-670 -550,-830 -230,-160 -550,-240 -980,-240 -140,0 -310,0 -490,10 l 0,-330 z"
       id="path5504" />
    <path
       d="m 63500,-29600 0,-4520 -4510,0 0,-750 4510,0 0,-4510 740,0 0,4510 4540,0 0,750 -4540,0 0,4520 z"
       id="path5506" />
    <path
       d="m 78560,-36540 -1210,4140 c 1130,-1690 1990,-2800 2600,-3340 600,-530 1180,-800 1740,-800 300,0 550,110 740,310 200,200 300,460 300,780 0,360 -90,850 -260,1450 l -1110,3820 c -120,450 -190,720 -190,820 0,80 30,150 70,200 50,60 100,90 160,90 60,0 150,-40 260,-110 320,-260 670,-650 1060,-1170 l 280,170 c -570,810 -1100,1380 -1600,1730 -360,230 -670,350 -950,350 -230,0 -400,-70 -540,-200 -130,-140 -190,-320 -190,-550 0,-290 100,-790 300,-1500 l 1060,-3650 c 130,-450 190,-800 190,-1060 0,-120 -40,-220 -120,-290 -70,-80 -170,-110 -280,-110 -170,0 -370,70 -610,210 -450,270 -910,720 -1390,1350 -490,620 -1000,1420 -1540,2390 -290,520 -530,1090 -710,1700 l -460,1490 -1360,0 1660,-5680 c 190,-680 290,-1090 290,-1230 0,-130 -50,-250 -160,-350 -110,-100 -240,-160 -390,-160 -80,0 -200,20 -390,50 l -340,40 -60,-320 z"
       id="path5508" />
  </g>
  <g
     transform="matrix(0.0026,0,0,0.0026,457.1,609)"
     id="text4998-7"
     style="font-size:13088.1533px;font-style:normal;font-variant:normal;font-weight:normal;font-stretch:normal;text-align:start;line-height:100%;letter-spacing:0px;word-spacing:0px;writing-mode:lr-tb;text-anchor:start;fill:#000000;fill-opacity:1;stroke:none;font-family:Vijaya;-inkscape-font-specification:Vijaya">
    <path
       d="m 40910,-23310 -3470,0 0,-190 c 1770,-1550 2940,-2770 3510,-3650 260,-410 390,-830 390,-1290 0,-350 -110,-640 -320,-870 -220,-220 -510,-330 -860,-330 -480,0 -880,230 -1190,690 l -180,-80 c 170,-440 430,-790 770,-1030 330,-250 690,-370 1080,-370 440,0 820,150 1120,450 300,310 450,670 450,1110 0,300 -50,580 -160,840 -160,400 -470,850 -910,1340 -670,770 -1570,1640 -2690,2630 l 1750,0 c 280,0 510,-60 690,-170 190,-120 320,-270 400,-470 l 200,0 z"
       id="path5511" />
  </g>
  <g
     transform="matrix(0.0026,0,0,0.0026,457.1,609)"
     id="text4990-6-5"
     style="font-size:23095.9102px;font-style:normal;font-variant:normal;font-weight:normal;font-stretch:normal;text-align:start;line-height:100%;letter-spacing:0px;word-spacing:0px;writing-mode:lr-tb;text-anchor:start;fill:#000000;fill-opacity:1;stroke:none;font-family:Vijaya;-inkscape-font-specification:Vijaya">
    <path
       d="m 114500,46310 c 300,310 500,630 700,950 100,210 300,790 500,1710 l 800,-1200 c 200,-290 500,-570 800,-830 300,-260 500,-440 800,-530 100,-70 300,-100 500,-100 200,0 400,70 600,210 100,150 200,310 200,510 0,230 0,390 -100,470 -200,150 -400,230 -600,230 -100,0 -300,-30 -400,-80 -300,-100 -500,-150 -600,-150 -100,0 -300,90 -500,250 -400,320 -800,930 -1300,1830 l 700,3120 c 100,480 200,770 300,870 100,90 100,140 200,140 200,0 300,-80 500,-220 300,-280 600,-640 800,-1080 l 300,160 c -300,710 -800,1310 -1400,1780 -300,260 -600,390 -900,390 -300,0 -600,-180 -800,-560 -100,-240 -400,-1260 -800,-3060 -900,1640 -1600,2700 -2200,3170 -400,300 -700,450 -1100,450 -200,0 -500,-80 -700,-260 -100,-130 -200,-310 -200,-540 0,-190 100,-360 200,-490 200,-140 300,-210 500,-210 200,0 400,100 600,300 200,140 300,210 400,210 100,0 200,-50 300,-150 300,-230 700,-730 1100,-1490 500,-760 800,-1310 1000,-1650 -400,-1470 -600,-2250 -600,-2340 -100,-390 -300,-660 -600,-820 -200,-170 -500,-250 -900,-250 -200,0 -300,10 -500,10 l 0,-320 z"
       id="path5482" />
  </g>
  <g
     transform="matrix(0.0026,0,0,0.0026,59.65,45.9)"
     id="text4990-6-5-1"
     style="font-size:23095.9102px;font-style:normal;font-variant:normal;font-weight:normal;font-stretch:normal;text-align:start;line-height:100%;letter-spacing:0px;word-spacing:0px;writing-mode:lr-tb;text-anchor:start;fill:#000000;fill-opacity:1;stroke:none;font-family:Vijaya;-inkscape-font-specification:Vijaya">
    <path
       d="m 55.22,-5965 c 210.48,354 355.18,683 434.18,987 78.9,305 156,908 231.2,1810 L 1115,1298 C 1484,861.9 2010,170.2 2694,-777.1 3032,-1236 3446,-1863 3935,-2660 c 293,-482 473,-820 541,-1015 38,-98 56,-196 56,-294 0,-67 -20,-122 -62,-163 -41,-41 -152,-92 -332,-152 -181,-60 -329,-168 -446,-322 -116,-154 -175,-329 -175,-524 0,-248 74,-449 220,-603 147,-155 329,-232 547,-232 263,0 489,111 677,333 188,222 282,528 282,919 0,474 -164,1019 -491,1635 -327,617 -956,1560 -1889,2830.9 C 1931,1024 803.3,2411 -519.9,3914 -1437,4944 -2116,5595 -2555,5865 c -440,271 -818,406 -1134,406 -188,0 -353,-71 -496,-214 -143,-143 -214,-308 -214,-496 0,-233 97,-448 293,-643 195,-196 410,-293 643,-293 120,0 218,26 293,79 53,30 107,116 163,259 57,143 111,241 164,293 30,30 64,45 101,45 38,0 102,-30 192,-90 331,-210 718,-537 1162,-981 C -801.9,3636 -369.6,3151 -91.39,2775 L -610.1,-2976 c -82.7,-955 -208.7,-1536 -377.8,-1743 -169.1,-206 -453.1,-310 -851.1,-310 -128,0 -354,19 -677,57 l -90,-339 z"
       id="path5479" />
  </g>
  <text
     x="462.7756"
     y="532.67749"
     id="text4990-5"
     xml:space="preserve"
     style="font-size:22.5546px;font-style:normal;font-variant:normal;font-weight:normal;font-stretch:normal;text-align:start;line-height:100%;letter-spacing:0px;word-spacing:0px;writing-mode:lr-tb;text-anchor:start;fill:#000000;fill-opacity:1;stroke:none;font-family:Vijaya;-inkscape-font-specification:Vijaya"><tspan
       x="462.7756"
       y="532.67749"
       id="tspan4992-2" /></text>
  <g
     transform="matrix(0.0026,0,0,0.0023,457.1,609)"
     id="text5092"
     style="font-size:21862.4082px;font-style:normal;font-variant:normal;font-weight:normal;font-stretch:normal;text-align:start;line-height:100%;letter-spacing:0px;word-spacing:0px;writing-mode:lr-tb;text-anchor:start;fill:#000000;fill-opacity:1;stroke:none;font-family:Adobe Fangsong Std R;-inkscape-font-specification:Adobe Fangsong Std R">
    <path
       d="m -68650,-53360 c -10,-500 -50,-990 -130,-1460 -80,-470 -200,-880 -360,-1250 -270,-670 -620,-1150 -1050,-1440 -420,-280 -910,-420 -1460,-420 -1320,50 -2360,530 -3120,1440 -770,910 -1310,1980 -1630,3210 -330,1230 -480,2340 -480,3330 10,1030 290,1850 820,2470 530,630 1270,950 2220,970 690,10 1360,-180 2010,-570 650,-390 1270,-1100 1860,-2120 100,1010 270,1710 510,2110 250,400 540,590 870,580 550,-10 1050,-300 1490,-870 440,-580 740,-1400 890,-2480 l -630,-110 c -160,840 -370,1480 -630,1900 -260,420 -520,640 -770,640 -120,30 -240,-120 -350,-440 -120,-320 -190,-1020 -200,-2080 0,-180 10,-380 20,-590 10,-210 20,-420 30,-630 450,-970 900,-2040 1320,-3220 430,-1180 790,-2280 1080,-3320 l -940,0 c -140,590 -330,1280 -570,2080 -250,800 -500,1560 -760,2270 z m -1360,2410 c -610,1370 -1220,2330 -1820,2870 -600,540 -1140,800 -1630,780 -560,0 -1010,-220 -1350,-680 -350,-460 -520,-1170 -530,-2140 -10,-800 100,-1750 320,-2840 220,-1090 590,-2060 1110,-2900 520,-840 1230,-1280 2130,-1320 350,-10 670,140 970,440 300,310 500,820 620,1550 70,420 110,850 140,1310 30,460 40,1030 40,1730 z"
       id="path5521" />
  </g>
  <path
     d="m 346.1,487.7 c -30.1,45.5 -90.2,60.1 -138,33.9"
     id="path5096"
     style="fill:none;stroke:#000000;stroke-width:2.5687;stroke-linecap:square;stroke-linejoin:bevel;stroke-miterlimit:4;stroke-opacity:1;stroke-dashoffset:0;marker-start:url(#Arrow1Lstart)" />
  <g
     transform="matrix(0.0026,0,0,0.0026,571.6,609)"
     id="text4998-7-6"
     style="font-size:13088.1533px;font-style:normal;font-variant:normal;font-weight:normal;font-stretch:normal;text-align:start;line-height:100%;letter-spacing:0px;word-spacing:0px;writing-mode:lr-tb;text-anchor:start;fill:#000000;fill-opacity:1;stroke:none;font-family:Vijaya;-inkscape-font-specification:Vijaya">
    <path
       d="m 40910,-23310 -3470,0 0,-190 c 1770,-1550 2940,-2770 3510,-3650 260,-410 390,-830 390,-1290 0,-350 -110,-640 -320,-870 -220,-220 -510,-330 -860,-330 -480,0 -880,230 -1190,690 l -180,-80 c 170,-440 430,-790 770,-1030 330,-250 690,-370 1080,-370 440,0 820,150 1120,450 300,310 450,670 450,1110 0,300 -50,580 -160,840 -160,400 -470,850 -910,1340 -670,770 -1570,1640 -2690,2630 l 1750,0 c 280,0 510,-60 690,-170 190,-120 320,-270 400,-470 l 200,0 z"
       id="path5511-2" />
  </g>
</svg>
